<?xml version="1.0" encoding="UTF-8" standalone="no"?>
<!-- Created with Inkscape (http://www.inkscape.org/) -->

<svg
   version="1.1"
   id="svg1"
   width="1561"
   height="1049"
   viewBox="0 0 1561 1049"
   sodipodi:docname="favicon-source.svg"
   inkscape:version="1.4.2 (ebf0e940d0, 2025-05-08)"
   inkscape:export-filename="/home/mwangala/Downloads/logo-icon.png"
   inkscape:export-xdpi="46.856052"
   inkscape:export-ydpi="46.856052"
   xmlns:inkscape="http://www.inkscape.org/namespaces/inkscape"
   xmlns:sodipodi="http://sodipodi.sourceforge.net/DTD/sodipodi-0.dtd"
   xmlns="http://www.w3.org/2000/svg"
   xmlns:svg="http://www.w3.org/2000/svg">
  <defs
     id="defs1" />
  <sodipodi:namedview
     id="namedview1"
     pagecolor="#505050"
     bordercolor="#eeeeee"
     borderopacity="1"
     inkscape:showpageshadow="0"
     inkscape:pageopacity="0"
     inkscape:pagecheckerboard="0"
     inkscape:deskcolor="#505050"
     inkscape:zoom="0.47"
     inkscape:cx="974.46809"
     inkscape:cy="522.34043"
     inkscape:window-width="1470"
     inkscape:window-height="795"
     inkscape:window-x="0"
     inkscape:window-y="0"
     inkscape:window-maximized="1"
     inkscape:current-layer="g1" />
  <g
     inkscape:groupmode="layer"
     inkscape:label="Image"
     id="g1">
    <path
       style="fill:#d4af37;fill-opacity:1;stroke-width:2.41557"
       d="M 634.35674,988.95891 C 553.7365,978.6413 474.481,943.32938 412.83734,881.99982 c -23.90868,-30.29095 57.44959,-56.64972 16.85674,-22.60365 43.47367,62.8853 115.60449,84.38502 179.645,106.73435 79.29493,17.04851 160.69256,7.27693 240.59226,3.86905 69.26044,-24.0295 138.78727,-42.41787 208.61396,-57.67597 61.9919,-39.98291 121.9389,-83.58333 177.9373,-133.81591 36.0485,-14.92573 -1.0004,-124.99273 42.4479,-82.7665 -4.3768,52.95179 -42.6347,97.19493 -77.9959,130.15415 -50.0221,39.55846 -100.1906,80.99178 -155.9944,108.89008 -62.29555,18.5635 -125.03437,32.56107 -188.0713,48.24245 -73.67977,12.18292 -148.38389,8.86048 -222.51216,5.93104 z M 492.31378,921.91942 c -11.60572,-14.15003 0.68164,9.66335 0,0 z m -39.45639,-27.45279 c -4.37894,-9.42621 -8.3466,7.81454 0,0 z m -27.0558,-25.60153 c -15.659,-18.40813 2.97094,12.78635 0,0 z m -6.88204,-9.05805 c 21.78815,-14.1172 6.36227,-15.5158 -3.0144,-0.27851 z m 300.67046,90.20456 c -23.51681,-1.92012 -101.00252,-12.94938 -88.60069,-16.65458 22.43973,8.40732 79.40602,11.35481 24.4596,-0.17448 -83.54478,-23.28526 -165.32166,-70.0745 -225.1432,-141.10982 -12.91313,-33.60027 59.07567,-57.50442 20.77629,-19.72296 29.6309,43.92359 75.17655,72.20723 118.11401,96.4885 13.91812,5.15355 71.08627,36.33056 35.7345,7.5222 48.23929,-13.38959 96.43221,10.11764 145.06887,9.51262 65.63864,15.51348 -23.62452,19.04749 -26.6893,26.50416 164.3564,26.08982 346.89711,-76.9671 410.32481,-257.0832 -9.2462,-52.10524 89.636,-45.51231 34.9356,-9.73171 -32.0043,4.99567 -24.2683,61.40087 0.2092,21.64452 30.6914,-36.96234 84.0569,-5.74226 45.1159,38.21888 -52.3604,76.64132 -124.8421,132.05694 -196.0199,182.43997 62.5926,-80.06264 147.7054,-136.30825 202.0312,-226.02594 -66.6537,21.09072 -86.3843,114.0963 -147.0096,149.49146 -58.245,43.61409 -98.82898,119.99462 -172.68901,125.80827 -58.0341,17.54244 -121.57118,31.5257 -180.61837,12.87214 z m 113.40617,-0.77674 c 44.08817,0.84724 130.64073,-34.04225 137.39415,-60.60896 -69.37987,38.54192 -146.34932,56.38847 -222.99636,57.0423 -32.27624,18.06075 82.65594,4.11225 85.60221,3.56666 z m -188.49352,-53.1956 c -25.1578,-21.9115 -2.95637,10.90092 0,0 z M 1123.4031,734.49908 c 27.9999,-62.37194 -70.4859,86.38664 -14.3814,17.94649 4.7995,-5.97626 9.5906,-11.96112 14.3814,-17.94649 z m 64.0868,-0.21974 c -15.009,13.13214 -3.0059,12.94338 0,0 z m -27.0973,-101.57059 c -3.1583,-8.62903 4.3391,-16.83541 -3.8554,11.09519 z m 15.0803,1.941 c -1.2252,-10.99722 -9.0406,14.44582 0,0 z m -287.89074,311.3819 c 13.2096,-6.96512 -1.21299,6.30311 0,0 z m -307.33702,-27.6698 c -32.8152,-8.03447 -108.18803,-53.37531 -103.11145,-64.06368 25.61197,28.43829 124.52749,67.64698 111.8063,67.12533 z m 426.15756,-6.74123 c 58.0237,-51.20643 124.2934,-89.35356 182.0387,-140.06241 16.5665,-19.30294 82.7016,-111.63078 55.6093,-42.95019 -42.1975,75.58785 -117.0503,113.83553 -181.2809,159.83064 -17.7784,10.51979 -36.6011,19.15088 -56.3671,23.18196 z M 698.61429,875.21966 c -60.47961,-9.03637 -119.15801,-38.34153 -167.51091,-80.61195 102.73541,84.4739 242.25197,97.61421 359.31665,48.20894 77.20175,-34.51913 131.65367,-114.26748 161.53987,-200.5034 6.0875,-27.24263 47.7432,-63.51675 29.133,-11.85253 -38.2317,96.64564 -103.72608,182.22357 -192.23905,219.49766 -60.4137,25.48745 -126.47468,29.68866 -190.23956,25.26128 z m 276.86975,-88.54045 c 16.09839,-18.49381 60.84696,-70.68069 55.70966,-75.07735 -19.6081,25.86091 -61.75093,79.69097 -68.76246,87.18643 4.69352,-3.53968 8.75002,-7.99712 13.0528,-12.10908 z m 67.44436,-101.87494 c -16.127,18.67569 -3.4531,17.20242 0,0 z m 28.9556,-69.86768 c 13.2434,-17.25811 -21.4542,16.98704 0,0 z M 918.81849,865.84573 c 14.49291,-34.5897 37.30128,3.90703 0,0 z M 717.69376,845.67876 C 659.93227,846.51681 601.62373,758.33453 645.56128,701.76988 696.04644,659.2139 586.21595,639.43156 605.43843,580.81459 609.81644,527.4235 683.50124,437.74231 598.66001,422.16349 534.18405,407.2575 508.7895,307.92116 560.44143,259.53287 c 55.57827,-42.5663 125.67672,-35.51659 185.88467,-66.65983 17.17837,-10.16886 86.89796,9.80501 36.48923,-0.52703 -44.68589,-3.1353 -131.13504,48.01728 -144.44744,39.69623 51.9451,9.70635 -54.92723,10.60989 -7.72481,39.4006 8.85836,23.07201 -71.27438,64.65294 -10.7206,55.48506 66.26802,-11.19343 141.34255,-22.51799 200.50929,22.20192 -18.66087,5.33746 -101.59828,-4.69039 -77.06563,16.56154 22.48235,-9.06583 103.67393,29.33057 41.52777,16.05467 -44.84914,-5.19736 -111.86575,-11.78245 -130.08397,48.47172 23.19017,52.81123 109.85983,-25.2929 153.74365,20.52418 51.3595,16.12772 64.2006,-61.55613 114.11858,-47.72579 42.86626,-15.39742 59.58662,-88.40585 22.25605,-116.22825 53.54607,42.30629 22.6105,126.15151 -35.40965,137.41103 -86.07975,12.74081 -30.72386,116.33746 -73.19489,166.80858 -32.06598,32.10807 -99.94235,-0.1558 -120.48219,-7.04759 44.15917,33.76503 94.16979,-8.94338 32.22401,-40.07339 -28.26081,-28.0549 -64.64598,14.4847 -53.99285,21.57605 -36.64649,-77.83711 99.97497,-87.16526 106.47342,-13.33027 62.2283,55.21924 74.12768,-88.82653 5.96773,-90.17903 -34.2691,-16.29611 -94.00122,-9.46849 -93.09579,3.76696 -54.02076,1.76043 -105.84298,65.08644 -80.01706,127.41317 27.76027,80.35864 112.29234,65.12916 169.22264,95.68995 24.3669,6.15498 59.82523,49.41063 13.22316,24.45542 -14.23236,-14.14953 -85.46318,-37.53717 -33.18038,-14.87089 31.68579,6.08082 76.20592,69.21185 15.0731,56.58333 -49.38677,3.07435 -77.45532,-63.28694 -110.54275,-74.18948 -66.89584,42.30358 -1.75334,151.11253 61.17839,141.63845 60.90068,12.33694 138.45003,-24.74199 144.0858,-103.55124 0.4761,-31.24921 -47.19247,-119.7961 -7.63684,-50.66336 27.75936,65.94775 -5.55257,155.37978 -69.46367,171.28672 -31.42573,11.74976 -65.25546,11.39703 -97.66664,6.16646 z m -59.66319,-47.98405 c -15.8465,-21.46779 5.75235,17.04383 0,0 z m -5.69502,-16.17512 c 3.34733,-30.9621 -7.48273,-93.70731 -17.14885,-29.34625 1.85098,8.61144 3.47153,39.99289 17.14885,29.34625 z M 639.3631,745.07572 c -10.60616,-31.41422 9.24912,9.08411 0,0 z m 159.98848,-3.51147 c -14.34964,-24.52979 -60.21293,-22.87657 -17.81868,-3.11107 10.82812,10.0744 52.96778,20.94593 17.81868,3.11107 z m -37.6071,-18.92201 c -6.60116,-10.18736 21.81994,15.73321 0,0 z m 72.14882,23.13942 c -19.57703,-13.21867 -98.45412,-53.29682 -40.89723,-14.53182 12.16383,8.17563 25.89472,20.8459 40.89723,14.53182 z M 639.92431,716.17222 c -10.21281,1.97185 2.90037,15.451 0,0 z m 22.79997,-21.99813 c 6.684,-16.94031 -22.31789,16.3888 0,0 z m -41.72041,-85.01593 c -20.69729,-19.51845 15.66363,-117.18908 -9.34886,-50.95014 1.92888,14.43389 -3.29727,44.42689 9.34886,50.95014 z m 178.30823,-63.1479 c -5.75192,5.0619 7.30189,13.05226 0,0 z m -100.69781,-31.7032 c 12.98373,-14.31363 -30.05944,20.61997 0,0 z m 2.25464,-50.46627 c 6.60117,-10.1874 -21.81995,15.73316 0,0 z m -72.14882,-62.32535 c -70.80987,1.55291 -96.6423,-133.05614 -28.60031,-161.36841 -38.71563,-7.48908 -75.12567,74.32929 -40.67696,117.92712 0.99543,31.69034 93.16803,56.0495 69.27727,43.44129 z m 110.47787,415.48258 c -58.18464,-25.72781 65.64172,-92.71477 52.38964,-13.13564 -7.18729,23.82429 -36.10987,17.06265 -52.38964,13.13564 z m 423.87432,-29.37677 c 32.4836,-26.61963 -20.5099,22.3641 0,0 z M 511.47831,775.69656 c -21.22674,-29.46039 27.74755,31.76545 0,0 z M 1247.6469,649.65421 247.6929,0 Z m -16.935,-7.58723 c -36.0495,-25.64654 18.7573,5.20088 0,0 z m -383.5783,-22.2983 c -4.41541,-11.7998 14.94225,21.27926 0,0 z m 254.6403,-28.29504 c 13.2096,-6.96512 -1.213,6.3031 0,0 z m 10.0479,-2.61361 c 16.5291,-10.24135 3.1767,7.13653 0,0 z M 646.75732,515.60854 c 8.14467,-36.74629 66.3643,-34.61926 18.85922,-4.92522 -5.58181,3.79101 -12.25401,6.7597 -18.85922,4.92522 z M 435.94751,452.13694 C 391.0729,428.47505 319.78357,428.8214 302.95858,365.40358 c 9.95149,-55.25155 59.61582,-87.78597 95.96091,-121.21268 43.0156,-35.04884 92.43869,-57.42857 136.24341,-90.94529 -22.15474,8.04243 -80.57712,69.49596 -26.66989,36.96476 58.26555,-32.79075 116.57012,-69.85648 181.61138,-81.08745 -55.35781,19.25276 105.62609,-14.23446 21.62473,-5.32465 43.63806,-11.457348 96.63877,-15.467402 142.16556,0.60114 -27.37399,-5.168054 -130.31837,-7.630488 -53.12796,-0.79197 62.27546,5.86139 129.30993,-5.967265 184.3005,37.06924 37.54348,18.80339 93.18948,88.02793 116.35198,46.63143 3.7153,63.5944 -65.6802,25.51477 -75.2786,19.80122 34.8369,37.21854 81.3854,72.40292 90.6609,129.70953 -47.1223,82.02427 -111.9399,-38.7626 -143.10959,-83.2949 -80.6109,-75.43352 -188.69999,-99.46972 -290.46434,-87.33303 -38.29347,-32.89559 53.85163,-42.49075 77.88679,-40.59706 28.94926,1.18195 53.66887,-9.31468 9.76599,-7.61408 -94.99404,-0.89448 -187.66351,36.95305 -267.96903,93.42399 27.37853,49.69681 11.63292,100.92652 -17.67472,142.22621 1.29133,27.62896 -43.27981,111.47311 -47.15175,50.16438 7.23927,-26.24005 34.78347,-89.90056 -0.96488,-36.3694 -9.66801,20.07778 -45.41124,21.26394 -33.29944,-10.33811 -46.58448,64.83575 -78.52944,-44.44715 -19.81125,-60.65861 25.86847,-48.8467 86.12576,-67.5778 123.12142,-59.43778 -43.51412,-58.6252 -100.23664,2.39869 -138.05635,36.13481 -31.75058,21.9979 -84.5914,93.52948 -32.57856,115.22474 -37.78362,-38.19895 41.7759,27.3636 60.8528,32.24139 20.53229,18.70531 117.90804,24.17107 45.73631,35.67892 l -7.13739,-4.13348 z m 36.88819,-81.46468 c 4.7349,-21.96658 48.95063,-82.60188 24.71314,-82.17697 -13.17928,10.20943 -70.90451,145.59783 -24.71314,82.17697 z m -20.39096,-50.18578 c 16.35827,-30.08086 33.36182,-38.25438 6.03719,-4.27723 -42.65627,70.15379 29.28215,-23.69369 30.33802,-47.13166 -31.99282,-7.40159 -81.55723,91.26852 -58.61208,81.44162 7.29427,-10.11894 13.70908,-21.14929 22.23687,-30.03273 z m -62.04511,22.36463 c 11.70695,-23.55878 81.4728,-66.05025 50.00673,-81.99503 -13.11917,-3.1163 -93.53115,98.95882 -50.00673,81.99503 z m 728.57697,-0.40567 c -6.9136,-6.93592 -7.0842,10.87192 0,0 z m -14.3926,-2.80689 c 25.2574,-53.17626 -57.0632,-87.69167 -78.9324,-128.90131 -33.57392,-29.14135 -73.71609,-46.29714 -107.31602,-75.26832 21.69461,9.8649 50.27928,18.46183 13.03798,0.36406 -40.95628,-26.6234 -74.64537,9.94835 -120.89618,-5.1494 -45.65204,-3.04684 -94.01935,-5.58436 -136.25699,18.10344 105.55851,-11.28745 217.7014,7.35616 305.15878,80.13328 49.11253,24.11954 65.83533,121.31974 125.20483,110.71825 z m -49.2177,-17.49157 c -10.6186,-26.62687 -38.2886,-42.7971 -8.9621,-9.19697 -2.3644,-4.21714 18.0411,28.5203 8.9621,9.19697 z M 415.73419,280.61319 c -19.14839,12.15548 -47.45126,54.88216 0,0 z m 43.88716,-4.40346 c 14.17391,-22.67526 -22.40654,26.84295 0,0 z m 17.05099,-18.81682 c -14.15554,2.91601 -4.88984,18.67379 0,0 z m 467.69882,-45.6725 c -16.65956,-21.71407 -20.12711,-3.74731 0,0 z m 111.49774,-15.09216 c -46.2454,-41.48231 -100.82984,-72.69531 -158.28547,-86.9383 54.94875,22.25802 111.69087,51.56431 158.28547,86.9383 z m -151.01608,-10.646 c -20.47818,-16.85198 -67.86616,-24.10508 -20.19373,-7.57741 -1.29398,-2.77611 26.86776,19.10914 20.19373,7.57741 z M 662.57066,436.01961 c -14.13157,-46.61208 95.10703,-56.73019 29.73116,-24.83581 -21.86903,-1.71296 22.3588,35.75633 -6.81928,20.39742 -7.99005,-2.11629 -20.92395,34.25522 -22.91188,4.43839 z m 7.50695,1.48586 c 12.92019,-21.85529 -12.80031,-10.54234 0,0 z M 856.43979,424.032 c 1.84407,-20.95475 6.95221,9.87294 0,0 z m -429.51088,-1.59945 c -7.71297,-9.82679 18.88636,11.78925 0,0 z m -15.53648,-4.71899 c -28.2325,-7.59306 -5.99331,-15.34439 2.08418,0.84412 z M 381.27222,401.1578 c -18.26662,-18.63264 30.16376,16.19053 0,0 z M 921.82467,272.32768 c -6.60116,-10.18737 21.81994,15.73322 0,0 z m -9.44136,-4.3559 c 13.2096,-6.96515 -1.21298,6.30312 0,0 z m -52.13762,-2.71491 c -7.34682,-33.28858 6.5945,-9.09299 15.55581,-3.33753 11.7809,7.0696 -15.34078,4.61575 -15.55581,3.33753 z m 39.63904,0.10136 c 16.52899,-10.24136 3.17662,7.13653 0,0 z m -59.5151,-49.31997 c -4.41541,-11.7998 14.94227,21.27929 0,0 z M 550.80195,141.77571 c 23.54235,-19.77699 -4.57434,10.15743 0,0 z m 17.04261,-9.20082 c 18.97399,-14.88681 -3.65029,9.36762 0,0 z m 11.27325,-5.17604 c 18.97398,-14.88681 -3.65027,9.36764 0,0 z m 24.80115,-11.42712 c 32.91575,-20.511459 -16.60083,6.1428 0,0 z m 32.56795,-13.35164 c 40.93194,-16.046397 -29.96597,16.40296 0,0 z m 23.37557,-8.045302 c 13.20958,-6.965128 -1.21298,6.303122 0,0 z m 9.0186,-2.588024 c 13.20959,-6.965107 -1.21298,6.303116 0,0 z m 20.29185,-5.176017 c 13.20958,-6.96513 -1.213,6.303106 0,0 z m 176.35404,-0.173222 c 3.95006,-22.61531 16.70327,-4.458211 0,0 z M 702.70083,84.222712 c 13.20959,-6.965147 -1.21297,6.303106 0,0 z m 11.27325,-2.588024 c 13.2096,-6.965142 -1.21297,6.303106 0,0 z m 168.63391,-9.661923 c 8.75201,-18.238392 2.07321,12.219988 0,0 z"
       id="path1"
       sodipodi:nodetypes="cccccccccccccccccccccsccccccccccccccccsscccccccccccccccccccccccccccccccccccccccccccccccccccccccccccccccccccccccccccccccccccccccccccccccccccccccccccccccccccccccccccccccccccccsccccccccccccccccccccccccccccscccccccccccccccccccccccccccccccccccccccccccccccccccccccccccccccccccccccccccccccccccccccc" />
    <rect
       style="fill:#000000;fill-opacity:0"
       id="rect1"
       width="479.29865"
       height="389.07492"
       x="168.76933"
       y="216.25394" />
    <rect
       style="opacity:1;fill:#6a6a6a;fill-opacity:2.99192e-07"
       id="rect2"
       width="479.29865"
       height="389.07492"
       x="168.76933"
       y="216.25394" />
    <rect
       style="opacity:1;fill:#6a6a6a;fill-opacity:2.99192e-07"
       id="rect3"
       width="479.29865"
       height="389.07492"
       x="168.76933"
       y="216.25394" />
    <rect
       style="opacity:1;fill:#6a6a6a;fill-opacity:2.99192e-07"
       id="rect4"
       width="460.30032"
       height="389.07492"
       x="168.76933"
       y="216.25394" />
    <rect
       style="opacity:1;fill:#6a6a6a;fill-opacity:2.99192e-07"
       id="rect5"
       width="359.06473"
       height="237.82454"
       x="1201.9353"
       y="811.17548" />
    <rect
       style="opacity:1;fill:#6a6a6a;fill-opacity:2.99192e-07"
       id="rect6"
       width="284.05283"
       height="162.81261"
       x="1276.9471"
       y="886.18738" />
    <rect
       style="opacity:1;fill:#6a6a6a;fill-opacity:2.99192e-07"
       id="rect7"
       width="748.0799"
       height="562.29474"
       x="71.522995"
       y="139.55707" />
    <rect
       style="opacity:1;fill:#6a6a6a;fill-opacity:2.99192e-07"
       id="rect8"
       width="292.00702"
       height="176.19073"
       x="629.06964"
       y="605.32886" />
    <rect
       style="opacity:1;fill:#6a6a6a;fill-opacity:2.99192e-07"
       id="rect9"
       width="288.88889"
       height="168.68687"
       x="0"
       y="0" />
  </g>
</svg>
