<?xml version="1.0" encoding="UTF-8" standalone="no"?>
<!-- Created with Inkscape (http://www.inkscape.org/) -->

<svg
   version="1.1"
   id="svg1"
   width="1536"
   height="1024"
   viewBox="0 0 1536 1024"
   sodipodi:docname="PLAIN_3.svg"
   inkscape:version="1.4.2 (ebf0e940d0, 2025-05-08)"
   xmlns:inkscape="http://www.inkscape.org/namespaces/inkscape"
   xmlns:sodipodi="http://sodipodi.sourceforge.net/DTD/sodipodi-0.dtd"
   xmlns="http://www.w3.org/2000/svg"
   xmlns:svg="http://www.w3.org/2000/svg">
  <defs
     id="defs1" />
  <sodipodi:namedview
     id="namedview1"
     pagecolor="#505050"
     bordercolor="#eeeeee"
     borderopacity="1"
     inkscape:showpageshadow="0"
     inkscape:pageopacity="0"
     inkscape:pagecheckerboard="0"
     inkscape:deskcolor="#505050"
     inkscape:zoom="0.57324219"
     inkscape:cx="768.43612"
     inkscape:cy="512"
     inkscape:window-width="1470"
     inkscape:window-height="795"
     inkscape:window-x="0"
     inkscape:window-y="0"
     inkscape:window-maximized="1"
     inkscape:current-layer="g1" />
  <g
     inkscape:groupmode="layer"
     inkscape:label="Image"
     id="g1">
    <rect
       style="fill:#000000;fill-opacity:0"
       id="rect1"
       width="1536"
       height="1024"
       x="0"
       y="0" />
    <path
       style="fill:#d4af37;fill-opacity:1"
       d="m 340.26548,598.38425 c -22.29923,-1.79224 -47.90851,-9.93279 -72.39007,-23.01098 -8.56227,-4.57402 -22.78125,-14.6459 -25.85993,-18.31765 -1.75601,-2.09428 -1.55453,-7.1808 0.40275,-10.168 1.804,-2.75325 8.8739,-6.81779 10.31245,-5.92872 0.49313,0.30477 1.17926,0.0968 1.52472,-0.46218 0.34546,-0.55897 1.61406,-1.01463 2.8191,-1.01257 1.93267,0.003 1.82415,0.22742 -0.92046,1.90103 -3.04592,1.85736 -7.4271,7.07328 -7.34932,8.7496 0.0474,1.02105 11.75093,10.18438 18.56014,14.5317 8.94888,5.71339 30.7356,15.71381 42.95535,19.71713 15.73814,5.15599 31.02373,8.06692 46.24849,8.8074 11.9975,0.58351 12.31722,0.54484 12.86663,-1.55611 0.30988,-1.18497 0.72682,-2.15449 0.92654,-2.15449 1.45523,0 8.40361,3.39711 8.40361,4.10858 0,1.35094 4.37884,1.06611 6.40676,-0.41674 1.24492,-0.91031 3.35595,-1.10568 6.94113,-0.64239 8.80491,1.13781 40.17273,-0.7024 51.15211,-3.00086 16.27541,-3.40714 47.5,-13.94305 47.5,-16.0276 0,-0.42404 1.37664,-1.04632 3.05921,-1.38283 2.2029,-0.44058 4.48026,0.10826 8.13602,1.96077 3.71106,1.88054 5.94416,2.4099 8.30093,1.96777 4.79013,-0.89864 31.95957,-14.8258 48.50437,-24.86353 17.51691,-10.62751 29.68797,-19.22598 38.94197,-27.51129 6.95589,-6.22777 10.42769,-8.34373 6.0575,-3.69188 -1.29175,1.375 -1.88767,2.5 -1.32428,2.5 1.27865,0 10.07018,-10.04151 14.37143,-16.41476 6.65232,-9.85687 8.47698,-22.39498 4.28514,-29.44526 l -1.56963,-2.63998 2.06847,2.5 c 4.30259,5.2002 3.98117,16.68856 -0.74453,26.61198 -3.69963,7.76878 -14.43654,19.98976 -25.5866,29.1232 -7.81618,6.40253 -39.3956,28.26482 -40.82769,28.26482 -0.28302,0 -4.48757,2.29812 -9.34344,5.10693 -19.82576,11.46792 -36.90224,18.89307 -43.45061,18.89307 -2.23832,0 -5.32196,-0.73974 -6.85253,-1.64387 -2.66895,-1.57659 -3.08458,-1.51957 -10.15429,1.39295 -17.88533,7.36827 -42.14715,12.58868 -65.87144,14.17355 -17.01024,1.13635 -64.26838,1.12504 -78.5,-0.0188 z m -63,-25.90384 c -0.33992,-0.55 -1.15398,-0.99311 -1.80902,-0.98469 -0.71561,0.009 -0.59227,0.40223 0.30902,0.98469 1.92112,1.24153 2.2673,1.24153 1.5,0 z m -17.5,-10.60765 c 0,-0.82763 -1.94173,-1.29565 -2.38691,-0.57533 -0.28881,0.46731 0.13009,0.84965 0.9309,0.84965 0.8008,0 1.45601,-0.12345 1.45601,-0.27432 z m -12,-9.89235 c -0.68469,-0.825 -1.69489,-1.5 -2.24489,-1.5 -0.55783,0 -0.44954,0.66326 0.24489,1.5 0.68469,0.825 1.69489,1.5 2.24489,1.5 0.55783,0 0.44954,-0.66326 -0.24489,-1.5 z m -3.05237,-3.5 c 0.44054,0 2.52048,-1.575 4.62209,-3.5 3.92196,-3.59237 3.95873,-4.35492 0.11454,-2.37504 -3.8182,1.9665 -6.68805,5.15579 -6.56826,7.29935 0.0943,1.68793 0.20143,1.74877 0.57333,0.32569 0.25152,-0.9625 0.81776,-1.75 1.2583,-1.75 z m 133.35569,34.85473 c -4.92842,-2.37182 -6.60347,-2.76446 -8.18426,-1.91845 -1.09317,0.58505 -3.53682,1.06372 -5.43035,1.06372 -4.67638,0 -32.20514,-5.5977 -34.41523,-6.998 -2.20026,-1.39406 -1.32192,-1.25005 14.71548,2.41273 14.59751,3.33393 22.01104,4.25105 22.01104,2.72295 0,-0.62572 -1.09708,-1.13768 -2.43795,-1.13768 -1.34087,0 -5.27837,-0.6537 -8.75,-1.45266 -3.47163,-0.79896 -7.88705,-1.71313 -9.81205,-2.03149 -7.71289,-1.27557 -29.17294,-9.09401 -40.39642,-14.71745 -12.44272,-6.23433 -30.27458,-16.92877 -37.10358,-22.25242 -2.2,-1.71504 -5.30741,-3.94567 -6.90535,-4.95696 -3.81543,-2.41467 -7.17314,-6.19889 -9.67243,-10.90105 -1.59135,-2.99398 -1.87996,-4.78696 -1.34489,-8.35505 0.60561,-4.03855 1.08331,-4.70486 4.30197,-6.00045 1.99138,-0.80158 5.03871,-2.10431 6.77183,-2.89495 1.73312,-0.79063 3.98312,-1.409 5,-1.37413 1.49296,0.0512 1.40033,0.24318 -0.48116,0.99738 -2.01075,0.80601 -2.23343,1.3797 -1.62506,4.18661 0.67746,3.12563 0.63178,3.18717 -1.16996,1.57637 -1.38868,-1.24152 -2.76329,-1.49421 -5.30018,-0.9743 -4.11679,0.84368 -5.05961,2.70425 -1.87982,3.70965 1.26778,0.40085 5.45505,3.77927 9.30505,7.5076 15.73184,15.23466 36.54886,27.69813 59.81563,35.81254 6.4986,2.26642 12.3486,4.08788 13,4.04769 0.6514,-0.0402 -1.06563,-0.89404 -3.81563,-1.89745 -2.75,-1.00341 -6.575,-2.52792 -8.5,-3.38779 l -3.5,-1.56341 6.25,-0.16414 c 6.94678,-0.18244 6.68706,-0.14002 10.46258,-1.70896 1.78608,-0.74221 3.66465,-0.81299 5.5,-0.20722 2.99079,0.98714 14.01259,2.6581 26.52046,4.02064 4.25317,0.46332 8.16232,1.10771 8.68699,1.43197 0.52467,0.32427 5.8198,0.76739 11.76696,0.98473 5.94715,0.21733 11.6243,0.71557 12.61588,1.1072 2.12114,0.83776 1.92663,4.38139 -0.30287,5.51786 -4.07423,2.07679 -13.53653,3.20148 -22.4573,2.66926 -5.24849,-0.31313 -9.5427,-0.22539 -9.5427,0.19497 0,1.33811 26.91763,1.99196 43.5,1.05666 21.90535,-1.23555 33.64442,-3.93969 55,-12.66949 10.98245,-4.48944 25.32717,-11.70883 31,-15.60164 17.92711,-12.30193 31.40061,-25.05387 42.94023,-40.64059 13.34642,-18.02719 18.45666,-28.16532 22.21376,-44.06953 l 1.29929,-5.5 -0.50744,6.08333 c -0.41842,5.01613 -0.23889,6.08334 1.02336,6.08334 1.48248,0 2.04448,-2.07045 1.66351,-6.12843 -0.10129,-1.07896 0.0681,-2.61918 0.37645,-3.4227 0.44634,-1.16314 0.86364,-1.0283 2.04725,0.66153 1.05004,1.49915 2.28792,2.01336 4.21511,1.75095 1.50066,-0.20434 4.75348,-0.6604 7.22848,-1.01347 l 4.5,-0.64194 -4,1.98275 c -2.2,1.09051 -3.41094,2.01917 -2.69098,2.06369 0.71996,0.0445 1.0309,0.53095 0.69098,1.08095 -0.33992,0.55 -0.14148,1 0.44098,1 0.58246,0 1.05902,-0.675 1.05902,-1.5 0,-0.825 0.675,-1.5 1.5,-1.5 2.82343,0 1.1657,2.87509 -3.92262,6.80319 -1.90675,1.47198 -3.15482,1.88052 -3.59065,1.17535 -0.95027,-1.53758 -5.96675,0.89071 -6.05702,2.93198 -0.0512,1.15786 -0.28722,1.04638 -0.86918,-0.41052 -0.6545,-1.6385 -1.09367,-1.01825 -2.42971,3.4315 -1.97587,6.5807 -1.9875,7.12416 -0.099,4.62737 2.127,-2.81214 1.79561,-0.60809 -0.46631,3.10147 l -1.92704,3.16034 2.79139,-0.80056 c 4.52329,-1.29726 6.89192,-2.85597 14.73674,-9.69768 7.08807,-6.18172 7.61199,-6.45117 11.32435,-5.82397 2.14084,0.36169 5.02216,1.78735 6.40295,3.16814 1.38078,1.38078 2.90703,2.26545 3.39165,1.96594 0.48463,-0.29952 0.88114,0.0489 0.88114,0.77423 0,0.78652 -0.73997,1.12531 -1.83334,0.83938 -2.34119,-0.61223 -2.34655,0.86334 -0.0121,3.32224 1.77262,1.8671 1.6255,2.19013 -5.50865,12.09492 -7.74409,10.75162 -23.90064,26.87746 -32.94017,32.87756 -2.869,1.90433 -8.06398,5.88059 -11.54441,8.83612 -8.76964,7.44708 -39.4206,28.76296 -46.86023,32.58846 -2.91481,1.4988 15.82345,-16.45492 25.8013,-24.72106 15.89697,-13.16982 24.23716,-20.49556 38.83136,-34.10815 8.46976,-7.90006 15.39955,-14.66417 15.39955,-15.03135 0,-0.36719 2.28318,-3.06139 5.07373,-5.98712 4.28485,-4.4924 8.92627,-11.04819 8.92627,-12.60794 0,-0.64153 -6.42077,-0.10422 -7,0.58579 -0.275,0.32759 -1.80736,1.22759 -3.40525,2 -1.59789,0.7724 -6.48023,6.07114 -10.84964,11.77497 -4.36942,5.70383 -7.33705,10.06051 -6.59475,9.68151 0.7423,-0.379 -0.042,0.57923 -1.74293,2.1294 -1.70091,1.55017 -4.5721,4.39349 -6.38042,6.31849 -1.80832,1.925 -2.69112,2.6 -1.96179,1.5 0.72933,-1.1 -1.2162,0.4391 -4.32339,3.42023 -3.1072,2.98112 -5.41179,5.80477 -5.12131,6.27477 0.29048,0.47001 0.11231,0.7309 -0.39593,0.57978 -0.50824,-0.15113 -4.70419,3.14578 -9.32433,7.32647 -4.62014,4.18069 -10.89729,9.62468 -13.94922,12.09776 -3.05193,2.47308 -11.82693,9.76997 -19.5,16.21531 -7.67307,6.44535 -15.41354,12.34089 -17.20104,13.10122 -3.30932,1.40764 -4.74724,4.27298 -1.52353,3.03593 2.78764,-1.06972 -2.0082,3.61689 -5.91668,5.78193 l -3.30979,1.8334 2.5,-2.17649 c 2.77056,-2.41203 3.397,-2.54744 -8,1.72919 -10.1437,3.80633 -36.27648,9.99862 -49.45846,11.71942 -6.78998,0.88638 -18.67557,1.52583 -27.5,1.47953 -15.11644,-0.0793 -15.71104,-0.16312 -21.73822,-3.06372 z m 50.29878,-0.30013 c 25.30096,-2.69269 47.60653,-9.67211 56.3065,-17.6183 1.78547,-1.63078 4.53292,-3.63038 6.10544,-4.44356 1.57253,-0.81319 3.15773,-1.96166 3.52268,-2.55216 1.55757,-2.5202 -0.91082,-1.91604 -7.94523,1.94467 -12.10257,6.64228 -35.73653,14.58246 -52.59149,17.6689 -4.125,0.75536 -17.70907,1.92865 -30.18683,2.60732 -12.47776,0.67866 -22.44421,1.6265 -22.14767,2.10631 1.354,2.19082 5.7893,2.72621 18.8345,2.2735 7.7,-0.26722 20.34594,-1.16122 28.1021,-1.98668 z m -83.6021,-20.5546 c -0.825,-0.53316 -2.4,-0.93141 -3.5,-0.88501 -1.64764,0.0695 -1.55955,0.22543 0.5,0.88501 3.53568,1.13232 4.75214,1.13232 3,0 z m 212.4056,-62.41857 c 1.97692,-2.15521 3.5944,-4.76927 3.5944,-5.80902 0,-1.03974 0.39884,-1.64395 0.88631,-1.34267 0.8437,0.52143 2.4269,-3.44986 1.67506,-4.2017 -0.19762,-0.19762 -2.09227,1.53288 -4.21034,3.84556 -2.11807,2.31268 -4.31546,4.70471 -4.8831,5.31563 -2.7477,2.9572 -15.46482,20.42594 -15.44278,21.21281 0.022,0.78695 3.75265,-3.07359 18.38045,-19.02061 z m 28.4243,-0.0849 c -0.30744,-0.30744 -1.34919,0.69256 -2.315,2.22222 l -1.75601,2.78121 2.315,-2.22222 c 1.27325,-1.22222 2.06346,-2.47377 1.75601,-2.78121 z m -12.0184,-39.24653 c 0.59645,-1.7875 0.68819,-3.25 0.20387,-3.25 -0.81279,0 -1.2625,1.0798 -2.70711,6.5 -0.85515,3.20853 1.26791,0.45212 2.50324,-3.25 z m 6.6885,0.75 c 0.33992,-0.55 0.16803,-1 -0.38197,-1 -0.55,0 -1.27811,0.45 -1.61803,1 -0.33992,0.55 -0.16803,1 0.38197,1 0.55,0 1.27811,-0.45 1.61803,-1 z M 452.57798,581.7973 c 0.72187,-0.28887 1.58438,-0.25335 1.91667,0.0789 0.33229,0.33229 -0.25834,0.56864 -1.3125,0.52522 -1.16495,-0.048 -1.4019,-0.28494 -0.60417,-0.60416 z m -136.3125,-10.69152 c -7.17605,-2.18256 -21.10742,-7.92998 -30,-12.37657 -11.26824,-5.63452 -24.92951,-16.15263 -23.21126,-17.87087 0.70108,-0.70108 11.45982,7.52444 12.13163,9.27515 0.31201,0.81308 1.0862,1.15188 1.72708,0.75579 0.69462,-0.4293 0.89262,-0.28272 0.49254,0.36463 -0.60996,0.98692 1.6583,2.21876 5.24071,2.84611 0.75938,0.13298 1.86188,0.72297 2.45,1.31109 0.58811,0.58811 1.8793,1.0693 2.8693,1.0693 0.99,0 1.8,0.44085 1.8,0.97968 0,1.15454 6.63203,4.80108 13,7.14789 16.21086,5.97424 21.44756,7.98666 21.86247,8.40157 0.74273,0.74273 -0.86274,0.37723 -8.36247,-1.90377 z M 505.2782,568.501 c -0.39214,-0.63451 -0.55543,-1.26502 -0.36286,-1.40114 0.8971,-0.63408 10.67626,-6.64505 18.90354,-11.61945 14.00778,-8.46942 29.60422,-18.8652 38.63756,-25.75379 8.12919,-6.1991 10.10925,-7.35 8.68749,-5.04954 -1.99141,3.22217 17.97777,-12.70095 25.58679,-20.40252 5.28969,-5.35403 11.34289,-13.56466 14.43282,-19.57685 0.92791,-1.80548 2.11795,-3.01642 2.64453,-2.69098 0.52657,0.32544 0.97109,0.003 0.98782,-0.7173 0.0184,-0.79036 0.44274,-0.6005 1.07106,0.47918 2.66155,4.57341 -3.5469,17.04953 -13.89372,27.92001 -10.06769,10.57721 -19.23764,17.74833 -37.64344,29.43805 -8.28537,5.26213 -16.25314,10.3969 -17.70615,11.4106 -3.80926,2.65753 -27.55272,14.54985 -32.85816,16.45757 -7.33835,2.63871 -7.74295,2.71051 -8.48728,1.50616 z M 368.76548,554.43579 c -21.07509,-2.52533 -48.49228,-13.00344 -67.75,-25.89222 -5.0875,-3.40496 -9.25,-6.59249 -9.25,-7.0834 0,-0.49091 3.4875,1.61293 7.75,4.6752 14.15019,10.16581 40.69512,21.43236 56.25,23.87437 2.475,0.38856 5.4,0.92142 6.5,1.18413 4.74462,1.13315 42.06202,1.47415 48.82015,0.44612 3.94892,-0.60071 9.87985,-1.34804 13.17985,-1.66074 14.40645,-1.36515 36.01612,-9.28408 48.2584,-17.68446 2.34213,-1.60712 4.67353,-2.66547 5.18091,-2.35189 0.50737,0.31357 1.24812,0.0433 1.6461,-0.60069 0.39798,-0.64395 0.31658,-0.91895 -0.1809,-0.6111 -0.49748,0.30784 4.95882,-5.36013 12.12511,-12.5955 18.2049,-18.38035 28.19719,-33.50552 34.03714,-51.52144 2.76605,-8.53313 7.17456,-14.28531 12.43324,-16.22276 2.475,-0.91187 5.4,-1.98776 6.5,-2.39087 1.1,-0.4031 0.65,0.14257 -1,1.21262 -2.12276,1.37665 -3.41096,3.38154 -4.40541,6.8564 -3.35,11.70578 -9.35133,25.0308 -15.49962,34.4145 -3.60679,5.50481 -6.90367,9.93451 -7.32639,9.84379 -1.54183,-0.33091 -4.2407,1.38865 -3.65836,2.3309 0.3293,0.53282 -4.73579,6.25899 -11.25575,12.72482 -12.35313,12.25057 -26.60138,22.66261 -37.77395,27.60365 -8.23352,3.64125 -32.47239,10.14698 -42.58052,11.42863 -4.675,0.59277 -9.625,1.34781 -11,1.67788 -4.33148,1.03978 -33.16933,1.28037 -41,0.34206 z M 491.5649,520.22407 c 7.21189,-6.34656 13.40642,-13.26091 18.52486,-20.67751 1.55335,-2.25081 3.19042,-3.86608 3.63793,-3.58951 1.03799,0.64152 8.30826,-8.16523 7.85737,-9.51791 -0.18569,-0.55706 -1.57106,0.88941 -3.0786,3.21438 -1.81455,2.79846 -2.74098,3.60087 -2.74098,2.37405 0,-1.71367 -0.13716,-1.69504 -1.82192,0.24751 -1.00206,1.15538 -3.11679,4.14924 -4.69941,6.65301 -1.58262,2.50378 -3.19943,4.55232 -3.59291,4.55232 -0.39348,0 -2.37195,2.25664 -4.39659,5.01476 -2.02465,2.75811 -7.02735,7.93311 -11.11712,11.5 -4.08977,3.56688 -7.04131,6.48524 -6.55898,6.48524 0.48234,0 4.07619,-2.81535 7.98635,-6.25634 z m 29.91345,-39.36413 c -0.47528,-0.47527 -4.71287,6.18725 -4.71287,7.40976 0,0.37124 1.165,-1.03948 2.5889,-3.13493 1.42389,-2.09544 2.37968,-4.01912 2.12397,-4.27483 z m 12.84257,-26.99663 c 1.68322,0.64591 2.89894,-0.98404 1.41707,-1.89989 -1.43279,-0.88552 -4.00036,1.37109 -3.85651,3.38943 0.0928,1.30177 0.21038,1.26256 0.58747,-0.19587 0.2713,-1.04927 1.05757,-1.59851 1.85197,-1.29367 z m -67.88877,96.95043 c -1.33894,-1.33893 -0.57592,-2.19885 3.85382,-4.34325 5.44679,-2.63675 9.10138,-2.03902 5.34697,0.87451 -4.67017,3.62419 -7.84748,4.82206 -9.20079,3.46874 z m -89.20439,-7.79246 c -16.60259,-3.0164 -27.61819,-9.83139 -34.54092,-21.36936 -4.37662,-7.29443 -5.64,-14.13841 -3.97021,-21.50737 2.19382,-9.68151 7.18926,-16.14071 15.02038,-19.42166 l 3.47154,-1.45444 -2.97154,-1.55253 c -14.68364,-7.67168 -25.18906,-22.29366 -26.24318,-36.52657 -0.94189,-12.71752 3.27205,-22.5023 14.08499,-32.7054 l 4.18666,-3.95054 -2.87388,-2.33115 c -2.77903,-2.2542 -2.85678,-2.56041 -2.35569,-9.2765 0.28501,-3.81994 0.82608,-7.89222 1.20238,-9.0495 0.65036,-2.00016 0.27179,-2.12987 -7.66073,-2.62476 -13.01511,-0.81199 -26.62351,-6.98944 -31.75181,-14.41354 -6.43819,-9.32041 -8.55686,-23.07169 -5.23809,-33.99801 3.65852,-12.04489 10.42249,-19.63951 22.06778,-24.77783 5.63753,-2.48748 8.11032,-2.90912 21,-3.58075 15.22993,-0.79356 18.21812,-1.50274 28.76465,-6.82661 3.32691,-1.67942 10.26274,-4.26576 15.41295,-5.74744 8.27434,-2.38046 10.47351,-2.6261 18.89823,-2.11083 8.64283,0.52861 17.7862,2.26527 16.85087,3.2006 -0.20399,0.20398 -2.15869,-0.0292 -4.34377,-0.51807 -2.18509,-0.48893 -8.47289,-1.10858 -13.97289,-1.37701 -9.09364,-0.44381 -10.78713,-0.2259 -18.68458,2.4042 -4.77652,1.59073 -12.65152,4.79611 -17.5,7.12307 -8.48947,4.0744 -9.2776,4.25484 -21.31542,4.88028 -10.24095,0.53208 -11.23493,0.70477 -5.5,0.95552 3.85,0.16834 8.575,0.21988 10.5,0.11454 2.67156,-0.14619 3.14496,0.0525 2,0.83932 -0.825,0.56696 -2.21836,1.03774 -3.09636,1.04616 -0.878,0.008 -3.04118,0.73608 -4.80707,1.61702 -1.76588,0.88094 -4.116,1.36497 -5.22248,1.07561 -1.316,-0.34414 -3.09635,0.44296 -5.14766,2.27581 l -3.13587,2.8019 4.19948,0.7095 c 4.52526,0.76454 5.11343,1.27278 5.78986,5.00305 0.42772,2.35876 -2.68204,6.53242 -4.86725,6.53242 -0.50063,0 -2.19294,1.2375 -3.7607,2.75 -4.71387,4.54772 -6.89577,6.25 -8.01097,6.25 -0.58246,0 -0.83156,0.36803 -0.55356,0.81785 0.278,0.44981 -0.37044,1.44915 -1.44098,2.22075 -2.59796,1.87251 -2.58339,4.29834 0.0208,3.47178 1.08201,-0.34342 4.27424,-0.64226 7.09384,-0.6641 2.8196,-0.0218 6.54681,-0.46752 8.2827,-0.9904 4.72935,-1.42456 30.03402,-3.98333 39.15617,-3.9594 7.33409,0.0192 23.66405,2.85081 26.48092,4.59173 2.00477,1.23901 12.25621,3.35129 14.32817,2.95226 1.07884,-0.20776 1.68804,-0.10427 1.35378,0.22999 -0.33425,0.33426 1.17986,1.49217 3.3647,2.57314 2.18484,1.08097 3.97243,2.38288 3.97243,2.89313 0,1.16974 -4.11619,2.74638 -5.64885,2.1637 -0.63187,-0.24023 -1.43255,0.0223 -1.77929,0.5833 -0.57754,0.93448 -7.08395,-1.17786 -11.64167,-3.77953 -2.97973,-1.70091 -10.72744,-0.69895 -12.93734,1.6731 -2.16862,2.32774 -3.54002,2.82286 -11.50652,4.15417 -4.59426,0.76777 -4.27345,0.84254 4.08001,0.95091 13.05087,0.16931 28.53974,3.39894 36.18088,7.54419 3.55542,1.92878 3.02352,1.9086 -11.24722,-0.42657 -12.56349,-2.05581 -28.19989,-2.5218 -35,-1.04307 -7.59422,1.65143 -20.32236,6.6702 -23.96757,9.45054 -2.01116,1.53398 -4.0787,3.89914 -4.59454,5.2559 -1.11555,2.93412 -1.26197,12.41204 -0.18789,12.16212 0.4125,-0.096 1.93058,0.40031 3.37351,1.10288 1.9475,0.94825 3.14912,0.99609 4.6634,0.18567 4.21537,-2.25599 20.08746,-5.31666 30.27801,-5.8386 13.45883,-0.68934 27.33908,0.94988 38.58891,4.55726 4.86539,1.56014 9.85867,2.8146 11.09617,2.78768 2.04338,-0.0445 2.25,-0.53435 2.25,-5.33467 0,-2.90714 0.45393,-5.28571 1.00874,-5.28571 0.6175,0 0.82091,2.23009 0.52446,5.75 -0.34564,4.104 -0.0186,3.12414 1.14262,-3.42295 1.82866,-10.31062 1.80576,-10.28933 11.09387,-10.3134 7.43663,-0.0193 23.19908,-5.4391 28.15453,-9.68078 13.11729,-11.22791 10.12224,-30.15452 -6.50342,-41.09709 -1.0998,-0.72386 -0.63853,-0.65989 1.0792,0.14966 1.65,0.77764 4.91394,3.34929 7.2532,5.71479 19.6248,19.84498 0.93023,51.20768 -32.98744,55.34096 -3.15383,0.38433 -5.97138,1.08249 -6.26121,1.55146 -0.28984,0.46896 -0.97718,3.22655 -1.52742,6.12797 -0.55025,2.90141 -1.85621,6.19871 -2.90214,7.32734 -2.64126,2.85008 -2.73428,4.4433 -0.52853,9.05204 2.84407,5.94246 2.71779,20.51052 -0.22537,26 -2.3823,4.44338 -7.93864,10.48258 -9.68975,10.5318 -0.62224,0.0175 -1.98545,0.67831 -3.02936,1.46848 -1.81857,1.37654 -1.78138,1.48101 0.88869,2.49617 1.53269,0.58273 2.54794,1.29828 2.2561,1.59011 -0.29183,0.29183 -2.05528,-0.10645 -3.91879,-0.88507 -1.8635,-0.77863 -8.54964,-1.73052 -14.85808,-2.11533 -14.52299,-0.88588 -21.67397,-1.51204 -25.4699,-2.2302 -3.3173,-0.6276 -13.8947,-6.29459 -13.14609,-7.0432 0.25991,-0.25991 1.61313,0.27476 3.00716,1.18816 1.39402,0.91341 3.12057,1.7585 3.83676,1.878 0.71619,0.1195 2.25831,0.74379 3.42693,1.38733 1.16861,0.64353 3.86861,1.39207 6,1.66342 6.2814,0.79969 22.98774,1.51724 21.5985,0.92767 -0.7022,-0.29801 -2.11853,-2.18782 -3.14738,-4.19959 -5.96365,-11.66095 -17.96426,-18.84021 -30.03338,-17.9672 -4.33958,0.31389 -6.69592,1.01842 -8.09907,2.42157 -1.97185,1.97185 -1.97041,1.99562 0.40283,6.68339 2.84046,5.61062 2.14191,6.14096 -1.34626,1.02208 -1.99727,-2.93099 -2.52207,-4.9908 -2.60977,-10.24317 -0.0604,-3.61593 0.0869,-7.10195 0.32718,-7.74672 0.66305,-1.77898 7.46364,-4.1825 15.25404,-5.39122 6.51629,-1.01104 7.49525,-0.9032 14.75397,1.62526 4.27602,1.48948 9.34958,3.61058 11.27458,4.71355 5.63249,3.22728 10.67571,9.29524 11.37856,13.6906 0.68965,4.31289 1.13011,4.56484 9.74474,5.57409 5.51775,0.64644 5.67156,0.59553 8.19462,-2.71237 6.49012,-8.50898 5.10171,-20.5854 -3.49194,-30.37303 -3.75472,-4.27638 -8.37259,-6.76409 -16.43334,-8.85284 -12.12835,-3.14277 -19.72527,-3.68769 -30.47153,-2.1857 -11.01574,1.53967 -14.91981,3.01926 -5.36987,2.03512 4.34506,-0.44776 5.54438,-0.32575 4.44876,0.45259 -0.825,0.5861 -2.97219,1.07252 -4.77153,1.08094 -3.65282,0.0171 -19.48418,5.87772 -25.87957,9.58039 -9.34013,5.40754 -15.36458,15.76437 -15.33703,26.36642 0.0152,5.85783 2.20396,14.06362 4.92599,18.46795 3.75003,6.06768 13.61214,14.27821 21.80784,18.15576 18.14827,8.58629 17.45337,8.39451 21.11773,5.82789 1.49263,-1.04547 3.45138,-1.43142 5.54252,-1.09208 4.34873,0.70571 25.67293,9.93373 32.91572,14.24424 3.20192,1.90561 6.04444,3.46474 6.31672,3.46474 0.27228,0 2.06079,1.19424 3.97446,2.65387 4.57786,3.49171 2.99751,5.21312 -2.21909,2.41718 -2.12528,-1.13908 -4.99581,-2.08991 -6.37895,-2.11297 -2.59013,-0.0432 -10.54829,-3.84116 -8.20579,-3.91616 2.60299,-0.0833 0.0337,-1.98063 -3.5941,-2.65405 -2.04321,-0.37928 -4.61492,-1.2555 -5.71492,-1.94716 -2.13573,-1.3429 -13.37744,-3.89661 -14.0764,-3.19765 -0.53451,0.53452 6.82419,3.85039 17.20812,7.75408 7.14806,2.68721 22.36828,11.98923 22.36828,13.67064 0,0.33863 -1.3459,1.90191 -2.9909,3.47396 -5.23972,5.00736 -12.9761,3.9182 -34.43105,-4.84736 -6.09293,-2.4893 -12.20305,-5.10359 -13.57805,-5.80953 -4.24684,-2.18036 -8.00193,-6.27848 -7.95996,-8.6871 0.0384,-2.20461 0.10051,-2.18628 1.53193,0.45225 0.82055,1.5125 1.64013,2.75 1.8213,2.75 0.71953,0 -0.69204,-5.06662 -1.56123,-5.60381 -0.54657,-0.33779 -0.46056,-1.13887 0.20888,-1.9455 0.90035,-1.08486 0.44056,-1.79648 -2.20144,-3.40723 -5.70529,-3.47835 -9.00622,-2.76966 -15.1815,3.25934 -4.08847,3.99162 -5.85848,6.65748 -7.15849,10.78159 -1.61885,5.13557 -1.62339,5.884 -0.0725,11.9472 2.00284,7.82993 5.36608,12.92037 11.47966,17.37504 14.49652,10.56294 31.19628,13.76053 53.20595,10.18764 15.71152,-2.55049 27.99609,-10.97119 34.09587,-23.37169 3.09051,-6.28283 3.29149,-7.33493 3.29149,-17.23067 0,-9.84998 -0.20983,-10.96283 -3.20834,-17.01559 -1.76458,-3.56198 -5.30569,-8.86021 -7.86913,-11.77386 -2.56343,-2.91364 -4.43643,-5.52189 -4.16221,-5.79611 0.27421,-0.27422 2.01198,1.43467 3.86169,3.79754 1.84971,2.36286 3.68966,4.44134 4.08878,4.61885 0.39912,0.17751 2.08005,2.68995 3.7354,5.58321 4.51593,7.89302 6.34675,16.35074 5.87487,27.13978 -0.34954,7.99199 -0.83289,9.99536 -3.86032,15.99993 -6.99851,13.88083 -21.01404,23.97046 -38.23347,27.52391 -10.67103,2.20209 -25.66589,2.39697 -36.26499,0.4713 z m -26.46228,-18.54087 c -0.5887,-1.1 -1.57428,-2 -2.19017,-2 -0.61589,0 -0.30532,0.9 0.69017,2 0.99549,1.1 1.98106,2 2.19017,2 0.20911,0 -0.10147,-0.9 -0.69017,-2 z m -2.5259,-6.25 c -0.37664,-1.7875 -1.0874,-3.6775 -1.57945,-4.2 -0.49206,-0.5225 -0.86302,-1.6475 -0.82436,-2.5 0.0493,-1.08781 0.31679,-0.95362 0.89696,0.45 0.53762,1.30067 0.84726,-0.82135 0.88553,-6.06869 0.0324,-4.43778 0.52874,-9.30458 1.10304,-10.8151 1.48115,-3.89572 1.32615,-4.17351 -1.12771,-2.0212 -1.19455,1.04775 -1.84299,1.34249 -1.44099,0.65499 0.402,-0.6875 0.26722,-1.25 -0.29951,-1.25 -0.56673,0 -1.42834,1.4625 -1.91467,3.25 -0.48633,1.7875 -1.38001,3.1439 -1.98594,3.01422 -1.74904,-0.37433 -2.45916,6.01134 -1.19187,10.71768 2.25697,8.38176 9.08406,16.38561 7.47897,8.7681 z m -5.75364,-14.08179 c -1.11427,-2.83307 -0.93262,-4.28037 0.37332,-2.97443 0.60158,0.60158 0.92578,1.92908 0.72046,2.95 -0.36008,1.79033 -0.3989,1.79119 -1.09378,0.0244 z m 70.95932,-1.35682 c -6.47528,-3.15784 -11.90515,-6.44612 -12.20515,-7.39133 -0.60197,-1.89664 -6.13353,-3.14321 -8.4292,-1.89957 -1.01547,0.55011 1.85239,2.40176 9.5,6.13375 6.02501,2.94017 11.17957,5.57661 11.45457,5.85875 0.95535,0.98017 6.51413,2.77487 8.92225,2.88063 1.33224,0.0585 -2.82687,-2.45349 -9.24247,-5.58223 z m -16.67978,-7.31139 c -0.825,-0.53316 -1.05,-0.96937 -0.5,-0.96937 0.55,0 1.675,0.43621 2.5,0.96937 0.825,0.53316 1.05,0.96937 0.5,0.96937 -0.55,0 -1.675,-0.43621 -2.5,-0.96937 z m 32,8.94098 c 0,-0.51754 -0.61528,-0.94098 -1.36729,-0.94098 -0.75201,0 -6.93951,-2.8125 -13.75,-6.25 -14.30088,-7.21817 -19.88271,-9.82504 -19.88271,-9.28579 0,0.41054 10.98325,7.69781 17.42321,11.5601 4.65979,2.79467 15.76085,6.95927 16.82679,6.31263 0.4125,-0.25023 0.75,-0.87842 0.75,-1.39596 z m -86.03063,-11.44098 c 0,-0.55 -0.43621,-0.325 -0.96937,0.5 -0.53316,0.825 -0.96937,1.95 -0.96937,2.5 0,0.55 0.43621,0.325 0.96937,-0.5 0.53316,-0.825 0.96937,-1.95 0.96937,-2.5 z m 10.11242,-8.5 c 0.50501,0 0.91821,-0.45 0.91821,-1 0,-1.44794 -1.33595,-1.22961 -3.55887,0.58164 -1.77628,1.44731 -1.78556,1.53223 -0.10934,1 1.00748,-0.3199 2.24498,-0.58164 2.75,-0.58164 z m -18.50416,-32.84987 c -0.86341,-1.66966 -1.68409,-4.59262 -1.82373,-6.49548 -0.13965,-1.90286 -0.65703,-3.21148 -1.14974,-2.90805 -0.49272,0.30344 -0.62673,-0.52791 -0.29782,-1.84745 0.32891,-1.31953 0.87579,-4.42415 1.21529,-6.89915 0.33949,-2.475 1.76891,-7.3296 3.17648,-10.788 3.04453,-7.48037 2.48928,-9.10949 -1.03628,-3.04051 -4.75963,8.19336 -5.61847,22.79846 -1.83663,31.23305 1.20948,2.69749 2.45178,4.65181 2.76067,4.34293 0.30888,-0.30889 -0.14482,-1.92769 -1.00824,-3.59734 z m 79.08465,-24.40013 c -0.27741,-0.6875 -0.50439,-0.125 -0.50439,1.25 0,1.375 0.22698,1.9375 0.50439,1.25 0.27741,-0.6875 0.27741,-1.8125 0,-2.5 z m -44.66228,-12.25 c 1.375,-0.78602 2.05,-1.42913 1.5,-1.42913 -0.55,0 -2.125,0.64311 -3.5,1.42913 -1.375,0.78602 -2.05,1.42913 -1.5,1.42913 0.55,0 2.125,-0.64311 3.5,-1.42913 z m 1,-19.5 c 0.825,-0.53316 1.05,-0.96937 0.5,-0.96937 -0.55,0 -1.675,0.43621 -2.5,0.96937 -0.825,0.53316 -1.05,0.96937 -0.5,0.96937 0.55,0 1.675,-0.43621 2.5,-0.96937 z m -32,-24.0823 c -4.3085,-0.54929 -9.01608,-2.10802 -13.96272,-4.62319 -6.62265,-3.36737 -7.85716,-4.46161 -10.9667,-9.72071 -3.328,-5.62856 -3.7994,-7.42359 -5.66556,-21.5738 -1.4094,-10.68671 8.79007,-24.42411 20.6663,-27.83492 l 3.42868,-0.9847 -3.10954,-0.0902 c -7.44157,-0.21584 -21.48673,10.30752 -25.09547,18.80281 -3.75851,8.84786 -0.80501,24.67429 6.09987,32.68635 6.59611,7.65377 20.90982,14.43436 30.10514,14.2612 4.96838,-0.0936 4.95889,-0.0994 -1.5,-0.92285 z m 49,160.54104 c -7.59549,-1.63933 -11,-3.01268 -11,-4.4373 0,-0.56179 1.10389,-1.02144 2.45308,-1.02144 1.8633,0 2.86518,-0.9016 4.16708,-3.75 0.9427,-2.0625 3.88314,-5.92218 6.53431,-8.57707 l 4.82032,-4.82707 2.8236,2.01058 c 1.55298,1.10582 3.98918,2.30312 5.41378,2.66068 3.25321,0.8165 6.76383,4.0241 6.86434,6.27184 0.0864,1.93095 0.54292,4.5586 1.35274,7.78518 0.43114,1.7178 -0.0424,2.41685 -2.18957,3.23261 -4.78934,1.81952 -14.45542,2.11624 -21.23968,0.65199 z m 188,-11.35108 c 1.925,-1.67962 3.8926,-3.06596 4.37244,-3.08076 1.50316,-0.0463 -1.07328,2.39309 -4.54556,4.30386 l -3.32688,1.83076 z m -289,-4.60766 c -2.42903,-2.475 -4.19142,-4.5 -3.91642,-4.5 0.275,0 2.48739,2.025 4.91642,4.5 2.42903,2.475 4.19142,4.5 3.91642,4.5 -0.275,0 -2.48739,-2.025 -4.91642,-4.5 z M 1159.41,481.05206 c -3.0713,-0.83245 -6.1736,-2.63406 -8.4422,-4.90273 -3.4065,-3.40643 -3.5017,-3.68063 -1.8945,-5.45653 0.9307,-1.02843 1.6922,-2.39694 1.6922,-3.04113 0,-1.82652 2.4765,-1.39331 7.596,1.32874 5.2428,2.7876 12.7421,3.31838 15.654,1.10795 0.9625,-0.73064 1.75,-1.5604 1.75,-1.84392 0,-0.28352 -3.563,-0.46279 -7.9178,-0.39838 -7.4446,0.11011 -8.1466,-0.068 -11.7446,-2.98013 -3.1003,-2.50931 -3.9811,-4.01775 -4.6397,-7.94643 -1.2745,-7.60172 2.29,-15.1671 8.8021,-18.68209 1.1672,-0.62999 0.449,0.64282 -1.7246,3.05652 -6.2854,6.97964 -6.2558,11.70609 0.113,18.07493 2.3763,2.37629 5.1957,4.09235 7.4043,4.50667 3.6629,0.68718 12.3161,-0.9532 13.2833,-2.51812 0.8826,-1.42801 2.424,-1.00027 2.424,0.67266 0,3.0782 -2.9826,7.21418 -6.3571,8.8155 -5.1202,2.42971 -11.511,2.07828 -17.1984,-0.94575 -4.5861,-2.43844 -4.9248,-2.483 -6.149,-0.80887 -1.9438,2.65839 -1.7263,2.95786 3.9108,5.38286 4.3262,1.86107 6.5003,2.16478 12.8606,1.79658 13.0919,-0.75787 16.6206,-4.19685 19.5288,-19.03221 1.5914,-8.11774 1.5973,-9.04636 0.083,-13 -1.2944,-3.38067 -1.3289,-3.86148 -0.1675,-2.33404 2.3237,3.05588 2.7808,7.89932 1.4878,15.7675 -2.6086,15.87487 -8.321,22.42664 -21.0161,24.10409 -2.5511,0.33709 -6.5761,0.0252 -9.3389,-0.72367 z m -545.64452,-11.722 c -1.925,-1.688 -2.59497,-2.61139 -1.48881,-2.05199 1.82652,0.9237 6.35598,5.25826 5.3938,5.1617 -0.22275,-0.0223 -1.97999,-1.42172 -3.90499,-3.10971 z m 108.20817,-0.721 c -0.70806,-0.4376 -2.66467,-6.38307 -4.34801,-13.21215 -1.68334,-6.82907 -3.35302,-12.6415 -3.71039,-12.9165 -1.55211,-1.19436 -0.16855,-7 1.66819,-7 0.76011,0 3.67384,8.05302 7.29631,20.16568 2.08793,6.98152 2.55639,7.71845 5.24886,8.25695 1.62597,0.32519 3.02937,0.47563 3.11857,0.33431 2.9314,-4.64152 9.9038,-17.45225 11.3733,-20.89677 2.5067,-5.87577 4.5882,-7.36776 2.6619,-1.90805 -1.6171,4.58327 -13.2184,25.74539 -14.5729,26.58248 -1.62874,1.00662 -7.42998,1.40112 -8.73583,0.59405 z m 30.10443,-0.23121 c -1.7531,-0.5072 -4.6015,-2.60411 -6.3299,-4.65981 -2.9297,-3.48456 -3.1105,-4.14388 -2.6691,-9.73763 0.5013,-6.35493 2.1668,-10.43562 5.5429,-13.58093 2.8572,-2.66185 3.942,-2.41302 1.4428,0.33093 -6.3263,6.94563 -5.4687,16.85585 1.8317,21.16831 4.7364,2.79785 14.4947,3.18738 19.119,0.76317 4.2829,-2.24526 5.175,-0.78628 1.5,2.45336 -4.7989,4.23042 -12.721,5.49511 -20.4374,3.2626 z m 28.2976,0.2692 c -1.7418,-0.33839 -1.8379,-1.04452 -1.2268,-9.01689 0.9452,-12.33218 2.699,-20.91438 4.6313,-22.66307 1.5426,-1.396 1.5316,-0.47624 -0.1451,12.19646 -0.9974,7.53848 -1.7136,13.77906 -1.5915,13.86795 0.122,0.0889 1.5898,0.4211 3.2617,0.73823 l 3.0398,0.57659 1.2534,-8.18295 c 1.4228,-9.28852 3.1824,-12.38138 8.5653,-15.05532 3.02,-1.50023 4.2523,-1.65222 6.2002,-0.76473 4.0177,1.83063 4.8095,4.96738 3.6152,14.32257 -1.13,8.85146 -0.812,9.76867 3.397,9.79921 1.8023,0.0131 2.2029,-0.75171 2.7413,-5.23469 1.2972,-10.79981 0.8037,-17.27615 -1.552,-20.36514 l -2.2,-2.88486 2.2042,1.9088 c 3.538,3.06379 4.3994,8.24507 3.1248,18.79489 -0.6177,5.11297 -1.5845,9.85881 -2.1485,10.54631 -0.564,0.6875 -2.7617,1.25 -4.8839,1.25 -4.8495,0 -5.5055,-1.95431 -4.205,-12.52852 1.0053,-8.17429 0.9028,-8.59539 -2.5323,-10.40552 -3.1282,-1.64841 -7.4638,0.13014 -9.1454,3.75163 -0.685,1.47532 -1.4775,5.60741 -1.761,9.18241 -0.2836,3.575 -0.8953,7.23696 -1.3593,8.13768 -0.8467,1.64342 -5.7508,2.71525 -9.2834,2.02896 z m 44.1398,-0.24675 c -3.0371,-1.76893 -5.0009,-6.77686 -4.2319,-10.79137 1.5572,-8.12841 1.3625,-12.03165 -0.6319,-12.66465 -2.0649,-0.65536 -2.5648,-4.86635 -0.8862,-7.46387 0.819,-1.26726 0.9718,-1.21499 0.9847,0.33686 0.01,1.07981 1.1545,2.26686 2.7793,2.88017 l 2.764,1.0433 -0.8965,9.45163 c -1.0444,11.01125 -0.6586,11.78292 6.5653,13.13248 5.035,0.94066 6.0927,0.62007 7.1191,-2.15782 0.3685,-0.99736 1.1231,-1.5333 1.677,-1.19099 0.5539,0.34232 1.0071,-0.0792 1.0071,-0.93661 0,-0.85746 0.6329,-1.55902 1.4064,-1.55902 0.8752,0 1.2239,0.69758 0.9234,1.84695 -1.1426,4.36922 13.0789,6.07698 20.4717,2.45832 4.8756,-2.3865 6.3002,-6.26609 3.9057,-10.63655 l -1.7361,-3.16872 2.0145,2.36078 c 1.1079,1.29844 2.0144,3.74559 2.0144,5.43812 0,3.70778 -3.5326,9.16713 -6.935,10.71734 -7.1887,3.2754 -20.6617,1.78689 -21.2605,-2.3489 -0.2849,-1.96822 -0.5154,-1.89666 -3.589,1.1147 -2.6668,2.61278 -4.0772,3.21224 -7.5,3.18755 -2.3185,-0.0167 -5.003,-0.48909 -5.9655,-1.0497 z m 65.116,-1.0072 c -1.9987,-1.19528 -4.5366,-3.86426 -5.6399,-5.93107 -1.9558,-3.66417 -1.9608,-3.85835 -0.201,-7.78905 0.9927,-2.21716 2.7451,-4.53439 3.8942,-5.14939 1.8552,-0.99287 2.0191,-1.71606 1.4623,-6.45311 -0.6119,-5.20695 -0.5309,-5.43396 3.3787,-9.4625 2.2031,-2.27016 4.6208,-4.11162 5.3727,-4.09213 0.7518,0.0195 0.3506,0.59989 -0.8916,1.28979 -1.2422,0.6899 -2.9783,2.28186 -3.8579,3.5377 -1.4724,2.10214 -1.4592,2.65028 0.1666,6.90752 1.48,3.87519 1.538,4.69923 0.358,5.08758 -0.7745,0.25487 -2.9003,1.95073 -4.724,3.76859 -4.7102,4.69497 -4.2225,8.7164 1.5476,12.76058 5.0452,3.5362 11.8501,4.07928 17.1452,1.36832 3.1257,-1.60022 3.6283,-1.60964 6.7537,-0.12653 1.8572,0.8813 4.2751,1.36744 5.373,1.08031 2.2341,-0.58421 2.6924,1.19469 0.7964,3.0907 -1.4522,1.45215 -7.437,1.59637 -8.3,0.2 -0.8229,-1.33144 -4.8231,-1.27689 -6.1843,0.0843 -0.5964,0.59639 -3.7239,1.29072 -6.95,1.54296 -4.7786,0.37361 -6.5392,0.0558 -9.4997,-1.71461 z m 59.134,0.58731 c -1.375,-0.78602 -3.2091,-1.44508 -4.0757,-1.46456 -2.1616,-0.0486 -5.5146,-3.81063 -7.384,-8.28478 -1.1971,-2.86505 -1.3367,-4.7039 -0.6061,-7.98635 0.5219,-2.34537 1.1686,-5.49116 1.4369,-6.99065 0.2683,-1.49949 1.2793,-4.06606 2.2465,-5.7035 1.8169,-3.07574 10.1217,-9.08143 12.5221,-9.05542 0.7482,0.008 0.3938,0.57061 -0.7876,1.25 -9.7607,5.61342 -11.8521,8.93818 -11.8521,18.84141 0,6.11027 0.2817,7.0565 2.9201,9.81044 4.5215,4.71943 10.0002,6.35483 19.897,5.93925 6.4269,-0.26987 8.9588,-0.79438 10.4794,-2.17098 1.5096,-1.36669 2.1929,-1.5111 2.7655,-0.58449 0.8372,1.35449 -4.3646,6.12162 -6.062,5.55556 -0.55,-0.18341 -2.4481,0.26898 -4.2179,1.0053 -4.2005,1.7476 -14.1046,1.6552 -17.2821,-0.16123 z m 36.5,0.0585 c -3.6837,-1.67393 -8.5,-6.17638 -8.5,-7.94613 0,-0.7187 -1.0125,-1.82786 -2.25,-2.46481 -2.162,-1.11281 -2.1658,-1.13689 -0.096,-0.61592 1.9595,0.49321 2.1224,0.20342 1.8052,-3.20991 -0.6029,-6.48637 4.9209,-14.33979 12.0409,-17.11914 2.4343,-0.95024 2.6274,-0.93832 1.024,0.0632 -4.335,2.70781 -8.3731,7.52828 -9.3893,11.2085 -3.1041,11.24206 11.4167,21.11442 21.36532,14.52575 3.7712,-2.49757 4.5,-2.49757 4.5,0 0,1.53354 0.6667,2 2.8584,2 h 2.8584 l 1.2261,-12.25 c 0.6744,-6.7375 1.4466,-12.47095 1.716,-12.741 1.2329,-1.236 -0.9884,24.65941 -2.2939,26.741 -1.5704,2.50402 -7.8682,3.23484 -8.6174,1 -0.3215,-0.95933 -1.5617,-0.84191 -5.33332,0.50495 -5.819,2.07803 -8.8524,2.14933 -12.9143,0.30353 z m 38.00002,0.2337 c -3.9851,-2.28543 -4.6069,-3.97588 -4.0394,-10.98032 0.298,-3.67848 0.9782,-7.83571 1.5114,-9.23828 0.8494,-2.23404 0.675,-2.62406 -1.4067,-3.14655 -2.8435,-0.71366 -3.9186,-3.9513 -2.271,-6.8387 1.1514,-2.0177 1.2026,-1.99532 1.5151,0.66167 0.257,2.18489 0.84,2.75 2.8372,2.75 h 2.5137 l -0.6291,9.75 c -0.3721,5.76646 -0.233,10.33443 0.3404,11.18044 0.5956,0.87877 3.3141,1.60004 7.0489,1.87019 5.2003,0.37616 6.0795,0.1969 6.0795,-1.23946 0,-0.92356 0.45,-1.40109 1,-1.06117 0.55,0.33992 1,1.4402 1,2.44508 0,3.82194 -10.8487,6.5146 -15.5,3.8471 z m 24.5199,-0.47438 c -8.0866,-4.22404 -10.7772,-15.79583 -5.4838,-23.58567 1.3948,-2.05267 3.0823,-3.72524 3.75,-3.71682 0.7795,0.01 0.8478,0.27819 0.1908,0.75 -2.1963,1.57719 -4.4769,6.31385 -4.4769,9.29838 0,8.42225 6.7921,13.93631 17.1665,13.93631 6.0716,0 11.8335,-1.58954 11.8335,-3.26449 0,-0.58786 0.2688,-0.8 0.5974,-0.47141 0.8345,0.83444 -2.6793,6.55334 -4.442,7.22976 -0.7977,0.30612 -4.6466,0.80075 -8.5529,1.09916 -5.6761,0.43361 -7.8014,0.1775 -10.5826,-1.27522 z m 66.2934,0.4322 c -0.9798,-1.52204 -1.2003,-18.79817 -0.2322,-18.19988 1.1741,0.72563 1.6,-12.82466 0.4792,-15.24494 -1.0856,-2.34434 -2.5603,-3.09608 -2.5603,-1.3052 0,0.55 -1.0699,1 -2.3776,1 -3.524,0 -4.6549,2.06857 -5.192,9.49645 -0.2659,3.67833 -0.8697,9.4589 -1.3418,12.84571 -0.4721,3.38681 -0.7648,6.26565 -0.6506,6.39742 0.1143,0.13177 1.5677,0.51156 3.2298,0.84397 l 3.0219,0.60438 0.6002,-8.34396 c 0.6171,-8.5784 2.56,-19.32744 3.3505,-18.53691 0.4261,0.42615 -2.1983,23.77428 -3.1971,28.44294 -0.421,1.96776 -1.1062,2.25 -5.4624,2.25 h -4.9809 l 0.054,-4.25 c 0.03,-2.3375 0.6072,-7.91846 1.2826,-12.40212 1.4217,-9.43663 1.2002,-11.11735 -1.1908,-9.0395 -0.9055,0.78685 -2.9689,1.85524 -4.5855,2.37418 -4.5483,1.46014 -6.5124,4.95255 -7.2134,12.82614 -0.825,9.26785 -1.5433,10.4949 -6.1326,10.47599 -5.8664,-0.0242 -6.607,-0.94552 -5.7298,-7.12864 0.418,-2.94583 0.8173,-8.80084 0.8875,-13.01114 0.07,-4.21031 0.417,-7.47592 0.7708,-7.25691 0.3539,0.219 0.9125,-0.67408 1.2414,-1.98461 0.7869,-3.13529 3.4151,-4.23829 3.0072,-1.26209 -1.0505,7.66643 -2.543,24.32646 -2.2539,25.1587 0.1911,0.55 1.8132,1.14281 3.6047,1.31735 3.147,0.3066 3.2573,0.19195 3.2573,-3.38471 0,-6.65057 2.2655,-16.36298 4.232,-18.1426 1.0381,-0.93948 3.1787,-1.60797 4.7624,-1.48729 2.0065,0.15289 3.3501,-0.45649 4.4412,-2.01428 0.8604,-1.22841 1.5644,-1.89061 1.5644,-1.47155 0,0.41906 0.6278,0.18169 1.395,-0.52749 0.7673,-0.70919 1.1908,-1.62693 0.941,-2.03943 -0.2497,-0.4125 0.2475,-0.75 1.105,-0.75 0.8574,0 1.559,-0.45 1.559,-1 0,-0.55 -0.45,-1 -1,-1 -1.4166,0 -1.2462,-8.35384 0.2,-9.8 0.66,-0.66 2.1225,-1.17148 3.25,-1.13661 1.934,0.0598 1.9227,0.11456 -0.2,0.96777 -3.3197,1.33435 -3.0605,5.54861 0.3946,6.41579 2.8999,0.7278 3.9132,0.0845 4.6423,-2.94695 0.2646,-1.1 0.5333,-0.11406 0.5971,2.19098 0.1472,5.31803 1.2691,6.01264 3.5299,2.1854 0.9796,-1.65816 1.9903,-2.80556 2.246,-2.54977 0.2558,0.2558 -0.2425,8.2325 -1.1073,17.72602 -0.8648,9.49352 -1.4554,17.36282 -1.3125,17.48734 0.143,0.12452 1.6479,0.52335 3.3443,0.8863 l 3.0844,0.6599 1.1948,-9.79309 c 1.2761,-10.45912 2.0009,-11.69616 8.4366,-14.4006 2.1872,-0.91909 3.3221,-0.8974 5.1841,0.0991 3.8497,2.06035 4.9067,5.94202 3.6239,13.30862 -1.5495,8.89768 -1.4672,9.379 1.7974,10.51705 2.5679,0.89519 2.973,0.76131 3.4863,-1.15217 0.3194,-1.19079 0.6203,-4.19007 0.6686,-6.66507 0.048,-2.475 0.4459,-6.525 0.8837,-9 0.4897,-2.76911 0.5895,-0.0813 0.2594,6.98782 -0.2957,6.33399 -1.0338,11.98523 -1.6451,12.59652 -1.5948,1.59486 -7.8011,2.54519 -9.5222,1.45807 -1.2502,-0.78971 -1.2866,-1.95667 -0.25,-8.00203 0.6676,-3.89263 1.2137,-8.3494 1.2137,-9.90395 0,-3.62293 -3.152,-6.56616 -6.2097,-5.79838 -5.1455,1.29204 -5.9729,2.81712 -7.1768,13.22921 -1.1401,9.85967 -1.1647,9.9227 -4.1302,10.5575 -4.8133,1.03034 -6.316,0.9518 -7.17,-0.37476 z m -436.8153,-0.75321 c -1.56322,-2.52934 5.02973,-36.56256 7.64167,-39.44679 1.15716,-1.27779 1.18284,-1.56036 -1.62676,17.89956 -1.34593,9.32226 -2.3445,17.0522 -2.21905,17.17765 0.12545,0.12545 6.45315,0.33094 14.06156,0.45663 10.94493,0.18082 14.04066,-0.0651 14.82576,-1.17765 0.72546,-1.02805 0.83818,-0.73391 0.4192,1.09381 -0.3152,1.375 -0.57924,3.0625 -0.58675,3.75 -0.0173,1.58052 -31.54346,1.8198 -32.51563,0.24679 z m -72.49802,-3.13082 c -3.77758,-2.29519 -9.50299,-6.86599 -8.60037,-6.86599 0.30419,0 3.57246,2.025 7.26283,4.5 6.79791,4.55912 7.76619,6.27192 1.33754,2.36599 z m 151.4426,-5.63823 c -2.3078,-1.93802 -4.6278,-6.70926 -3.709,-7.62799 0.3298,-0.32987 5.8944,-0.59977 12.3657,-0.59977 12.9883,0 13.7328,-0.40148 12.3602,-6.66496 -0.4756,-2.17021 -0.3714,-2.48328 0.4443,-1.33504 0.5861,0.825 1.0725,3.3776 1.0809,5.67245 0.014,3.92256 -0.2042,4.2449 -3.6506,5.3823 -2.0162,0.66542 -7.4618,1.12619 -12.1012,1.02393 -6.5475,-0.1443 -8.339,0.10583 -8.0051,1.1177 0.8005,2.42586 5.1126,3.90474 9.7722,3.35147 3.1297,-0.37161 4.0432,-0.23652 3,0.4436 -2.4318,1.58538 -9.3006,1.1315 -11.5574,-0.76369 z m 92.5574,0.78246 c -1.0042,-0.6421 0.2431,-0.75537 3.7731,-0.34266 4.348,0.50833 5.176,0.36336 4.7195,-0.82629 -0.3045,-0.79354 -2.502,-1.9639 -4.8833,-2.60081 -5.0849,-1.35999 -11.065,-7.38987 -10.2854,-10.371 0.2693,-1.02972 0.1617,-1.66956 -0.2391,-1.42185 -0.4008,0.2477 -2.5823,0.55973 -4.8477,0.6934 l -4.119,0.24304 -0.6671,6.22871 c -0.3668,3.42578 -0.3668,6.71437 0,7.30797 0.3669,0.5936 0.2386,1.07927 -0.285,1.07927 -1.7763,0 -2.1459,-3.08469 -1.1744,-9.802 0.5328,-3.6839 0.9777,-7.0355 0.9886,-7.448 0.011,-0.4125 2.0224,-0.75 4.4701,-0.75 3.1834,0 4.7405,-0.49818 5.4696,-1.75 0.721,-1.23782 1.0282,-1.3388 1.0497,-0.34501 0.024,1.1192 0.4024,1.06834 1.8591,-0.25 2.9215,-2.64387 3.4953,-1.91867 1.1206,1.41626 l -2.187,3.07125 2.7804,2.90202 c 1.5291,1.59611 5.0701,3.64686 7.8688,4.55723 4.9666,1.61554 8.5885,3.92733 8.5885,5.48181 0,0.42547 -0.7071,1.48073 -1.5714,2.34501 -1.7623,1.76225 -9.9808,2.14687 -12.4286,0.58165 z m 45.2225,-0.56692 c -1.2224,-0.85619 -2.2225,-2.17166 -2.2225,-2.92328 0,-1.90809 4.8869,-7.52002 6.5485,-7.52002 1.6207,0 9.4515,7.44437 9.4515,8.98515 0,1.18876 -4.9787,3.3695 -5.8053,2.54283 -0.2904,-0.29039 0.067,-0.52798 0.7936,-0.52798 0.9133,0 0.7365,-0.64662 -0.5721,-2.09262 -2.9475,-3.25695 -5.1498,-4.12032 -7.4162,-2.90738 -2.8427,1.52139 -2.4859,2.78175 1.25,4.41556 1.7875,0.78171 2.5626,1.458 1.7225,1.50287 -0.8401,0.0449 -2.5276,-0.61895 -3.75,-1.47513 z m 23.2687,-0.45307 c -1.6463,-1.81915 -1.6732,-2.14586 -0.2678,-3.25613 0.8592,-0.67876 2.2675,-2.5841 3.1294,-4.2341 1.827,-3.49745 2.1325,-2.19043 0.5494,2.35078 -0.6038,1.73207 -1.5589,3.14922 -2.1225,3.14922 -0.5943,0 -0.4934,0.64001 0.2404,1.52417 1.9405,2.33815 0.5491,2.76227 -1.5289,0.46606 z m 47.3736,0.47063 c 1.8507,-0.80347 4.1007,-1.42662 5,-1.38478 0.8994,0.0418 0.06,0.68261 -1.8648,1.42392 -4.7367,1.82409 -7.3516,1.79145 -3.1352,-0.0391 z m 31.7165,0.46407 c 4.31982,-1.2543 6.61872,-4.16886 6.61872,-8.39121 0,-4.75426 -1.6683,-6.54053 -6.07242,-6.50192 -3.986,0.035 -6.191,1.32308 -7.9643,4.65246 -1.7373,3.262 -1.4286,5.14132 1.2913,7.86119 1.35,1.35 2.0249,2.45455 1.5,2.45455 -2.471,0 -4.9546,-4.14926 -4.9546,-8.27749 0,-5.08087 1.5591,-7.5642 6.3386,-10.09651 9.00392,-4.77039 17.86332,5.76248 11.57312,13.75912 -2.3811,3.02704 -6.95802,5.6577 -9.61202,5.52469 -0.9898,-0.0496 -0.4131,-0.4928 1.2816,-0.98488 z m 58.67892,0.25705 c -0.6868,-0.4362 1.1646,-0.76388 4.1511,-0.73468 2.965,0.029 4.8729,0.38331 4.2398,0.78739 -1.5243,0.97289 -6.8285,0.93958 -8.3909,-0.0527 z m -101.26022,-1.18198 c -0.9013,-0.58246 -1.0246,-0.97549 -0.309,-0.98469 0.655,-0.008 1.4691,0.43469 1.809,0.98469 0.7673,1.24153 0.4211,1.24153 -1.5,0 z m 75.66672,0.33333 c -0.9421,-0.94203 -0.832,-3.72055 0.436,-11.00142 l 1.1026,-6.33191 h 3.8477 c 2.6176,0 4.1592,-0.55676 4.8223,-1.74167 1.3307,-2.37773 2.0915,-1.28681 1.0404,1.49167 -0.5074,1.34105 -1.7732,2.31153 -3.1335,2.40231 -1.2552,0.0838 -2.9529,0.19702 -3.7727,0.25166 -2.586,0.17237 -4.2088,13.94543 -1.7595,14.93375 0.8153,0.329 0.6994,0.53184 -0.3333,0.58333 -0.8709,0.0434 -1.8834,-0.22105 -2.25,-0.58772 z m 145.9336,-0.67264 c 4.8713,-2.25982 5.7918,-6.62124 2.3271,-11.02583 -1.5922,-2.02421 -2.9571,-2.63486 -5.8892,-2.63486 -4.765,0 -7.9469,2.4789 -9.0159,7.02406 l -0.8176,3.47594 -0.099,-3.5 c -0.1219,-4.32749 3.0405,-9.72502 6.4595,-11.02493 4.8294,-1.83614 7.5026,-1.14217 11.6758,3.03106 3.5244,3.52436 3.9282,4.39623 3.3582,7.25 -0.8043,4.02585 -4.152,7.42834 -8.0996,8.23206 l -3,0.61079 z m -486.1143,-0.68331 c -0.87132,-1.40982 -0.29896,-7.19608 0.86721,-8.76695 0.72018,-0.97011 2.99766,-1.12401 9.19381,-0.62126 7.8941,0.64052 8.26554,0.57668 8.93602,-1.53579 0.38475,-1.21226 0.88549,-2.01816 1.11276,-1.7909 0.22726,0.22726 -0.0829,1.83618 -0.68914,3.57536 l -1.10233,3.16216 h -8.40218 c -6.58657,0 -8.40217,0.30646 -8.40217,1.41821 0,0.78002 -0.26117,2.09881 -0.58038,2.93065 -0.43113,1.12352 0.27602,1.61769 2.75,1.92175 l 3.33038,0.40932 -3.19098,0.16003 c -1.75504,0.088 -3.47539,-0.30014 -3.823,-0.86258 z m 361.0397,-1.92772 c -2.843,-5.49779 -2.6737,-5.57765 11.1129,-5.24046 l 12.6423,0.3092 -0.5554,-3.3092 c -0.3054,-1.82006 -0.8951,-4.17052 -1.3104,-5.22324 -0.5175,-1.31205 -0.3992,-1.69417 0.3762,-1.21493 1.4606,0.9027 2.5819,6.87786 1.7704,9.43448 -0.3455,1.08867 -1.8507,2.47542 -3.345,3.08167 -3.1319,1.27075 -17.2811,1.80908 -19.0364,0.72427 -1.4547,-0.89908 -1.503,-0.0829 -0.1451,2.45429 0.5693,1.06384 0.8059,1.93426 0.5257,1.93426 -0.2803,0 -1.1961,-1.32765 -2.0352,-2.95034 z m 113.3467,1.20034 c -1.2438,-1.58606 -1.2085,-1.62143 0.3776,-0.37756 0.9625,0.75485 1.75,1.54235 1.75,1.75 0,0.82304 -0.8212,0.29331 -2.1276,-1.37244 z m -728.99998,-1 c -1.24387,-1.58606 -1.2085,-1.62143 0.37756,-0.37756 1.66575,1.30637 2.19548,2.12756 1.37244,2.12756 -0.20765,0 -0.99515,-0.7875 -1.75,-1.75 z m 293.86276,-1.92457 c -0.28266,-1.55399 -1.43269,-5.96896 -2.55562,-9.81104 -1.12293,-3.84209 -1.87434,-7.15296 -1.66981,-7.35749 0.20453,-0.20453 1.09763,2.264 1.98467,5.48561 0.88704,3.22162 2.08435,6.98249 2.66068,8.35749 1.00698,2.40235 1.18168,2.23527 4.47418,-4.27781 3.0961,-6.12454 7.0344,-11.4168 7.855,-10.55552 0.341,0.35791 -10.1154,18.78316 -11.4402,20.15876 -0.43724,0.45399 -1.02623,-0.44601 -1.3089,-2 z m 219.258,-1.84616 c -2.709,-8.20812 2.334,-17.14392 10.9906,-19.47492 3.7428,-1.00782 5.3387,-0.92057 10.2256,0.55905 5.2211,1.58082 6.3807,2.66632 5.5406,5.1866 -0.1375,0.4125 -0.5296,0.6568 -0.8713,0.54289 -5.1805,-1.72683 -12.435,-2.19286 -16.8178,-1.08039 -6.1656,1.565 -8.3539,4.92292 -7.8448,12.0375 0.2264,3.1625 0.3052,5.75 0.1753,5.75 -0.13,0 -0.7592,-1.58433 -1.3982,-3.52073 z m -37.3265,0.85406 c -1.1372,-1.13719 -0.7355,-2.33333 0.7836,-2.33333 0.7977,0 1.909,-0.7875 2.4696,-1.75 1.3683,-2.34921 1.41,0.26507 0.045,2.81574 -1.0721,2.00331 -2.1487,2.41706 -3.2981,1.26759 z m -5.0476,-5.04762 c -1.293,-1.29297 -0.4934,-2.30917 3.3663,-4.27825 4.5782,-2.33561 7.2646,-5.89657 7.2646,-9.62947 0,-1.48098 0.3102,-2.08954 0.724,-1.42011 1.8007,2.91366 -2.3351,11.38717 -6.1487,12.59757 -0.9974,0.31656 -2.4375,1.19966 -3.2003,1.96244 -0.7628,0.76278 -1.6655,1.1083 -2.0059,0.76782 z m -151.6191,-1.10145 c 0,-1.00028 2.5626,-4.86535 3.9133,-5.90246 0.8727,-0.67 3.4295,-1.2325 5.6817,-1.25 4.4483,-0.0345 7.405,2.1803 7.405,5.54694 0,1.74433 -0.7828,1.92126 -8.5,1.92126 -4.675,0 -8.5,-0.14208 -8.5,-0.31574 z m 13.5,-2.18426 c -0.3399,-0.55 -2.5899,-1 -5,-1 -2.4101,0 -4.6601,0.45 -5,1 -0.384,0.62134 1.5093,1 5,1 3.4907,0 5.384,-0.37866 5,-1 z m 285.14352,-1.14693 c 3.0044,-3.07677 4.4962,-3.85307 7.4045,-3.85307 3.983,0 6.9557,2.38734 6.9465,5.57874 -0.01,1.74552 -0.8338,1.93069 -9.0595,2.02433 l -9.0539,0.10307 z m 9.3565,1.14693 c 0,-1.14477 -1.4255,-1.14477 -5,0 -2.2311,0.71454 -2.0967,0.81136 1.25,0.90032 2.0625,0.0548 3.75,-0.35032 3.75,-0.90032 z m -514.18752,0.31689 c 0.72187,-0.28887 1.58438,-0.25335 1.91667,0.0789 0.33229,0.33229 -0.25834,0.56864 -1.3125,0.52522 -1.16495,-0.048 -1.4019,-0.28494 -0.60417,-0.60416 z m 316.1875,-0.24645 c -3.1684,-1.71935 -9.266,-2.25693 -10.1307,-0.89315 -0.6405,1.01018 -0.8423,0.91753 -0.854,-0.39211 -0.032,-3.62275 7.1696,-4.98041 12.2799,-2.3149 2.4509,1.2784 2.8643,1.27764 3.3569,-0.006 0.3091,-0.80527 0.2621,-2.25162 -0.1044,-3.21412 -0.4986,-1.30982 -0.3785,-1.4646 0.4777,-0.61534 2.804,2.78128 -1.5985,9.29537 -5.0254,7.43578 z m -311.73097,-0.76343 c 0.97297,-0.25354 2.32297,-0.23687 3,0.0371 0.67703,0.27393 -0.11903,0.48137 -1.76903,0.46099 -1.65,-0.0204 -2.20394,-0.2445 -1.23097,-0.49804 z m 139.12398,-2.8888 c 0.33385,-0.86998 0.60699,-3.17232 0.60699,-5.1163 v -3.53452 l 9.95447,0.39982 c 9.37441,0.37653 9.9775,0.28133 10.34975,-1.63369 0.28222,-1.45188 0.37729,-1.31829 0.33238,0.46708 -0.0346,1.37533 0.28457,3.06283 0.70926,3.75 0.59892,0.96907 -1.59698,1.2494 -9.78684,1.2494 -10.52307,0 -10.55902,0.008 -10.55902,2.43664 0,1.99963 0.58288,2.50898 3.25,2.83996 2.74419,0.34056 2.57191,0.42823 -1.10699,0.56336 -3.59845,0.13218 -4.25131,-0.11534 -3.75,-1.42175 z m 207.58229,-0.98331 c -1.2272,-3.22762 -1.2232,-3.70612 0.025,-2.9349 0.55,0.33992 1,-0.31966 1,-1.46573 0,-3.00973 4.6793,-4.66913 8,-2.83696 3.516,1.93999 3.1207,3.77696 -1.5,6.97117 -4.9942,3.45234 -6.296,3.49843 -7.5248,0.26642 z m 7.1639,-1.44842 2.3608,-2.01352 -3.9917,0.26352 c -2.8776,0.18997 -4.0842,0.75194 -4.3233,2.01352 -0.4612,2.43385 2.9697,2.282 5.9542,-0.26352 z m -131.7342,-0.23648 -1.905,-2.25 2.25,1.90499 c 1.2375,1.04774 2.25,2.06024 2.25,2.25 0,0.80025 -0.8048,0.20945 -2.595,-1.90499 z m 232.15462,1.34649 c -0.4319,-0.69891 -0.292,-1.76405 0.3109,-2.36696 1.4754,-1.47541 2.036,-0.66344 1.1765,1.70409 -0.5186,1.42835 -0.9072,1.60157 -1.4874,0.66287 z m 61.9404,-2.16432 c -1.65,-1.0569 -2.4874,-1.92401 -1.8608,-1.92691 0.6266,-0.003 2.2016,0.87977 3.5,1.96147 2.9731,2.47681 2.2579,2.46173 -1.6392,-0.0346 z m 18.5153,0.31783 c 0.012,-1.38406 0.1979,-1.46182 0.8882,-0.37188 0.4801,0.75796 1.3732,1.0689 1.9847,0.69098 0.6115,-0.37792 1.1118,-0.21058 1.1118,0.37188 0,0.58246 -0.9,1.05902 -2,1.05902 -1.2439,0 -1.9942,-0.66156 -1.9847,-1.75 z m 39.0423,0.059 c 0.032,-0.99496 0.43,-3.60902 0.885,-5.80902 l 0.8274,-4 0.115,5.19098 c 0.063,2.85504 -0.335,5.4691 -0.885,5.80902 -0.55,0.33992 -0.9741,-0.19602 -0.9424,-1.19098 z m -331.55762,-0.309 c 0.3399,-0.55 1.068,-1 1.618,-1 0.55,0 0.7219,0.45 0.382,1 -0.3399,0.55 -1.068,1 -1.618,1 -0.55,0 -0.7219,-0.45 -0.382,-1 z m 227.43642,-0.87513 c -1.3487,-0.53898 -1.2456,-1.09191 0.75,-4.02275 l 2.3136,-3.39789 v 3.58887 c 0,3.9278 -0.6837,4.78288 -3.0636,3.83177 z m 108.7969,-0.24896 c 0.6784,-0.68342 1.4853,-0.99067 1.7932,-0.68278 0.3078,0.30789 -0.2472,0.86705 -1.2334,1.24258 -1.4252,0.54268 -1.54,0.42782 -0.5598,-0.5598 z m 33.0351,-0.0444 c 0.5812,-0.5811 1.6469,-0.85979 2.3683,-0.61931 0.749,0.24965 0.2957,0.70294 -1.0565,1.05655 -1.6634,0.43497 -2.0538,0.30483 -1.3118,-0.43724 z m -341.57382,-0.5102 c 0.9844,-0.25947 1.4634,-1.04901 1.143,-1.884 -0.3034,-0.79054 -0.039,-1.43735 0.5876,-1.43735 0.6266,0 1.5462,-1.0125 2.0436,-2.25 0.8789,-2.18654 0.9062,-2.17474 0.9678,0.41821 0.1022,4.30003 -0.9212,5.84186 -3.7936,5.71579 -1.5905,-0.0698 -1.9682,-0.29386 -0.9484,-0.56265 z m 11.8054,-0.28993 c 0,-0.53273 0.675,-0.70959 1.5,-0.39301 0.825,0.31659 1.5,0.75246 1.5,0.96862 0,0.21615 -0.675,0.39301 -1.5,0.39301 -0.825,0 -1.5,-0.43588 -1.5,-0.96862 z m 142.0153,0.27764 c 0.01,-0.44496 0.4515,-1.48402 0.9847,-2.30902 0.8354,-1.29269 0.9715,-1.26629 0.9847,0.19098 0.01,0.93004 -0.4347,1.9691 -0.9847,2.30902 -0.55,0.33992 -0.9931,0.25398 -0.9847,-0.19098 z m 56.25712,-3.30902 c 0,-2.475 0.195,-3.4875 0.4333,-2.25 0.2384,1.2375 0.2384,3.2625 0,4.5 -0.2383,1.2375 -0.4333,0.225 -0.4333,-2.25 z m -272.45992,2.31689 c 0.7219,-0.28887 1.5844,-0.25335 1.9167,0.0789 0.3323,0.33229 -0.2584,0.56864 -1.3125,0.52522 -1.165,-0.048 -1.4019,-0.28494 -0.6042,-0.60416 z m 74.2665,-3.90022 c 0.048,-1.16495 0.2849,-1.4019 0.6041,-0.60417 0.2889,0.72187 0.2534,1.58438 -0.079,1.91667 -0.3323,0.33229 -0.5686,-0.25834 -0.5252,-1.3125 z m 78.4281,-1.40522 c -0.3504,-0.56686 0.051,-0.7345 0.941,-0.39301 1.7324,0.66479 2.0494,1.38156 0.6109,1.38156 -0.5175,0 -1.2159,-0.44485 -1.5519,-0.98855 z m -4.6946,-1.69456 c 0.7219,-0.28887 1.5844,-0.25335 1.9167,0.0789 0.3323,0.33229 -0.2584,0.56864 -1.3125,0.52522 -1.165,-0.048 -1.4019,-0.28494 -0.6042,-0.60416 z m -220,-1 c 0.72187,-0.28887 1.58438,-0.25335 1.91667,0.0789 0.33229,0.33229 -0.25834,0.56864 -1.3125,0.52522 -1.16495,-0.048 -1.4019,-0.28494 -0.60417,-0.60416 z m 12.9375,-0.0226 c 1.2375,-0.23836 3.2625,-0.23836 4.5,0 1.2375,0.23835 0.225,0.43337 -2.25,0.43337 -2.475,0 -3.4875,-0.19502 -2.25,-0.43337 z m -354.75,-11.29141 c 0,-3.50163 14.66756,-14.15768 19.18705,-13.93949 0.72212,0.0349 0.18795,0.54573 -1.18705,1.13526 l -2.5,1.07187 2.5,0.68831 2.5,0.68831 -2.25,0.74382 c -1.2375,0.4091 -2.25,1.34447 -2.25,2.0786 0,0.73414 -1.40791,1.82559 -3.1287,2.42546 -1.72078,0.59987 -4.23874,2.28843 -5.59547,3.75236 -1.81559,1.95906 -2.67256,2.32874 -3.2463,1.4004 -0.55204,-0.89322 -0.97915,-0.93832 -1.46355,-0.15454 -0.85176,1.37817 -2.56598,1.45142 -2.56598,0.10964 z m 276.5,-0.51956 c -12.32057,-2.28864 -25.0282,-7.54395 -27.79565,-11.49503 -2.05766,-2.93772 -0.65738,-9.1372 4.28337,-18.96387 4.08419,-8.12305 4.91592,-8.87759 11.51228,-10.44393 2.61471,-0.62088 2.77966,-0.54337 1.28431,0.60357 -1.98389,1.52165 -9.76232,19.70967 -9.13184,21.35267 0.68947,1.79673 8.71491,5.25917 17.22816,7.43279 13.75267,3.51137 32.95662,2.29249 44.5283,-2.82621 2.45055,-1.084 6.9223,-4.37219 9.93722,-7.30711 6.51085,-6.33807 9.29712,-13.75698 8.30684,-22.11833 -1.47462,-12.45086 -6.98601,-17.34314 -24.88102,-22.08604 -5.64958,-1.49737 -12.29697,-3.71459 -14.77197,-4.92716 -3.82336,-1.87316 -4.5,-2.64978 -4.5,-5.16484 0,-4.15735 5.14398,-7.53983 11.46638,-7.53983 4.85136,0 14.61514,2.45438 16.77414,4.21661 0.68229,0.5569 2.91863,1.58945 4.96964,2.29456 3.63246,1.24878 3.79025,1.20046 6.08847,-1.86458 3.33179,-4.44346 7.20137,-12.23025 7.20137,-14.49137 0,-1.0512 -1.0125,-2.67715 -2.25,-3.61322 -2.24263,-1.69637 -2.24181,-1.69721 0.25,-0.25849 3.99446,2.30633 3.63462,5.98274 -1.83348,18.73244 -5.67533,13.23289 -5.08851,12.91552 -18.16652,9.82482 -4.125,-0.97486 -9.3,-1.73751 -11.5,-1.69478 l -4,0.0777 4.84481,0.92723 c 2.66464,0.50997 5.81464,1.54047 7,2.29 1.18535,0.74952 3.73019,1.68614 5.65519,2.08137 9.28215,1.90575 15.63201,8.06179 18.37401,17.81318 1.0307,3.6655 2.2682,6.66454 2.75,6.66454 0.48179,0 0.87599,-0.37372 0.87599,-0.83048 0,-0.45676 2.0321,-2.28983 4.51578,-4.07347 l 4.51578,-3.24299 -1.85338,-2.67653 c -4.55432,-6.57707 -5.49243,-20.71156 -1.57162,-23.6796 2.48359,-1.88007 2.93683,-1.84315 3.10659,0.25307 0.19057,2.35318 4.74447,17.04095 5.52572,17.82221 0.34109,0.34109 3.81449,-0.10637 7.71867,-0.99436 8.95179,-2.03604 20.79976,-2.41139 23.79246,-0.75375 1.4827,0.82126 2.25,2.18071 2.25,3.98635 v 2.74007 l -10.47979,-0.38793 c -22.68988,-0.83992 -36.16136,6.46499 -37.30264,20.22735 -0.52451,6.32489 1.83305,11.6913 7.21039,16.41266 6.95058,6.10269 20.43338,7.41089 29.10381,2.82385 2.73252,-1.44562 6.03678,-3.39507 7.34273,-4.3321 l 2.3746,-1.7037 -0.401,4.20468 -0.4009,4.20466 h 12.2573 c 11.9059,0 12.2708,-0.0645 12.7258,-2.25 0.2576,-1.2375 1.2165,-11.03546 2.1309,-21.77325 1.6036,-18.83199 1.6176,-27.25263 0.053,-31.47675 -0.4076,-1.1 0.012,-0.69484 0.9333,0.90035 2.0645,3.57605 2.2207,13.68828 0.5499,35.59965 -1.2621,16.55122 -2.2978,22.05805 -4.5778,24.33798 -2.2621,2.26216 -24.6288,1.77943 -27.24369,-0.58798 -2.35359,-2.13084 -3.14975,-2.17374 -5.23973,-0.28234 -0.89196,0.80722 -4.48758,2.20186 -7.99026,3.0992 -7.1663,1.83592 -16.83682,1.30067 -23.3123,-1.2903 -3.38458,-1.35426 -10.73312,-8.46884 -10.73312,-10.39146 0,-0.41519 -0.46978,-1.99052 -1.04396,-3.50072 l -1.04395,-2.74581 -5.93551,6.14149 c -7.76468,8.03417 -19.0464,13.68682 -30.29894,15.18114 -9.47705,1.25854 -12.1552,1.19811 -21.17764,-0.47788 z m -20.5,-23.14594 c 0,-0.70419 1.125,-3.82418 2.5,-6.9333 1.375,-3.10912 2.48682,-6.15945 2.47071,-6.77851 -0.0372,-1.43033 -6.45274,13.03069 -7.26439,16.37443 -0.57735,2.3785 -0.53636,2.40566 0.84342,0.55887 0.79764,-1.06762 1.45026,-2.51729 1.45026,-3.22149 z m 522.32422,20.22313 c -4.961,-1.55121 -10.1542,-4.65222 -12.5644,-7.50251 -2.173,-2.56977 -3.7598,-2.64101 -3.7598,-0.16878 0,1.03906 -0.8607,2.95156 -1.9126,4.25 -1.8545,2.28903 -2.3636,2.36078 -16.75,2.36078 -8.1606,0 -15.685,-0.34643 -16.7209,-0.76985 -1.7715,-0.72406 -1.8405,-1.63795 -1.1606,-15.36425 0.4586,-9.25872 0.3719,-14.3775 -0.2371,-14.00112 -0.528,0.3263 -2.4807,4.2868 -4.3394,8.80112 -1.8587,4.51431 -4.7825,9.69875 -6.4975,11.52097 -3.0724,3.26459 -3.2472,3.31313 -11.9355,3.31313 -10.9326,0 -12.2941,-1.03303 -15.9908,-12.13338 -2.2768,-6.8367 -2.8007,-7.66441 -4.056,-6.40907 -0.8908,0.89074 -1.7822,5.04212 -2.3331,10.86552 -1.0697,11.30624 -2.2486,13.61777 -7.057,13.83677 -16.2543,0.7403 -25.99812,0.18489 -27.76572,-1.58269 -0.8128,-0.81282 -0.5239,-11.65398 0.7882,-29.57715 0.5435,-7.425 1.6531,-24.04457 2.4658,-36.93238 1.4628,-23.19943 1.5043,-23.46038 4.1769,-26.25 1.4847,-1.54969 3.17782,-2.81789 3.76242,-2.81823 0.736,-4.2e-4 0.8484,5.15041 0.3655,16.74761 -0.5597,13.44068 -3.02502,56.13996 -4.08502,70.753 l -0.2176,3 h 12.50002 12.5 l 0.6533,-11.5 c 0.3594,-6.325 0.9936,-19.28808 1.4094,-28.80685 0.6683,-15.29851 0.8983,-16.92311 1.9815,-14 5.1349,13.85605 16.4535,42.93408 17.402,44.70626 1.0672,1.99418 1.8251,2.15753 8.7759,1.89163 l 7.6078,-0.29104 7.3859,-16.5 c 4.0622,-9.075 8.7499,-19.425 10.4171,-23 l 3.0314,-6.5 -0.5684,16 c -0.3126,8.8 -0.8683,21.0625 -1.2349,27.25 l -0.6666,11.25 h 12.6338 c 12.2983,0 12.6459,-0.0597 13.0949,-2.25 0.5697,-2.7798 1.72,-29.44599 2.0813,-48.25 0.6036,-31.41785 0.935,-39.34646 1.6268,-38.91893 0.3993,0.24679 0.4693,8.65451 0.1556,18.68382 -0.659,21.06331 0.251,36.76093 2.2848,39.41435 1.328,1.73267 1.4262,1.7119 2.0286,-0.42924 0.3482,-1.2375 0.9181,-2.25224 1.2664,-2.25497 0.3484,-0.003 1.9251,-1.03856 3.5038,-2.30185 l 2.8704,-2.29688 -3.0491,-5.44815 c -3.322,-5.93593 -4.333,-12.99436 -2.3797,-16.61462 1.1809,-2.18865 10.1031,-5.86184 12.3882,-5.10014 0.6552,0.2184 -0.9218,0.98872 -3.5045,1.71181 -4.5504,1.27405 -5.6831,2.32654 -3.7736,3.50665 0.5071,0.31343 1.8922,3.4851 3.0779,7.04815 1.1857,3.56305 2.5511,6.72256 3.0342,7.02112 0.4831,0.29857 3.9355,-0.16892 7.6721,-1.03886 3.7365,-0.86995 10.097,-1.58434 14.1344,-1.58754 8.3784,-0.007 12.1593,1.70908 12.1593,5.51767 0,2.3395 -0.094,2.36044 -8.2821,1.84959 -10.2709,-0.64078 -23.4541,1.05265 -28.5892,3.67239 -5.3282,2.7182 -8.8163,7.18321 -10.7156,13.71646 -1.8591,6.39517 -1.3364,10.68337 1.885,15.46362 3.0716,4.55787 7.795,7.53917 14.2244,8.97799 7.4041,1.65698 19.6364,-0.72962 25.9288,-5.05891 2.425,-1.66844 4.6655,-3.03353 4.9789,-3.03353 0.3134,0 0.5698,1.77105 0.5698,3.93566 v 3.93566 l 10.5038,0.31434 10.5037,0.31434 0.4762,-3 c 0.8583,-5.40709 2.3724,-43.91615 1.8676,-47.5 -0.3723,-2.64316 -0.2346,-3.13278 0.5625,-2 0.9047,1.28556 1.0578,1.24094 1.0709,-0.3121 0.023,-2.66927 2.894,-10.8823 4.6108,-13.1879 1.3468,-1.80865 2.7051,-2.00773 14.1969,-2.08082 11.8839,-0.0756 12.0108,-0.0573 1.9576,0.28275 l -10.75,0.36357 v 10.41244 c 0,11.57856 -1.7486,49.47934 -2.4809,53.77206 l -0.4691,2.75 h 12.3442 12.3441 l 0.6133,-3.75 c 0.3373,-2.0625 1.1135,-10.725 1.7248,-19.25 0.6597,-9.19852 1.7028,-16.76495 2.5658,-18.61144 2.6994,-5.77573 10.5945,-7.24282 15.0421,-2.79517 2.4551,2.45508 2.5598,2.97503 1.9629,9.75 -0.3468,3.93613 -1.0803,12.33161 -1.6301,18.65661 -0.5499,6.325 -1.2311,12.48812 -1.5139,13.69582 -0.5073,2.16656 -0.3352,2.19986 12.9185,2.5 l 13.4325,0.30418 0.6178,-9 c 0.3398,-4.95 1.0122,-17.55 1.4943,-28 l 0.8764,-19 -0.3051,27 c -0.1746,15.44265 -0.7471,28.11071 -1.3376,29.59482 -2.1494,5.40182 -2.9215,5.63224 -19.3904,5.78654 -8.4203,0.0789 -15.9386,-0.26729 -16.7074,-0.7693 -1.6435,-1.07321 -1.6535,-9.27856 -0.03,-24.47921 1.1266,-10.54775 1.0397,-15.43855 -0.307,-17.27962 -1.0385,-1.41974 -4.4443,-0.63204 -5.1433,1.18955 -0.2841,0.74013 -0.8362,8.23328 -1.2271,16.65146 -0.4262,9.17873 -1.2648,16.63423 -2.0949,18.62437 -2.1685,5.199 -6.4077,6.44837 -20.4625,6.03065 -10.1841,-0.30267 -11.9384,-0.60477 -13.1522,-2.26483 -1.38,-1.88743 -1.4163,-1.88743 -2.4709,0 -0.9384,1.6793 -2.4774,1.95652 -12.4782,2.24759 -8.3769,0.2438 -12.3381,-0.0567 -14.9091,-1.13092 -2.1977,-0.91823 -4.0822,-1.13787 -5.0613,-0.5899 -2.2819,1.27698 -15.3761,3.89973 -19.0812,3.8219 -1.7515,-0.0368 -5.0637,-0.65446 -7.3604,-1.37259 z m 68.3589,-43.74801 c -0.3192,-0.79773 -0.5562,-0.56078 -0.6042,0.60417 -0.043,1.05416 0.193,1.64479 0.5253,1.3125 0.3323,-0.33229 0.3678,-1.1948 0.079,-1.91667 z m 0,-5 c -0.3192,-0.79773 -0.5562,-0.56078 -0.6042,0.60417 -0.043,1.05416 0.193,1.64479 0.5253,1.3125 0.3323,-0.33229 0.3678,-1.1948 0.079,-1.91667 z m -280.40172,48.274 c -6.0369,-1.54 -14.2289,-6.204 -16.5073,-9.39824 -2.1257,-2.98022 -2.2741,-4.1793 -2.2741,-18.37636 0,-14.58997 -0.091,-15.27325 -2.3161,-17.35055 -1.2739,-1.18935 -2.4964,-1.9822 -2.7167,-1.76189 -0.2203,0.2203 -0.9028,6.90305 -1.5166,14.85055 -2.2537,29.18163 -2.0824,28.24029 -5.4506,29.93794 -3.8164,1.92354 -30.4132,1.69401 -31.7529,-0.27402 -0.4545,-0.66766 -0.5969,-3.23893 -0.3164,-5.71393 0.2805,-2.475 0.8096,-10.68002 1.1759,-18.23338 0.734,-15.13878 0.197,-17.13278 -4.3905,-16.30091 -1.3986,0.25361 -2.9074,0.82562 -3.3529,1.27114 -0.4456,0.44551 -1.2822,8.44948 -1.8593,17.78659 -1.2288,19.87999 -1.426,21.03582 -3.7453,21.94652 -2.8571,1.12192 -30.5033,0.57186 -31.9585,-0.63586 -1.5682,-1.30154 -1.7629,-13.44821 -0.3291,-20.53488 0.5341,-2.63957 1.4478,-13.34922 2.0304,-23.79922 1.1591,-20.78838 2.0908,-25.9438 4.9668,-27.48299 3.8932,-2.08357 4.299,-1.38828 3.6377,6.23299 -0.346,3.9875 -1.0701,15.35 -1.609,25.25 -0.5389,9.9 -1.2668,21.9375 -1.6174,26.75 l -0.6375,8.75 h 13.129 c 7.221,0 13.1328,-0.1125 13.1374,-0.25 0,-0.1375 0.67,-9.7 1.4786,-21.25 1.4337,-20.4791 1.534,-21.05581 4.0473,-23.25 3.8256,-3.33991 10.6167,-3.14476 13.3931,0.38486 1.829,2.32514 2.0624,3.94139 1.9855,13.75 -0.048,6.11333 -0.3874,15.0464 -0.7546,19.85127 -0.3671,4.80486 -0.5155,9.19236 -0.3296,9.75 0.2049,0.61458 5.3664,1.01387 13.106,1.01387 h 12.7681 l 0.6562,-11.75 c 1.857,-33.25455 1.907,-40.63718 0.3062,-45.25 -1.2839,-3.70001 -1.3041,-4.15491 -0.1134,-2.55887 0.7965,1.06762 1.4482,2.53012 1.4482,3.25 0,0.71988 0.45,1.30887 1,1.30887 0.55,0 1.0006,-1.4625 1.0012,-3.25 0.001,-3.85965 3.4766,-8.32984 7.2026,-9.265 2.2818,-0.57271 2.6692,-1.31632 3.2912,-6.31706 0.8763,-7.04666 1.7476,-8.56155 2.6845,-4.66794 0.6728,2.79559 0.7054,2.74896 0.4797,-0.68446 -0.1984,-3.0177 0.1809,-3.87729 2.0963,-4.75 3.1307,-1.42645 4.5485,-1.35285 3.5535,0.18446 -0.4449,0.6875 -1.034,4.58967 -1.309,8.67149 l -0.5,7.42148 -5,0.40267 c -2.75,0.22146 -5.3096,0.70679 -5.6881,1.07851 -0.3785,0.37172 -0.774,4.72585 -0.879,9.67585 l -0.1909,9 3.4855,-0.27538 c 5.6743,-0.44831 5.9991,0.68052 4.6963,16.32345 -0.6303,7.56754 -0.9115,15.50719 -0.6249,17.64365 0.5317,3.96397 3.4067,9.436 4.4235,8.41921 0.3094,-0.30943 -0.064,-1.35408 -0.8299,-2.32145 -0.7659,-0.96736 0.5597,-0.1136 2.9457,1.89725 5.8095,4.8961 11.7543,6.22337 24.8747,5.55374 5.7262,-0.29225 10.5915,-0.71152 10.8117,-0.93171 0.2202,-0.22019 0.8338,-3.97974 1.3636,-8.35455 l 0.9633,-7.95421 -0.1757,8.67742 c -0.2815,13.89637 -2.1874,15.32999 -21.6758,16.30491 -4.675,0.23386 -9.9484,0.0557 -11.7186,-0.39583 z m -8.1129,-89.31805 c -0.7421,-0.74207 -0.8723,-0.35164 -0.4373,1.31171 0.3536,1.3522 0.8069,1.8055 1.0566,1.05655 0.2404,-0.72144 -0.038,-1.78716 -0.6193,-2.36826 z m -138.6685,87.9054 c -1.7728,-1.35424 -1.9859,-2.62019 -1.8763,-11.14634 0.068,-5.29022 0.6257,-14.43559 1.2392,-20.32304 0.6134,-5.88746 1.6092,-16.96306 2.2128,-24.61244 1.1388,-14.43246 1.9017,-16.59203 5.8616,-16.59203 1.9057,0 2.0386,0.44036 1.5845,5.25 -0.4371,4.62929 -1.0123,12.93349 -3.0652,44.25 -0.2884,4.4 -0.7729,10.11265 -1.0767,12.69479 l -0.5524,4.69478 13.5771,0.30522 c 10.0029,0.22486 13.7,-0.0162 14.0437,-0.91551 0.2565,-0.6714 1.4076,-14.3964 2.5578,-30.5 1.1502,-16.10361 2.2589,-29.72928 2.4637,-30.27928 1.5249,-4.09538 -0.5052,39.32028 -2.627,56.17942 -1.4277,11.34468 -1.4898,11.38496 -18.5225,12.01278 -11.4174,0.42084 -14.168,0.24378 -15.8203,-1.01835 z m -513,-19.19618 c -18.06946,-3.97983 -45.78465,-16.00905 -56.22396,-24.40288 -6.98343,-5.61509 -7.80118,-8.81787 -3.92508,-15.37272 3.12038,-5.27684 23.49557,-25.3489 34.32319,-33.81256 20.24091,-15.82176 27.94257,-20.47521 35.99377,-21.74793 3.74029,-0.59126 6.33393,-1.93587 10.8721,-5.63635 6.64894,-5.42164 16.76224,-12.12926 23.20998,-15.39396 6.49496,-3.28862 5.05661,-1.73448 -2.09748,2.26631 -10.48783,5.86513 -26.01566,17.83969 -24.34542,18.7744 0.89758,0.50232 3.73025,-0.31057 7.57901,-2.17494 3.38016,-1.63737 6.35484,-2.97704 6.6104,-2.97704 0.25556,0 2.92824,-1.57594 5.93929,-3.50208 15.10275,-9.66111 57.05402,-26.11657 73.8142,-28.95374 6.19604,-1.04887 4.23413,0.12174 -3.29734,1.96742 -10.29678,2.52336 -7.95536,2.76207 3.60073,0.3671 5.47063,-1.13378 13.99661,-2.67896 18.94661,-3.43373 l 9,-1.37232 -8,0.44917 c -4.4,0.24704 -9.8,0.6809 -12,0.96412 -3.62371,0.4665 -3.72288,0.42404 -1.05418,-0.45138 1.6202,-0.53149 9.0452,-1.71066 16.5,-2.62039 16.15826,-1.97183 34.01684,-1.43031 47.55418,1.44198 10.79213,2.28982 6.34093,2.84516 -5.16203,0.64402 -5.03742,-0.96393 -12.84025,-1.43772 -21.83797,-1.32601 l -14,0.17381 16,0.69151 c 8.8,0.38032 18.475,1.23351 21.5,1.89596 3.025,0.66246 6.85,1.32015 8.5,1.46155 3.5339,0.30284 9.5,-1.34635 9.5,-2.62604 0,-1.20227 8.00281,0.0347 16,2.47317 21.26439,6.48373 55.17729,23.88507 62.92091,32.2859 2.86035,3.10312 4.95489,4.49324 6.84969,4.54606 2.62702,0.0732 2.59811,0.12663 -0.7706,1.42392 -1.93666,0.7458 -2.70053,1.38183 -1.71016,1.42392 2.78195,0.11825 9.2886,-3.57253 11.69784,-6.63539 1.56825,-1.9937 2.07831,-3.79937 1.82464,-6.45937 -0.27614,-2.89554 -0.0781,-3.46472 0.91779,-2.63819 2.71827,2.25597 1.06128,8.43853 -4.04406,15.08913 -6.90294,8.99231 -14.25302,8.7637 -24.68605,-0.7678 -2.87474,-2.62634 -8.95723,-5.8884 -9.66321,-5.18243 -0.26254,0.26254 1.64352,1.93654 4.23567,3.71999 12.39317,8.52672 44.42754,45.02976 44.42754,50.62501 0,2.94981 -3.77701,7.33401 -7.74751,8.99299 -1.87645,0.78403 -7.85324,1.6961 -13.28176,2.02682 -11.91185,0.7257 -13.53598,-0.0384 -17.99305,-8.46503 -4.22527,-7.98839 -10.72889,-16.05258 -22.43752,-27.82153 -14.62695,-14.70229 -29.65855,-23.97935 -52.3372,-32.30099 -18.28149,-6.70815 -29.96262,-8.33901 -61.87607,-8.6388 -14.94521,-0.14039 -27.65771,-0.55475 -28.25,-0.92081 -1.65365,-1.02201 -1.28414,-3.34027 0.87686,-5.50127 2.56324,-2.56324 16.24532,-6.50518 27.54625,-7.93634 4.95,-0.62687 14.96757,-1.18422 22.26126,-1.23855 13.5477,-0.10091 17.84429,-1.10532 9.57613,-2.23859 -9.33365,-1.27932 -22.3223,-0.73409 -42.83739,1.79822 -7.02487,0.86712 -18.86338,3.79168 -31,7.65815 -7.15,2.27785 -15.12156,4.79381 -17.71457,5.59103 -5.74606,1.76663 -35.0282,16.55191 -39.53543,19.96242 -3.80847,2.88177 -4.13387,5.49628 -1,8.03483 4.01004,3.24827 7.6807,8.3396 7.10124,9.84966 -0.31087,0.81011 -0.0467,1.47292 0.58708,1.47292 0.7869,0 0.9325,1.17169 0.45914,3.69491 -0.93053,4.96012 -24.66244,53.09078 -27.86426,56.51145 -1.39326,1.48849 -2.5332,3.08754 -2.5332,3.55344 0,0.4659 1.6875,1.87335 3.75,3.12768 2.0625,1.25432 2.85,1.96672 1.75,1.5831 -1.1,-0.38362 -2.9,-0.91893 -4,-1.18957 -1.1,-0.27065 -3.6875,-0.91194 -5.75,-1.42509 -2.0625,-0.51316 -3.75,-1.39599 -3.75,-1.96185 0,-0.59398 0.89828,-0.74374 2.12523,-0.35432 1.43014,0.4539 1.90143,0.31241 1.44098,-0.43262 -0.37633,-0.60892 -1.33269,-1.10713 -2.12523,-1.10713 -0.79254,0 -1.44098,-0.27254 -1.44098,-0.60566 0,-2.32922 3.46052,-13.1469 5.51258,-17.23244 1.36808,-2.7238 2.48742,-5.3614 2.48742,-5.86135 0,-0.49994 1.35,-3.03772 3,-5.6395 4.07019,-6.41802 3.78954,-7.83099 -0.49769,-2.50566 -13.51521,16.78775 -17.98206,20.72859 -21.41371,18.89203 -2.37609,-1.27164 -3.50112,-4.78338 -2.88257,-8.99781 0.39608,-2.69869 0.26942,-2.8367 -1.63838,-1.78529 -1.13721,0.62672 -2.58569,1.22729 -3.21885,1.3346 -1.43834,0.24378 -7.3488,4.56557 -7.3488,5.37353 0,0.32798 -1.35355,1.3959 -3.0079,2.37314 -2.60964,1.54156 -3.08401,1.57846 -3.58276,0.27875 -0.3385,-0.88211 -1.22895,-1.24706 -2.16571,-0.88759 -1.19808,0.45975 -1.42629,0.18163 -0.92432,-1.12649 0.3666,-0.95532 -0.005,-3.0361 -0.82639,-4.62395 -0.8211,-1.58784 -1.52947,-4.14684 -1.57414,-5.68665 l -0.0812,-2.79966 -1.37367,3 c -1.17262,2.56089 -1.38028,2.6819 -1.41879,0.82673 -0.0542,-2.61401 2.72097,-6.02491 12.23198,-15.03384 3.94431,-3.73609 8.75805,-8.42867 10.6972,-10.42795 5.92882,-6.11269 16.25566,-14.95788 21.52572,-18.43732 4.83805,-3.19422 5.17804,-3.26788 10.49669,-2.27425 3.02317,0.56479 5.74648,1.43106 6.05178,1.92505 0.3053,0.49399 2.78179,1.34295 5.50331,1.88656 2.72152,0.54362 5.96072,1.27638 7.19822,1.62834 3.90306,1.1101 2.47123,-1.28564 -2.6526,-4.43837 -2.69643,-1.65913 -5.6891,-4.34804 -6.65038,-5.97535 -1.05106,-1.7793 -3.20759,-3.44052 -5.4099,-4.16735 -9.82996,-3.24418 -32.54041,10.31845 -57.94348,34.60369 -8.84831,8.45896 -13.05572,13.26201 -14.67056,16.74748 -2.33883,5.04813 -2.2547,6.80636 0.47892,10.00842 2.3063,2.70152 13.13674,10.92275 13.67727,10.38222 0.25133,-0.25132 -1.263,-1.64888 -3.36516,-3.10568 -2.10216,-1.4568 -5.37281,-4.29821 -7.26811,-6.31425 l -3.446,-3.66553 3.5,2.35726 c 1.925,1.29649 6.17303,4.38817 9.44007,6.8704 7.7241,5.86862 10.08681,7.07148 28.55993,14.53989 17.06367,6.89859 26.69561,9.33231 29.97932,7.57492 1.61276,-0.86313 2.02068,-0.77671 2.02068,0.42807 0,2.06717 -5.1883,4.58254 -9.20034,4.46045 -1.81483,-0.0552 -5.99968,-0.69509 -9.29968,-1.42192 z m 16.36094,-31.47767 c 4.18741,-8.15336 6.38867,-12.48879 8.50458,-16.75 0.75103,-1.5125 3.01938,-5.45 5.04077,-8.75 3.57916,-5.84314 4.55601,-11.48515 2.09371,-12.09273 -2.8969,-0.71482 -24.60567,38.66709 -25.81668,46.83408 l -0.55477,3.74134 3.44027,-2.74134 c 1.94884,-1.55292 5.11013,-5.99276 7.29212,-10.24135 z m -9.04396,-19.39161 c 3.12566,-3.79039 7.14989,-8.85289 8.94274,-11.25 1.79284,-2.39712 3.5069,-4.35839 3.80901,-4.35839 0.7647,0 -0.39674,1.83432 -4.1156,6.5 -3.379,4.2393 -11.70758,15.98028 -14.89655,21 -3.61817,5.6953 1.29984,0.60185 5.75442,-5.95971 2.25538,-3.32216 5.85102,-8.29029 7.9903,-11.04029 2.13928,-2.75 5.28327,-6.9125 6.98665,-9.25 1.70338,-2.3375 3.68543,-4.25 4.40455,-4.25 1.53943,0 1.74102,-1.61403 0.31192,-2.49727 -0.54757,-0.33842 -2.21235,0.64752 -3.69951,2.19098 -2.52849,2.62421 -2.60227,2.64329 -1.13716,0.29407 1.33468,-2.1401 1.36105,-2.70438 0.17799,-3.80952 -1.1586,-1.0823 -2.75559,0.0798 -9.63594,7.01222 -9.95437,10.02964 -19.36241,23.66964 -20.21589,29.30952 l -0.60533,4 5.12269,-5.5 c 2.81749,-3.025 7.68005,-8.60123 10.80571,-12.39161 z m -27.51873,8.64161 c 6.29446,-5.42116 32.70175,-32.51085 32.70175,-33.54681 0,-0.26429 -2.29563,-0.38769 -5.10139,-0.27423 -4.31124,0.17435 -5.95259,0.86491 -10.59692,4.45842 -3.02254,2.33866 -5.24336,4.50428 -4.93516,4.81248 0.3082,0.30821 -3.45453,4.83822 -8.36164,10.0667 -10.51491,11.20356 -14.4591,16.60741 -13.6536,18.7065 0.99712,2.59846 3.02735,1.73652 9.94696,-4.22306 z m 323.14411,-0.15674 c 0.30822,-0.49871 -0.34022,-0.67122 -1.44098,-0.38337 -2.33499,0.61061 -2.63015,1.29011 -0.5604,1.29011 0.79254,0 1.69316,-0.40803 2.00138,-0.90674 z m -6.38349,-1.08457 c 2.50738,-0.005 5.41521,-0.63486 6.46184,-1.40018 1.84346,-1.34796 1.81812,-1.49652 -0.81014,-4.75 -1.49221,-1.84718 -4.39323,-5.83351 -6.4467,-8.85851 -4.71065,-6.93934 -28.9667,-31.24728 -36.26387,-36.34145 -6.4919,-4.53201 -18.72133,-11.72756 -24.84332,-14.61731 -2.38883,-1.1276 -5.08883,-2.97075 -6,-4.0959 -0.91118,-1.12516 -3.58897,-2.47986 -5.95067,-3.01046 -4.59533,-1.03242 -13.16977,-6.11363 -11.34375,-6.7223 1.1677,-0.38923 12.07403,3.72806 18.49228,6.98109 2.11999,1.0745 3.55196,1.46407 3.18215,0.8657 -1.73918,-2.81406 -25.02133,-12.16441 -31.53669,-12.66545 l -4.5,-0.34606 4,1.36245 c 3.17763,1.08235 3.63497,1.51262 2.22448,2.09286 -1.18419,0.48714 -1.46214,1.10781 -0.83457,1.86361 0.96349,1.16036 -3.09287,1.00101 -29.22535,-1.14806 -16.68754,-1.37234 -47.69587,0.1599 -57.8611,2.85913 -4.5669,1.21268 -9.09096,2.60709 -10.05346,3.09869 -3.31544,1.69339 -1.73902,2.54843 3.0827,1.67206 6.95972,-1.26497 31.48517,-2.62357 32.6673,-1.80963 0.55,0.3787 5.05,0.98221 10,1.34113 13.54648,0.98225 25.02661,2.54651 34.68077,4.72555 9.79784,2.21146 27.16567,9.3491 36.67143,15.07082 3.49372,2.10294 6.75622,3.82353 7.25,3.82353 0.49379,0 0.8978,0.49814 0.8978,1.10699 0,0.60884 0.66059,0.8535 1.46797,0.54367 0.80739,-0.30982 1.77692,-0.0634 2.15451,0.54752 0.44465,0.71945 0.22532,0.82579 -0.62248,0.30182 -0.87268,-0.53934 -1.06781,-0.41874 -0.58541,0.3618 0.39798,0.64395 1.12047,0.92555 1.60554,0.62576 2.96957,-1.8353 34.94061,28.59184 42.44218,40.39262 l 4.69147,7.38019 5.17311,-0.62149 c 2.84521,-0.34182 7.2246,-0.62541 9.73198,-0.63019 z m -21.82942,-6.75869 c -3.75446,-5.92983 -7.84045,-10.90265 -11.69663,-14.23527 -3.652,-3.15616 -3.18742,-2.1958 1.46718,3.03284 0.825,0.92675 3.68077,4.44517 6.34616,7.81871 5.14911,6.51716 6.75094,7.91293 3.88329,3.38372 z M 243.30031,324.6819 c -0.5429,-0.54289 -11.74818,9.60457 -12.44249,11.26787 -0.22421,0.53713 2.59896,-1.66307 6.27372,-4.88933 3.67476,-3.22626 6.4507,-6.0966 6.16877,-6.37854 z m 19.46517,-1.70149 c 1.29175,-1.375 2.12363,-2.5 1.84863,-2.5 -0.275,0 -1.55688,1.125 -2.84863,2.5 -1.29175,1.375 -2.12363,2.5 -1.84863,2.5 0.275,0 1.55688,-1.125 2.84863,-2.5 z m 7.56259,-7.27075 c -0.71756,-0.71756 -2.48611,0.75575 -3.69293,3.07644 -1.08792,2.09205 -1.01845,2.08151 1.49068,-0.2263 1.44748,-1.33134 2.43849,-2.6139 2.20225,-2.85014 z m 207.43741,-17.64769 c 0,-0.78039 -7.10195,-4.81295 -7.5997,-4.31519 -0.27198,0.27198 0.98919,1.41103 2.8026,2.53122 3.27157,2.02095 4.7971,2.58827 4.7971,1.78397 z m 49.45235,-5.83156 c -0.62341,-1.60714 -19.04193,-13.5436 -27.28489,-17.68249 -17.64219,-8.85833 -39.95672,-17.15853 -45.59028,-16.95794 -2.8201,0.10041 -2.743,0.17811 0.92282,0.93009 8.48071,1.73966 38.24689,14.20587 52,21.77784 4.4,2.42248 10.67198,6.37956 13.93774,8.79351 6.56103,4.8497 6.70794,4.92638 6.01461,3.13899 z m -66.97984,-4.11358 c -3.14071,-2.17115 -19.58528,-8.43089 -23.97251,-9.1253 -2.53481,-0.4012 -0.88647,0.45674 4.5,2.34222 4.675,1.63643 10.975,4.13448 14,5.55123 5.98997,2.80537 8.59789,3.3924 5.47251,1.23185 z m -107.45886,96.61358 c 0.008,-2.6125 0.25876,-5.65 0.55833,-6.75 0.73416,-2.69579 12.39016,-9.55111 17.37687,-10.21996 2.20542,-0.29581 3.76562,-0.93301 3.46712,-1.416 -0.71797,-1.16171 1.87717,-2.10554 4.65536,-1.69312 2.1436,0.31822 2.1105,0.44253 -1.00288,3.76577 -2.63256,2.81001 -3.40016,3.17471 -4.20956,2 -0.7642,-1.10911 -0.86617,-0.98068 -0.44723,0.56331 0.29848,1.1 0.21546,2.45 -0.18449,3 -0.89729,1.23395 -3.58177,1.88278 -2.8428,0.68709 0.29317,-0.47435 -1.26352,-0.93286 -3.45931,-1.01889 -3.01207,-0.11803 -4.12477,0.27181 -4.5317,1.58768 -0.29665,0.95927 -0.96032,2.53162 -1.47483,3.49412 -0.6985,1.30669 -0.55335,1.75 0.573,1.75 0.82966,0 1.50847,-0.49814 1.50847,-1.10699 0,-0.60884 0.675,-0.84797 1.5,-0.53138 0.825,0.31658 1.50689,0.0272 1.51531,-0.64301 0.01,-0.77072 0.37161,-0.6673 0.98469,0.28138 0.53316,0.825 0.97627,1.07649 0.98469,0.55887 0.008,-0.51762 0.65596,-0.0676 1.43898,1 1.23637,1.68576 1.22669,2.15952 -0.0736,3.60119 -3.41619,3.78765 -11.04638,2.81346 -8.16717,-1.04274 0.71239,-0.95413 0.40991,-0.85056 -0.73767,0.25258 -1.38102,1.32754 -1.58267,2.00431 -0.69523,2.33333 1.9541,0.72448 1.47996,1.87097 -1.29705,3.13625 -4.6395,2.1139 -5.45415,1.5763 -5.4393,-3.58948 z m 3.32955,0.57412 c 1.36408,-1.27424 0.99266,-6.82412 -0.4567,-6.82412 -0.48757,0 -0.8865,1.0882 -0.8865,2.41821 0,1.33002 -0.27314,3.13002 -0.60699,4 -0.71702,1.86852 0.18376,2.056 1.95019,0.40591 z m 361.02944,2.08888 c -2.04894,-0.59399 -3.54336,-1.91094 -4.33374,-3.81908 -2.3805,-5.74704 1.92667,-8.79059 12.9611,-9.15863 8.7019,-0.29024 8.3138,-0.55298 7.7561,5.25114 -0.3624,3.77202 -1.1091,5.68102 -2.738,7 -2.42741,1.9656 -8.29398,2.27797 -13.64546,0.72657 z m 426.12738,-0.10795 c -2.8046,-1.5904 -3.4671,-2.83175 -3.4847,-6.52937 -0.022,-4.55834 3.6859,-6.27568 13.5486,-6.27568 h 7.6632 l -0.694,4.62785 c -0.9703,6.47051 -1.1961,6.84852 -4.8888,8.18382 -4.1046,1.48424 -9.5204,1.4813 -12.1443,-0.007 z m -204.75002,-1.46733 c 0.6875,-0.27741 1.8125,-0.27741 2.5,0 0.6875,0.27741 0.125,0.50439 -1.25,0.50439 -1.375,0 -1.9375,-0.22698 -1.25,-0.50439 z m -9.7564,-3.35311 c -1.1937,-2.88201 -1.036,-8.28575 0.6418,-21.98461 l 0.5511,-4.5 8.9592,0.32232 8.9591,0.32232 -2.0059,3.17768 c -2.0645,3.27038 -4.7111,4.34651 -11.213,4.55937 -3.5185,0.11518 -3.6309,0.24091 -4.25,4.75788 -0.9294,6.78113 -0.7788,12.22496 0.3993,14.42617 0.5777,1.07946 0.6313,1.93426 0.1213,1.93426 -0.5026,0 -1.4759,-1.35692 -2.1629,-3.01539 z M 626.4277,378.86636 c -5.96077,-1.94905 -10.59766,-3.78384 -10.30419,-4.07731 0.29346,-0.29347 2.66313,0.19203 5.26591,1.07889 5.5241,1.88225 6.37606,1.96409 6.37606,0.61247 0,-0.55 -0.5625,-1.0022 -1.25,-1.00488 -2.17778,-0.009 -15.13286,-7.0436 -18.09158,-9.82441 -8.5078,-7.9962 -10.36772,-22.1731 -4.41738,-33.67071 2.54108,-4.91004 13.24536,-14.38292 19.25663,-17.04139 8.39983,-3.7148 9.00662,-2.91392 0.81289,1.07291 -8.06353,3.92349 -12.43992,8.46506 -14.78266,15.34061 -5.61756,16.48664 3.38194,27.39481 28.92948,35.06506 12.59611,3.78179 15.95674,5.78914 16.34881,9.76538 0.72991,7.40249 -10.4512,8.46855 -28.14397,2.68338 z m -17.74297,-50.88595 c 0.0372,-0.55 -0.8265,0.35 -1.91925,2 -1.09275,1.65 -1.95641,3.9 -1.91925,5 0.0457,1.35159 0.6679,0.70317 1.91925,-2 1.01842,-2.2 1.88208,-4.45 1.91925,-5 z m -169.91925,52.11803 c 0,-0.825 0.45,-1.77811 1,-2.11803 0.55,-0.33992 1,0.057 1,0.88197 0,0.825 -0.45,1.77811 -1,2.11803 -0.55,0.33992 -1,-0.057 -1,-0.88197 z m -190.5,-0.61803 c -1.63041,-0.70061 -1.68751,-0.87242 -0.30902,-0.92971 0.93004,-0.0387 1.9691,0.37971 2.30902,0.92971 0.71066,1.14988 0.67591,1.14988 -2,0 z m 705.8544,-0.69205 c -3.4282,-0.67057 -5.297,-3.54981 -5.4263,-8.36035 -0.1928,-7.16874 0.7542,-10.27278 4.0266,-13.1976 3.0654,-2.73973 3.1326,-2.75 18.0021,-2.75 8.2088,0 15.1347,0.3375 15.3907,0.75 0.256,0.4125 -6.4011,0.61615 -14.7936,0.45257 l -15.2591,-0.29744 -0.6474,6.19413 c -1.2075,11.55333 -2.8183,10.42429 14.6025,10.23529 l 15.2501,-0.16546 0.6764,-6.67758 c 0.9954,-9.82717 1.9089,-9.21039 1.3754,0.92866 -0.4129,7.84793 -0.7334,9.01875 -3.058,11.1732 -2.4788,2.29719 -3.1743,2.40044 -15.2953,2.27045 -6.9842,-0.0749 -13.664,-0.32504 -14.8441,-0.55587 z m -712.74525,-1.13135 c -0.27989,-0.45286 -2.33145,-1.42489 -4.55902,-2.16006 -2.22757,-0.73516 -4.05013,-1.71463 -4.05013,-2.1766 0,-1.30171 1.07556,-0.96981 7,2.16006 3.025,1.5981 4.73906,2.92687 3.80902,2.95282 -0.93004,0.026 -1.91999,-0.32335 -2.19987,-0.77622 z m -13.35915,-6.39709 c -1.2375,-0.59683 -2.25,-1.47793 -2.25,-1.958 0,-0.48008 1.35,-0.17476 3,0.67849 4.52245,2.33865 3.84445,3.49533 -0.75,1.27951 z m 825.75002,-8.15647 c 0,-0.75733 -1.318,-4.69483 -2.9288,-8.75 -4.2743,-10.76025 -11.0776,-29.13984 -11.0314,-29.80219 0.089,-1.27172 3.7574,7.03069 7.3807,16.70329 2.1167,5.65078 4.1403,10.45441 4.4968,10.67473 0.3565,0.22032 3.3048,-5.30305 6.5519,-12.27414 6.0879,-13.07029 10.4164,-19.98382 15.0079,-23.97087 2.2714,-1.97242 3.5169,-2.24631 8.8336,-1.94268 l 6.1893,0.35346 -6.0917,0.19268 -6.0917,0.19268 -1.2274,4.09674 c -0.6751,2.25321 -3.7018,9.56571 -6.7261,16.25 -3.0242,6.68429 -6.0956,13.50326 -6.8253,15.15326 -0.7297,1.65 -2.2742,5.11281 -3.4323,7.69514 -1.158,2.58232 -2.1055,5.16982 -2.1055,5.75 0,0.58017 -0.45,1.05486 -1,1.05486 -0.55,0 -1,-0.61963 -1,-1.37696 z m 19.9646,-46.06417 c 0.019,-0.51762 -0.6253,-0.0676 -1.4328,1 -0.8075,1.06762 -1.4666,2.61613 -1.4646,3.44113 0,1.57426 2.8342,-2.76424 2.8974,-4.44113 z m -125.21762,30.94113 c 0.2927,-3.85 0.6944,-7.1875 0.8926,-7.41667 0.6958,-0.80435 0.1524,9.44399 -0.6318,11.91667 -0.4609,1.45304 -0.5701,-0.43148 -0.2608,-4.5 z m 272.25302,-4.2 c 0,-2.51417 0.3268,-3.37321 1.0196,-2.68037 0.6929,0.69285 2.8562,0.12314 6.75,-1.77759 3.1517,-1.53847 6.6304,-2.77178 7.7304,-2.74069 1.1011,0.0311 0.086,0.73401 -2.2586,1.56379 -2.3422,0.82899 -6.1473,3.26846 -8.4557,5.42105 -2.3085,2.1526 -4.3296,3.91381 -4.4915,3.91381 -0.1618,0 -0.2942,-1.665 -0.2942,-3.7 z m -466.50002,-0.96952 c -2.2,-1.97244 -3.1,-3.12003 -2,-2.55019 1.8535,0.96015 7.3765,6.27149 6.4243,6.17808 -0.2334,-0.0229 -2.2243,-1.65544 -4.4243,-3.62789 z m 86.5,-0.041 c 0,-2.9019 -0.538,-4.53065 -1.75,-5.29782 -1.0146,-0.64226 -1.1497,-0.95328 -0.3214,-0.74017 1.1369,0.29252 2.8092,2.348 3.683,4.52677 0.061,0.15304 2.5364,-0.9422 5.5,-2.43388 3.4896,-1.75641 7.3265,-2.80599 10.8884,-2.97848 l 5.5,-0.26635 -5.8425,0.92582 c -6.2211,0.98582 -11.3053,3.6036 -15.2398,7.84688 l -2.4177,2.60731 z m -139.5,-5.81228 c 2.75,-0.70686 6.35,-1.28432 8,-1.28323 1.65,0.001 0.075,0.60514 -3.5,1.34234 -8.18287,1.68739 -11.14334,1.64851 -4.5,-0.0591 z m 42,0.5228 c -1.3187,-0.56668 -1.4891,-0.87815 -0.5,-0.9144 0.825,-0.0302 2.175,0.38124 3,0.9144 1.828,1.18132 0.2491,1.18132 -2.5,0 z m 32.5,-0.30226 c 0,-0.51354 -1.35,-2.47128 -3,-4.35052 -2.598,-2.95892 -3,-4.1964 -3,-9.23413 0,-4.3881 0.5564,-6.643 2.2648,-9.17805 2.6986,-4.0044 9.98,-9.35346 11.8733,-8.72235 0.8239,0.27464 0.1935,0.99853 -1.6312,1.87308 -1.6357,0.78399 -4.0291,3.33806 -5.3186,5.67571 -2.8742,5.21023 -2.3396,8.76387 1.9325,12.84798 2.7275,2.60745 3.6392,2.87576 9.3094,2.73964 9.4185,-0.22612 14.4152,-3.44601 17.121,-11.0329 l 1.361,-3.8162 0.044,3.29966 c 0.05,3.72595 -1.904,8.01236 -6.0663,13.31044 -1.56,1.98556 -2.5589,3.88747 -2.2199,4.22647 0.339,0.33899 -0.2355,0.95209 -1.2768,1.36245 -1.6018,0.6313 -1.4316,0.83327 1.1069,1.31274 1.65,0.31166 -2.7375,0.57859 -9.75,0.59317 -7.2488,0.0151 -12.75,-0.37635 -12.75,-0.90719 z m 157.8125,0.61915 c 0.7219,-0.28887 1.5844,-0.25335 1.9167,0.0789 0.3323,0.33229 -0.2584,0.56864 -1.3125,0.52522 -1.165,-0.048 -1.4019,-0.28494 -0.6042,-0.60416 z m 6.4513,-0.0345 c 1.52,-0.22986 3.77,-0.22371 5,0.0136 1.2299,0.23736 -0.014,0.42542 -2.7638,0.41792 -2.75,-0.008 -3.7563,-0.20172 -2.2362,-0.43157 z m 190.54872,0.0345 c 0.7219,-0.28887 1.5844,-0.25335 1.9167,0.0789 0.3323,0.33229 -0.2584,0.56864 -1.3125,0.52522 -1.165,-0.048 -1.4019,-0.28494 -0.6042,-0.60416 z m -308.56252,-1.05193 c 2.6125,-0.206 6.8875,-0.206 9.5,0 2.6125,0.206 0.475,0.37454 -4.75,0.37454 -5.225,0 -7.3625,-0.16854 -4.75,-0.37454 z m -83.4375,-0.94807 c 0.7219,-0.28887 1.5844,-0.25335 1.9167,0.0789 0.3323,0.33229 -0.2584,0.56864 -1.3125,0.52522 -1.165,-0.048 -1.4019,-0.28494 -0.6042,-0.60416 z m 193.5346,-6.95867 c 0.084,-4.47798 0.4904,-7.93892 0.9029,-7.69098 0.9737,0.58527 0.8641,6.74734 -0.2105,11.83276 -0.6926,3.27744 -0.8176,2.52926 -0.6924,-4.14178 z m 210.91662,6.9242 c 1.5201,-0.22986 3.7701,-0.22371 5,0.0136 1.23,0.23736 -0.014,0.42542 -2.7637,0.41792 -2.75,-0.008 -3.7563,-0.20172 -2.2363,-0.43157 z m 12.4863,0.0118 c 1.2375,-0.23836 3.2625,-0.23836 4.5,0 1.2375,0.23835 0.225,0.43337 -2.25,0.43337 -2.475,0 -3.4875,-0.19502 -2.25,-0.43337 z m 85,0 c 1.2375,-0.23836 3.2625,-0.23836 4.5,0 1.2375,0.23835 0.225,0.43337 -2.25,0.43337 -2.475,0 -3.4875,-0.19502 -2.25,-0.43337 z m -521.48627,-1.01185 c 1.52006,-0.22986 3.77006,-0.22371 5,0.0136 1.22994,0.23736 -0.0137,0.42542 -2.76375,0.41792 -2.75,-0.008 -3.75631,-0.20172 -2.23625,-0.43157 z m 11.98625,0.0283 c 0.9625,-0.25152 2.5375,-0.25152 3.5,0 0.9625,0.25153 0.175,0.45733 -1.75,0.45733 -1.925,0 -2.7125,-0.2058 -1.75,-0.45733 z m -263.25,-13.31067 c -0.825,-0.53316 -1.05,-0.96937 -0.5,-0.96937 0.55,0 1.675,0.43621 2.5,0.96937 0.825,0.53316 1.05,0.96937 0.5,0.96937 -0.55,0 -1.675,-0.43621 -2.5,-0.96937 z m -4.1875,-1.68311 c 0.72187,-0.28887 1.58438,-0.25335 1.91667,0.0789 0.33229,0.33229 -0.25834,0.56864 -1.3125,0.52522 -1.16495,-0.048 -1.4019,-0.28494 -0.60417,-0.60416 z m 459.9375,-0.0226 c 1.2375,-0.23836 3.2625,-0.23836 4.5,0 1.2375,0.23835 0.225,0.43337 -2.25,0.43337 -2.475,0 -3.4875,-0.19502 -2.25,-0.43337 z M 440.4535,318.74827 c -4.18044,-0.43423 -4.49558,-2.03083 -0.77059,-3.90415 1.24271,-0.62498 1.824,-1.40546 1.29173,-1.73442 -0.9519,-0.58833 -2.38455,-4.62929 -1.64122,-4.62929 1.03805,0 3.34029,6.07557 2.81799,7.43665 -0.48404,1.26141 0.19331,1.56335 3.50708,1.56335 2.25885,0 4.10699,0.45 4.10699,1 0,0.98773 -1.86498,1.04137 -9.31198,0.26784 z m 17.58101,0.0392 c 0.97297,-0.25354 2.32297,-0.23687 3,0.0371 0.67703,0.27393 -0.11903,0.48137 -1.76903,0.46099 -1.65,-0.0204 -2.20394,-0.2445 -1.23097,-0.49804 z m 564.48099,-5.01279 c 1.2375,-0.23836 3.2625,-0.23836 4.5,0 1.2375,0.23835 0.225,0.43337 -2.25,0.43337 -2.475,0 -3.4875,-0.19502 -2.25,-0.43337 z m 67.519,0.0127 c 0.973,-0.25354 2.323,-0.23687 3,0.0371 0.6771,0.27393 -0.119,0.48137 -1.769,0.46099 -1.65,-0.0204 -2.2039,-0.2445 -1.231,-0.49804 z m -456.26902,-2.30697 c 1.375,-0.44035 3.625,-0.79225 5,-0.78201 2.2456,0.0167 2.19472,0.0963 -0.5,0.78201 -1.65,0.41985 -3.9,0.77176 -5,0.78201 -1.5672,0.0146 -1.45899,-0.15463 0.5,-0.78201 z m 170.0734,-0.86285 c -0.5483,-1.02457 -2.3786,-2.43514 -4.0672,-3.1346 -1.6887,-0.69947 -2.8727,-1.46936 -2.6312,-1.71089 0.8245,-0.82452 6.5631,2.7242 7.6305,4.71869 0.5857,1.09431 0.8399,1.98965 0.5649,1.98965 -0.275,0 -0.9487,-0.83828 -1.497,-1.86285 z m -143.2609,0.17974 c 0.72187,-0.28887 1.58438,-0.25335 1.91667,0.0789 0.33229,0.33229 -0.25834,0.56864 -1.3125,0.52522 -1.16495,-0.048 -1.4019,-0.28494 -0.60417,-0.60416 z m -14.0848,-1.03862 c 1.77523,-0.22091 4.92523,-0.22454 7,-0.008 2.07476,0.21648 0.6223,0.39722 -3.2277,0.40166 -3.85,0.004 -5.54754,-0.17268 -3.7723,-0.39359 z M 431.63792,299.73041 c -1.24387,-1.58606 -1.2085,-1.62143 0.37756,-0.37756 1.66575,1.30637 2.19548,2.12756 1.37244,2.12756 -0.20765,0 -0.99515,-0.7875 -1.75,-1.75 z M 303.20661,271.03558 c 1.06762,-0.85535 2.38012,-1.55517 2.91667,-1.55517 1.27054,0 0.70323,0.4619 -2.3578,1.91971 -2.35727,1.12265 -2.38918,1.10183 -0.55887,-0.36454 z m 7.55887,-3.55517 c 0.825,-0.53316 1.95,-0.96937 2.5,-0.96937 0.55,0 0.325,0.43621 -0.5,0.96937 -0.825,0.53316 -1.95,0.96937 -2.5,0.96937 -0.55,0 -0.325,-0.43621 0.5,-0.96937 z m 5,-2 c 0.825,-0.53316 1.95,-0.96937 2.5,-0.96937 0.55,0 0.325,0.43621 -0.5,0.96937 -0.825,0.53316 -1.95,0.96937 -2.5,0.96937 -0.55,0 -0.325,-0.43621 0.5,-0.96937 z m 11,-4.4154 c 1.375,-0.73443 3.625,-1.61541 5,-1.95773 1.375,-0.34232 0.7,0.24322 -1.5,1.3012 -4.52542,2.17628 -7.33032,2.70242 -3.5,0.65653 z m 14.44479,-5.15903 c 3.81963,-1.33407 7.41963,-2.39207 8,-2.35114 0.58036,0.0409 -2.06994,1.16594 -5.88958,2.5 -3.81963,1.33407 -7.41963,2.39207 -8,2.35114 -0.58036,-0.0409 2.06994,-1.16594 5.88958,-2.5 z m 10.36771,-3.10868 c 0.72187,-0.28887 1.58438,-0.25335 1.91667,0.0789 0.33229,0.33229 -0.25834,0.56864 -1.3125,0.52522 -1.16495,-0.048 -1.4019,-0.28494 -0.60417,-0.60416 z m 4,-1 c 0.72187,-0.28887 1.58438,-0.25335 1.91667,0.0789 0.33229,0.33229 -0.25834,0.56864 -1.3125,0.52522 -1.16495,-0.048 -1.4019,-0.28494 -0.60417,-0.60416 z m 9,-2 c 0.72187,-0.28887 1.58438,-0.25335 1.91667,0.0789 0.33229,0.33229 -0.25834,0.56864 -1.3125,0.52522 -1.16495,-0.048 -1.4019,-0.28494 -0.60417,-0.60416 z m 78.21791,-0.0669 c -0.0387,-1.59034 3.58061,-5.25 5.1921,-5.25 0.67237,0 0.23566,0.69121 -0.97047,1.53602 -1.20614,0.84481 -2.64258,2.30731 -3.1921,3.25 -0.56753,0.97359 -1.01226,1.17402 -1.02953,0.46398 z m -72.21791,-0.93311 c 0.72187,-0.28887 1.58438,-0.25335 1.91667,0.0789 0.33229,0.33229 -0.25834,0.56864 -1.3125,0.52522 -1.16495,-0.048 -1.4019,-0.28494 -0.60417,-0.60416 z m 5,-1 c 0.72187,-0.28887 1.58438,-0.25335 1.91667,0.0789 0.33229,0.33229 -0.25834,0.56864 -1.3125,0.52522 -1.16495,-0.048 -1.4019,-0.28494 -0.60417,-0.60416 z m 74.79381,-3.73333 c 0.33422,-0.87095 1.04702,-1.58355 1.58401,-1.58355 1.31439,0 0.49134,2.27278 -1.0035,2.77106 -0.73075,0.24358 -0.95424,-0.21359 -0.58051,-1.1875 z"
       id="path1" />
  </g>
</svg>
