<?xml version="1.0" encoding="UTF-8" standalone="no"?>
<!-- Created with Inkscape (http://www.inkscape.org/) -->

<svg
   width="210mm"
   height="297mm"
   viewBox="0 0 210 297"
   version="1.1"
   id="svg1"
   xml:space="preserve"
   inkscape:version="1.4.2 (ebf0e940d0, 2025-05-08)"
   sodipodi:docname="PLAIN_1.svg"
   xmlns:inkscape="http://www.inkscape.org/namespaces/inkscape"
   xmlns:sodipodi="http://sodipodi.sourceforge.net/DTD/sodipodi-0.dtd"
   xmlns="http://www.w3.org/2000/svg"
   xmlns:svg="http://www.w3.org/2000/svg"><sodipodi:namedview
     id="namedview1"
     pagecolor="#505050"
     bordercolor="#eeeeee"
     borderopacity="1"
     inkscape:showpageshadow="0"
     inkscape:pageopacity="0"
     inkscape:pagecheckerboard="0"
     inkscape:deskcolor="#505050"
     inkscape:document-units="mm"
     inkscape:zoom="0.5229307"
     inkscape:cx="396.8021"
     inkscape:cy="561.25984"
     inkscape:window-width="1470"
     inkscape:window-height="795"
     inkscape:window-x="0"
     inkscape:window-y="0"
     inkscape:window-maximized="1"
     inkscape:current-layer="layer1" /><defs
     id="defs1" /><g
     inkscape:label="Layer 1"
     inkscape:groupmode="layer"
     id="layer1"><path
       style="fill:#000000;stroke-width:0.755338"
       d="m 29.660969,173.95215 c -4.264198,-0.39972 -9.165781,-2.09678 -13.813759,-4.7827 -1.64525,-0.95075 -4.377443,-3.04425 -4.969014,-3.80746 -0.33742,-0.4353 -0.298706,-1.49257 0.07739,-2.11348 0.346641,-0.57228 1.705129,-1.41713 1.981548,-1.23232 0.09476,0.0633 0.226596,0.0201 0.292976,-0.0961 0.06638,-0.11619 0.353377,-0.20758 0.63777,-0.20311 l 0.517075,0.008 -0.599681,0.28233 c -0.574522,0.27048 -1.618268,1.51026 -1.602519,1.9035 0.0089,0.2223 2.222797,2.10508 3.566353,3.03299 1.719538,1.18757 5.905881,3.26622 8.253919,4.09833 3.024103,1.07171 5.961244,1.67676 8.8867,1.83068 2.305333,0.12129 2.366768,0.11325 2.472338,-0.32345 0.05954,-0.2463 0.139659,-0.44782 0.178037,-0.44782 0.279623,0 1.614762,0.70611 1.614762,0.85399 0,0.29342 0.835422,0.21547 1.277062,-0.11916 0.220999,-0.16744 0.456155,-0.24566 0.52257,-0.17382 0.06642,0.0719 1.699049,0.11516 3.628075,0.0962 5.297655,-0.0519 8.939622,-0.81837 14.027595,-2.9521 1.136093,-0.47644 2.065625,-0.93836 2.065625,-1.02651 0,-0.0881 0.261172,-0.21675 0.58039,-0.28581 0.414611,-0.0897 0.877887,0.0323 1.621979,0.42703 0.986474,0.52335 1.085416,0.53732 1.869539,0.2639 1.339303,-0.467 5.990163,-3.0761 8.994372,-5.04577 3.362043,-2.20428 5.702136,-3.99204 7.482841,-5.71666 1.336581,-1.29448 2.003691,-1.7343 1.163953,-0.76738 -0.248207,0.2858 -0.362713,0.51964 -0.25446,0.51964 0.245694,0 1.934995,-2.0872 2.761486,-3.41192 1.278256,-2.04882 1.628863,-4.65494 0.823397,-6.1204 l -0.301608,-0.54873 0.397457,0.51964 c 0.826753,1.0809 0.764993,3.46883 -0.143062,5.53148 -0.710887,1.61479 -2.773992,4.15501 -4.916489,6.05346 -1.530537,1.35618 -7.572067,5.87502 -7.854712,5.87502 -0.0597,0 -0.781115,0.43097 -1.603197,0.95771 -3.530909,2.26238 -7.274033,4.03085 -8.531612,4.03085 -0.430102,0 -1.022627,-0.15376 -1.316725,-0.34169 -0.512842,-0.3277 -0.592708,-0.31585 -1.951159,0.28954 -3.43724,1.53179 -8.099645,2.61688 -12.657272,2.94575 -3.295111,0.23777 -12.627449,0.23539 -15.179939,-0.004 z m -17.681758,-9.65009 c -0.133683,-0.17425 -0.293086,-0.26269 -0.354228,-0.19655 -0.06115,0.0661 0.01603,0.20726 0.171495,0.31362 0.406779,0.27828 0.459929,0.24423 0.182733,-0.11707 z m 0.281592,-1.45124 c 0.77559,-0.74297 0.790922,-0.90748 0.04589,-0.4924 -0.629577,0.35075 -1.284388,1.04896 -1.284388,1.36952 0,0.31199 -0.01086,0.31968 1.238494,-0.87712 z m 27.007722,8.61273 c -0.775753,-0.0736 -1.664812,-0.33395 -2.346473,-0.68711 -0.863709,-0.44749 -1.178237,-0.52187 -1.47654,-0.34917 -0.208476,0.12069 -0.708987,0.21868 -1.112246,0.21775 -0.925778,-0.002 -6.115912,-1.15891 -6.554401,-1.46084 -0.406437,-0.27987 -0.215732,-0.24567 2.840738,0.50945 2.694937,0.6658 4.229446,0.88075 4.229446,0.59243 0,-0.11552 -0.410723,-0.26441 -0.912717,-0.33088 -0.501996,-0.0665 -1.345058,-0.22467 -1.873474,-0.35155 -0.528416,-0.12688 -1.176926,-0.27473 -1.441133,-0.32855 -1.425891,-0.29048 -5.575979,-1.95448 -7.570068,-3.03526 -2.390883,-1.29585 -5.817295,-3.51876 -7.129495,-4.62532 -0.422732,-0.35648 -1.019823,-0.82013 -1.32687,-1.03034 -0.73314,-0.5019 -1.378327,-1.28848 -1.858568,-2.26586 -0.30578,-0.62231 -0.361237,-0.99499 -0.258423,-1.73664 0.11637,-0.83945 0.208161,-0.97794 0.826628,-1.24724 0.382648,-0.16662 0.968194,-0.4374 1.301215,-0.60174 0.333021,-0.16434 0.765362,-0.29286 0.960756,-0.28562 0.286874,0.0106 0.269076,0.0505 -0.09246,0.20731 -0.377096,0.16352 -0.427729,0.29259 -0.320996,0.81825 0.141249,0.69568 0.06391,0.76737 -0.347574,0.32225 -0.218849,-0.23673 -0.429105,-0.25705 -0.974481,-0.0942 -0.793571,0.23702 -0.892272,0.50854 -0.263081,0.72372 0.237786,0.0813 1.037616,0.78192 1.777397,1.55687 3.026366,3.17027 7.022576,5.75708 11.50801,7.44934 2.54448,0.95997 3.221794,1.04143 0.986389,0.11862 -0.790418,-0.3263 -1.394825,-0.63902 -1.343128,-0.69495 0.0517,-0.0559 0.521692,-0.0806 1.044429,-0.0548 0.575028,0.0284 1.185551,-0.0846 1.545699,-0.28608 0.538541,-0.30125 0.736157,-0.30339 2.073736,-0.0225 2.937364,0.6169 4.609493,0.84675 8.361217,1.14938 1.354801,0.10928 2.578043,0.30173 2.718317,0.42766 0.322763,0.28976 0.161571,1.00183 -0.254446,1.12401 -1.628234,0.47818 -2.600887,0.58916 -4.284366,0.48881 -1.040468,-0.0621 -1.891761,-0.0427 -1.891761,0.0431 0,0.26088 5.29651,0.40368 8.358574,0.22537 4.097944,-0.23864 6.460177,-0.82951 10.568313,-2.64347 2.108529,-0.93103 4.864395,-2.43073 5.956682,-3.24155 3.444719,-2.55703 6.033665,-5.20761 8.251014,-8.44742 2.56453,-3.74707 3.546473,-5.85435 4.268399,-9.16014 l 0.24966,-1.14322 -0.0975,1.26447 c -0.0804,1.04263 -0.0459,1.26446 0.196644,1.26446 0.28486,0 0.392846,-0.43036 0.319647,-1.27384 -0.01946,-0.22427 0.01308,-0.54441 0.07233,-0.71143 0.08576,-0.24177 0.165946,-0.21374 0.393376,0.13751 0.201771,0.3116 0.439629,0.41849 0.809939,0.36394 0.288354,-0.0425 0.913386,-0.13538 1.388964,-0.20647 0.835816,-0.12494 0.846013,-0.12002 0.305494,0.14737 -0.519575,0.25703 -0.875259,0.98863 -0.480641,0.98863 0.09633,0 0.175147,-0.1403 0.175147,-0.31178 0,-0.17148 0.129699,-0.31179 0.288223,-0.31179 0.158525,0 0.285478,0.0702 0.282115,0.1559 -0.01932,0.49182 -1.538852,1.8297 -1.719352,1.51377 -0.212992,-0.37279 -1.113159,0.25523 -1.327277,0.92601 l -0.199862,0.6261 0.104361,-0.67553 c 0.147282,-0.95335 -0.06246,-0.84043 -0.313714,0.16889 -0.11561,0.46444 -0.255702,1.00227 -0.311317,1.19518 -0.07945,0.27556 -0.03174,0.26163 0.222665,-0.065 0.317636,-0.40781 0.321136,-0.40583 0.18432,0.10393 -0.07671,0.28581 -0.225934,0.63656 -0.331623,0.77946 -0.138415,0.18715 -0.102291,0.25982 0.129132,0.25982 0.55373,0 1.437892,-0.6055 2.90444,-1.98907 0.861132,-0.8124 1.589536,-1.33613 1.857215,-1.33535 0.533677,0.002 1.536913,0.54278 1.742418,0.94002 0.08211,0.15871 0.262296,0.24166 0.400412,0.18433 0.138116,-0.0573 0.25112,0.0273 0.25112,0.18797 0,0.18103 -0.13405,0.2543 -0.352278,0.19256 -0.459463,-0.12997 -0.450065,0.20439 0.01866,0.66323 0.362533,0.35491 0.338872,0.41124 -1.047326,2.49308 -1.549056,2.32645 -4.151212,5.13747 -6.423045,6.93863 -0.798204,0.63282 -1.926847,1.5832 -2.508101,2.11196 -1.410881,1.28344 -7.419541,5.75948 -8.646801,6.44128 -0.576599,0.32033 3.235969,-3.63725 5.024583,-5.21569 3.376103,-2.97938 10.15168,-9.59905 10.157802,-9.92405 0.0014,-0.0715 0.541775,-0.75282 1.200948,-1.51406 0.659172,-0.76126 1.295722,-1.66364 1.414556,-2.00529 0.213835,-0.61479 0.209375,-0.621 -0.432337,-0.60132 -0.356629,0.0109 -0.648403,0.0835 -0.648403,0.16132 0,0.0778 -0.250349,0.25363 -0.556329,0.39072 -0.305987,0.13711 -0.808756,0.59275 -1.117278,1.01254 -1.717282,2.33667 -2.573426,3.61041 -2.338661,3.47941 0.145923,-0.0814 -0.03733,0.16271 -0.40721,0.54254 -0.369889,0.37982 -0.971609,1.01797 -1.337147,1.4181 -0.365532,0.40012 -0.498071,0.49365 -0.294526,0.20785 0.20355,-0.2858 -0.120274,-0.0127 -0.719604,0.60699 -0.599329,0.61965 -1.036591,1.22762 -0.971687,1.35106 0.06493,0.12344 0.05032,0.15841 -0.03246,0.0777 -0.08275,-0.0807 -0.98938,0.66758 -2.014737,1.66285 -3.08207,2.99164 -8.978061,8.19964 -9.606382,8.48541 -0.610362,0.27762 -0.854009,0.85811 -0.255971,0.60987 0.535646,-0.22235 -0.385881,0.7518 -1.136901,1.20181 l -0.635979,0.38109 0.480377,-0.45239 c 0.532367,-0.50137 0.652736,-0.52951 -1.537208,0.35942 -1.613053,0.65475 -6.765572,2.03843 -8.742877,2.34785 -2.080987,0.32564 -6.442671,0.54333 -7.974273,0.39801 z m 6.244912,-0.5985 c 5.966459,-0.61528 10.125467,-1.9211 11.991884,-3.76514 0.34308,-0.33897 0.871004,-0.7546 1.173164,-0.92362 0.302167,-0.16903 0.606766,-0.40776 0.676892,-0.53049 0.300468,-0.5259 -0.177689,-0.39668 -1.552625,0.41961 -2.338148,1.38814 -6.803173,3.00819 -10.079577,3.6572 -0.792623,0.15701 -3.402819,0.40088 -5.800433,0.54195 -2.397616,0.14107 -4.312681,0.33808 -4.255701,0.43781 0.38097,0.6668 2.52651,0.71129 7.846396,0.16268 z M 30.185381,166.364 c -0.06385,-0.0691 -0.229581,-0.0764 -0.368289,-0.0164 -0.153286,0.0664 -0.107754,0.11561 0.116091,0.12558 0.202559,0.009 0.316049,-0.0401 0.252198,-0.10917 z m 41.250317,-12.84854 c 0.379868,-0.44797 0.690669,-0.99133 0.690669,-1.20745 0,-0.21611 0.07664,-0.3417 0.170304,-0.27908 0.162119,0.10838 0.466333,-0.71707 0.32187,-0.87335 -0.03798,-0.0411 -0.402032,0.31862 -0.809025,0.79932 -0.406985,0.48071 -0.829221,0.97791 -0.938295,1.10489 -0.52797,0.61467 -2.97158,4.24567 -2.967346,4.40922 0.0043,0.16358 0.721077,-0.63886 3.531823,-3.95355 z m 5.461765,-0.0176 c -0.05904,-0.0639 -0.259246,0.14395 -0.44483,0.4619 l -0.337418,0.57809 0.44483,-0.4619 c 0.244655,-0.25404 0.39649,-0.51419 0.337418,-0.57809 z m -2.30935,-8.15766 c 0.114608,-0.37155 0.132241,-0.67554 0.03915,-0.67554 -0.156178,0 -0.242587,0.22444 -0.52017,1.35107 -0.164319,0.66692 0.243624,0.094 0.480996,-0.67553 z m 1.285205,0.15589 c 0.06529,-0.11432 0.03232,-0.20786 -0.0734,-0.20786 -0.105683,0 -0.245585,0.0935 -0.310903,0.20786 -0.06529,0.11432 -0.03232,0.20785 0.07339,0.20785 0.105684,0 0.245593,-0.0935 0.310913,-0.20785 z m -24.535299,25.00867 c 0.138708,-0.06 0.304439,-0.0526 0.368289,0.0164 0.06385,0.0691 -0.04964,0.11819 -0.252198,0.10917 -0.223845,-0.01 -0.269377,-0.0592 -0.116091,-0.12558 z m -25.520073,-2.04051 c -0.369891,-0.15409 -0.828699,-0.28727 -1.019575,-0.29597 -0.3564,-0.0163 -3.704801,-1.53676 -5.417488,-2.46009 -2.157224,-1.163 -4.790663,-3.35526 -4.46007,-3.71287 0.134713,-0.14572 2.202016,1.56401 2.331106,1.9279 0.05995,0.16901 0.208716,0.23943 0.33186,0.1571 0.130071,-0.087 0.171625,-0.0589 0.0996,0.0671 -0.110404,0.19324 0.208194,0.37839 1.002057,0.58235 0.145916,0.0375 0.357762,0.16818 0.470769,0.29042 0.113008,0.12225 0.36111,0.22226 0.55134,0.22226 0.190229,0 0.345872,0.092 0.345872,0.20436 0,0.21924 1.426602,1.0542 2.627954,1.53808 0.40408,0.16275 1.464983,0.5883 2.357563,0.94565 1.534122,0.61421 2.027194,0.86553 1.627685,0.82966 -0.09688,-0.009 -0.478777,-0.14188 -0.848668,-0.29597 z m 35.641103,-0.73263 c -0.152851,-0.26753 -0.07197,-0.34363 1.251915,-1.17777 3.677994,-2.31738 7.388888,-4.97161 10.532245,-7.5332 1.301206,-1.06038 2.409754,-1.88046 2.463437,-1.82238 0.05367,0.058 -0.297584,0.39969 -0.780585,0.75917 -0.483001,0.35947 -0.878177,0.70224 -0.878177,0.76168 0,0.15613 1.047013,-0.65597 2.594036,-2.01203 2.419144,-2.12051 4.083673,-4.16695 5.109415,-6.28175 0.209898,-0.43274 0.464779,-0.73121 0.566409,-0.66327 0.10163,0.068 0.187414,7.9e-4 0.190631,-0.14855 0.0036,-0.16427 0.08507,-0.12481 0.205803,0.0996 0.264475,0.49161 0.06122,1.4279 -0.641242,2.95402 -0.411139,0.8932 -1.18147,1.90102 -2.71431,3.55113 -2.08139,2.24061 -3.870011,3.64552 -9.674809,7.59928 -1.383008,0.94199 -5.428654,3.15883 -6.588548,3.61024 -1.412886,0.54986 -1.487718,0.56376 -1.63622,0.30383 z m -26.80215,-3.01579 c -3.010753,-0.45514 -7.002545,-1.93903 -10.184011,-3.78577 -1.513524,-0.87855 -4.035173,-2.74047 -4.035173,-2.97947 0,-0.0951 0.670126,0.34795 1.489171,0.98446 2.718974,2.11303 7.819613,4.45487 10.808501,4.96245 0.475574,0.0808 1.037616,0.18986 1.248982,0.24242 0.958635,0.23842 8.068437,0.31259 9.367629,0.0977 0.766059,-0.1267 1.947452,-0.28611 2.625316,-0.35425 2.540338,-0.2554 6.984639,-2.02863 9.193332,-3.66806 0.450043,-0.33405 0.898025,-0.55404 0.995517,-0.48885 0.09749,0.0652 0.239828,0.009 0.316301,-0.12486 0.07648,-0.13385 0.06083,-0.19101 -0.03476,-0.12702 -0.09559,0.064 0.952843,-1.11414 2.329853,-2.61806 3.49809,-3.82048 5.418124,-6.96435 6.540274,-10.70908 0.5315,-1.77367 1.378602,-2.9693 2.389063,-3.37201 0.475572,-0.18954 1.037617,-0.41317 1.248981,-0.49696 0.211365,-0.0838 0.124899,0.0296 -0.192148,0.25205 -0.407893,0.28615 -0.655425,0.70288 -0.846506,1.42515 -0.643537,2.43248 -1.796879,5.20284 -2.977492,7.152 -0.692615,1.1435 -1.387926,2.0791 -1.545128,2.0791 -0.358247,0 -0.74733,0.75358 -0.565639,1.09554 0.07467,0.14054 0.06435,0.18543 -0.02302,0.0998 -0.08733,-0.0857 -1.117198,0.85132 -2.288587,2.0822 -2.280454,2.39629 -4.929651,4.4847 -6.939364,5.47042 -1.47296,0.72246 -6.277196,2.19586 -7.776325,2.3849 -0.581257,0.0733 -1.781519,0.26416 -2.667249,0.42414 -1.973666,0.35647 -6.022929,0.34314 -8.477517,-0.0279 z m 24.951479,-7.82903 c 1.57892,-1.69382 1.737276,-1.89341 2.728733,-3.43927 0.457931,-0.714 0.888336,-1.20064 0.956451,-1.08141 0.07895,0.13818 0.21464,0.0985 0.37426,-0.10961 0.212535,-0.27702 0.202375,-0.30645 -0.06718,-0.19455 -0.248322,0.10308 -0.288027,0.0474 -0.182046,-0.25506 0.12455,-0.35552 0.110287,-0.35983 -0.175874,-0.0533 -0.171284,0.18351 -0.474642,0.62398 -0.674126,0.97882 -0.569393,1.01282 -1.923593,2.69177 -3.700405,4.58778 -0.898446,0.95871 -1.374131,1.54806 -1.057082,1.30966 0.31705,-0.2384 1.125821,-1.02281 1.797273,-1.74312 z m 4.858875,-5.84213 c 0.219609,-0.45292 0.21828,-0.45334 -0.191124,-0.0601 -0.22674,0.21777 -0.412257,0.48052 -0.412257,0.58386 0,0.29261 0.358406,-0.0185 0.603381,-0.52373 z m 0.158008,-1.49538 c 0.0014,-0.22242 -0.264656,0.15345 -0.588574,0.83143 -0.131913,0.27612 -0.06667,0.24122 0.194313,-0.10393 0.216115,-0.2858 0.393529,-0.61318 0.394261,-0.7275 z m 2.470417,-5.63537 c 0.110199,0.0737 0.249071,0.0487 0.308608,-0.0555 0.05955,-0.10421 -0.01046,-0.23873 -0.155458,-0.29893 -0.285733,-0.11861 -0.696647,0.22297 -0.691897,0.57516 0.0014,0.12003 0.07842,0.0893 0.170666,-0.0682 0.09225,-0.15755 0.257889,-0.22618 0.368081,-0.1525 z M 53.67986,164.18106 c -0.216777,-0.16349 -0.228686,-0.24351 -0.04804,-0.3228 0.132103,-0.058 0.240189,-0.22624 0.240189,-0.3739 0,-0.14767 0.252788,-0.32318 0.561753,-0.39002 0.308964,-0.0669 0.740392,-0.32895 0.958727,-0.58246 0.218335,-0.25352 0.455532,-0.39759 0.527102,-0.32017 0.07157,0.0775 0.02926,0.14077 -0.09405,0.14077 -0.123296,0 -0.224176,0.0935 -0.224176,0.20786 0,0.11432 0.129702,0.20785 0.288228,0.20785 0.412045,0 0.356286,0.27674 -0.152108,0.75491 -0.864085,0.81272 -1.570375,1.04543 -2.057631,0.67796 z m -16.88611,-1.74812 c -3.148688,-0.61674 -5.237473,-2.02478 -6.571438,-4.4298 -0.840973,-1.5162 -1.083734,-2.93876 -0.76288,-4.47045 0.42021,-2.00599 1.381743,-3.35508 2.87299,-4.03097 l 0.653867,-0.29635 -1.038169,-0.64025 c -2.464193,-1.51969 -4.358062,-4.55417 -4.547744,-7.28667 -0.183466,-2.64294 0.636289,-4.70112 2.703001,-6.7865 l 0.80237,-0.80962 -0.545836,-0.46445 c -0.527779,-0.44909 -0.542723,-0.51325 -0.451718,-1.93971 0.05177,-0.8114 0.153805,-1.67208 0.226755,-1.91263 0.126123,-0.41587 0.05387,-0.44267 -1.470843,-0.54557 -2.50087,-0.16877 -5.115739,-1.4528 -6.101147,-2.99595 -1.237107,-1.93731 -1.64421,-4.7956 -1.006506,-7.06671 0.702989,-2.50361 2.002693,-4.08221 4.24035,-5.15024 1.083258,-0.51704 1.558408,-0.60468 4.035173,-0.74428 2.92467,-0.16485 3.501236,-0.31269 5.52115,-1.41568 1.709607,-0.93354 4.34769,-1.70237 5.841352,-1.70237 1.540446,0 3.375767,0.34644 4.029513,0.76062 0.304999,0.19323 0.340677,0.25335 0.0973,0.16392 -0.939556,-0.34521 -1.858203,-0.49262 -3.636141,-0.58347 -2.25923,-0.11545 -3.271392,0.16281 -6.54787,1.80011 -2.089273,1.04403 -2.141378,1.05775 -4.515551,1.1891 -1.888026,0.10446 -2.114126,0.14473 -1.056832,0.18823 0.739782,0.0304 1.69093,0.0426 2.113663,0.027 0.578762,-0.0213 0.697414,0.0243 0.480377,0.18454 -0.158525,0.11707 -0.429662,0.21429 -0.602527,0.21604 -0.172865,0.002 -0.561971,0.14291 -0.86468,0.31368 -0.302709,0.17078 -0.788166,0.31108 -1.078795,0.31179 -0.642495,0.002 -1.47365,0.79401 -1.096936,1.04587 0.134994,0.0902 0.345209,0.12267 0.467144,0.072 0.266989,-0.11083 0.776225,0.4784 0.951255,1.10069 0.100857,0.35858 -0.022,0.57074 -0.601763,1.03928 -0.400672,0.3238 -0.886736,0.80007 -1.080144,1.05838 -0.193409,0.25831 -0.421183,0.42317 -0.506166,0.36636 -0.136786,-0.0915 -1.736224,1.6096 -1.736224,1.84653 0,0.15806 2.52659,-0.0245 3.746948,-0.27075 2.053069,-0.41425 6.745453,-0.8704 7.611625,-0.73992 1.728876,0.26043 3.952837,0.7676 5.054046,1.15256 0.625131,0.21854 1.516532,0.39734 1.980889,0.39734 0.513927,0 0.797818,0.0813 0.72553,0.20786 -0.06675,0.11685 0.08624,0.20786 0.349434,0.20786 0.257504,0 0.575043,0.13927 0.705641,0.30949 0.130599,0.17023 0.308147,0.26224 0.394553,0.20447 0.0864,-0.0577 0.219672,0.005 0.296144,0.13833 0.08311,0.14547 0.05604,0.18788 -0.06731,0.10541 -0.113492,-0.0759 -0.342825,0.01 -0.50963,0.19012 -0.67195,0.72687 -2.056367,0.80081 -3.214277,0.17166 -0.279526,-0.15188 -0.863185,-0.36242 -1.29702,-0.46787 -0.662327,-0.16097 -0.788788,-0.13972 -0.788788,0.13262 0,0.17839 -0.0542,0.26571 -0.120437,0.19405 -0.06624,-0.0716 -0.38616,0.0184 -0.710931,0.20004 -0.324771,0.18167 -1.200105,0.4501 -1.945187,0.59652 l -1.354694,0.2662 1.742108,0.0188 c 2.496092,0.0269 5.477195,0.69684 6.952197,1.56242 0.686357,0.40277 0.679391,0.40245 -2.396055,-0.11079 -3.591117,-0.5993 -5.823768,-0.48743 -8.350287,0.41844 -2.022614,0.7252 -3.333304,1.60423 -3.623618,2.43022 -0.217876,0.6199 -0.249757,2.5976 -0.04084,2.53358 0.07926,-0.0243 0.345451,0.0764 0.591532,0.2239 0.370496,0.22198 0.568709,0.21564 1.152907,-0.0369 0.388018,-0.16771 1.586795,-0.5023 2.663949,-0.74354 3.250244,-0.72793 7.219674,-0.52401 10.301837,0.52923 0.861257,0.29431 1.795283,0.55229 2.075612,0.57328 0.495512,0.0371 0.512226,-1.5e-4 0.600805,-1.33935 0.05011,-0.75763 0.195841,-1.55727 0.32384,-1.77696 0.197392,-0.33881 0.215431,-0.27322 0.118808,0.43197 -0.2763,2.01654 -0.257482,2.73344 0.02634,1.00333 0.351572,-2.14311 0.347188,-2.1387 2.131874,-2.1437 1.428958,-0.004 4.457729,-1.13056 5.409925,-2.01222 2.507369,-2.32163 1.928352,-6.27967 -1.249641,-8.54231 -0.211328,-0.15045 -0.122694,-0.13715 0.20737,0.0311 0.968337,0.49367 2.180344,1.99408 2.613455,3.23532 0.914391,2.62054 -0.274375,5.67408 -2.998162,7.70127 -1.265008,0.94149 -2.395453,1.4006 -4.120351,1.67344 -0.854043,0.13508 -1.595863,0.32096 -1.648486,0.41307 -0.05262,0.0921 -0.182185,0.66089 -0.287914,1.26397 -0.10573,0.60308 -0.356671,1.28845 -0.557648,1.52303 -0.507521,0.59242 -0.525396,0.92358 -0.101559,1.88153 0.546492,1.23519 0.522228,4.26325 -0.04331,5.40428 -0.457763,0.92358 -1.525419,2.17887 -1.861896,2.18911 -0.119564,0.004 -0.381507,0.14099 -0.582095,0.30523 -0.349441,0.28612 -0.342295,0.30783 0.170762,0.51885 0.294509,0.12112 0.489589,0.26985 0.433513,0.33051 -0.05607,0.0606 -0.394926,-0.0222 -0.753,-0.18397 -0.358075,-0.16184 -1.642824,-0.3597 -2.854999,-0.43968 -2.790607,-0.18414 -4.164676,-0.31429 -4.894069,-0.46356 -0.637423,-0.13046 -2.669882,-1.30838 -2.526037,-1.46398 0.04994,-0.054 0.309966,0.0571 0.577829,0.24696 0.267865,0.18986 0.599622,0.36552 0.737239,0.39036 0.137618,0.0248 0.433937,0.1546 0.658487,0.28836 0.716461,0.42679 5.858885,0.87386 5.210305,0.45297 -0.185957,-0.12067 -0.455814,-0.51825 -0.599681,-0.8835 -0.414178,-1.05152 -1.856697,-2.58344 -2.905235,-3.08529 -1.348277,-0.6453 -3.749837,-0.68066 -4.320975,-0.0636 l -0.393541,0.42517 0.45765,0.97787 c 0.471525,1.0075 0.468534,1.25172 -0.0075,0.61411 -0.757796,-1.01498 -0.940869,-1.95271 -0.72029,-3.68946 0.02904,-0.22865 0.06,-0.47571 0.06881,-0.54904 0.03003,-0.25006 1.548282,-0.79721 2.864691,-1.03238 1.231208,-0.21995 1.409295,-0.19925 2.835357,0.32956 0.836898,0.31034 1.824271,0.75547 2.194162,0.98919 1.09031,0.68892 2.051922,1.94405 2.186401,2.85379 0.13252,0.89646 0.217154,0.94883 1.872463,1.15861 1.060154,0.13435 1.089835,0.12373 1.574352,-0.56343 1.23412,-1.75026 0.963188,-4.30057 -0.670725,-6.31359 -0.721474,-0.88888 -1.608802,-1.40597 -3.157685,-1.84013 -2.330476,-0.65324 -3.790234,-0.76651 -5.855138,-0.45431 -2.211633,0.33438 -2.766707,0.59097 -0.930033,0.4299 0.854317,-0.0749 1.115299,-0.0476 0.849116,0.0888 -0.211367,0.10834 -0.667186,0.20356 -1.012931,0.2116 -0.718658,0.0167 -3.776235,1.26059 -4.991259,2.03055 -1.804824,1.14372 -2.933858,3.24586 -2.928558,5.45266 0.0029,1.2176 0.423494,2.92322 0.946535,3.83869 0.720572,1.26121 2.615588,2.96782 4.190402,3.77379 3.460614,1.77112 3.382559,1.74686 3.999273,1.24228 0.205146,-0.16784 0.574413,-0.30814 0.820596,-0.31178 1.041181,-0.0154 6.668212,2.80364 8.647018,4.33197 0.878015,0.67813 0.518474,1.02897 -0.468238,0.45689 -0.408373,-0.23676 -0.959948,-0.4344 -1.225721,-0.4392 -0.497696,-0.009 -2.026867,-0.7984 -1.576753,-0.814 0.500168,-0.0174 0.0065,-0.41168 -0.69061,-0.55166 -0.392604,-0.0788 -0.886762,-0.26096 -1.098127,-0.40473 -0.418016,-0.28432 -2.57161,-0.80872 -2.709347,-0.65973 -0.09631,0.10418 2.074909,1.1917 2.379198,1.1917 0.731612,0 5.230002,2.80546 5.230002,3.26174 0,0.0676 -0.258617,0.39024 -0.574704,0.717 -1.00682,1.04081 -2.493373,0.81442 -6.615965,-1.00756 -1.170764,-0.51742 -2.34483,-1.06082 -2.609038,-1.20755 -0.816036,-0.45321 -1.537581,-1.30502 -1.529516,-1.80567 0.0074,-0.45824 0.01931,-0.45443 0.294363,0.094 0.157669,0.31438 0.315153,0.57161 0.349963,0.57161 0.138259,0 -0.132975,-1.05313 -0.299991,-1.16479 -0.105024,-0.0702 -0.0885,-0.23672 0.04014,-0.40439 0.173004,-0.22549 0.08465,-0.37341 -0.42301,-0.70822 -1.096277,-0.72299 -1.730555,-0.57568 -2.917141,0.67748 -1.4506,1.532 -1.838812,2.82481 -1.402042,4.66904 0.382667,1.61578 1.080773,2.77008 2.216923,3.66561 2.791301,2.20016 5.992569,2.86087 10.224642,2.11027 1.866318,-0.33101 2.91124,-0.80212 4.293648,-1.9358 1.228332,-1.00733 2.081017,-2.22927 2.6047,-3.73267 0.347144,-0.99659 0.406034,-1.52505 0.344759,-3.09375 -0.06295,-1.61151 -0.164124,-2.08894 -0.68275,-3.22178 -0.334867,-0.73146 -1.01186,-1.82543 -1.504428,-2.43105 -0.492566,-0.60562 -0.852465,-1.14776 -0.799774,-1.20476 0.05269,-0.057 0.386604,0.29821 0.742029,0.78934 0.355424,0.49114 0.708972,0.92317 0.785664,0.96006 0.07669,0.0369 0.399683,0.55913 0.717761,1.16051 0.867741,1.64062 1.219534,3.39861 1.128862,5.64119 -0.06716,1.66119 -0.160041,2.0776 -0.741763,3.32568 -1.344773,2.88523 -4.037872,4.98243 -7.346607,5.72104 -2.071349,0.46238 -4.933732,0.49738 -7.033996,0.086 z m -5.019119,-3.84188 c -0.11312,-0.22865 -0.302499,-0.41571 -0.420844,-0.41571 -0.118344,0 -0.05866,0.18706 0.132617,0.41571 0.191284,0.22864 0.380664,0.41571 0.420844,0.41571 0.04019,0 -0.0195,-0.18707 -0.132617,-0.41571 z m -0.51756,-1.50696 c -0.05703,-0.31439 -0.180082,-0.57161 -0.273445,-0.57161 -0.09336,0 -0.168427,-0.21045 -0.166809,-0.46767 0.0022,-0.36144 0.04262,-0.39986 0.177584,-0.16913 0.114043,0.19496 0.17726,-0.24418 0.182189,-1.2656 0.0042,-0.86029 0.09718,-1.81916 0.20672,-2.13083 0.280319,-0.79756 0.252175,-0.86379 -0.185132,-0.43569 -0.296758,0.29052 -0.387632,0.30969 -0.398921,0.0842 -0.0081,-0.16062 -0.127399,0.0353 -0.265241,0.43547 -0.137842,0.40012 -0.338376,0.70737 -0.445632,0.68279 -0.318554,-0.0731 -0.460278,1.32326 -0.228728,2.25346 0.446764,1.79476 1.691619,3.2064 1.397415,1.58463 z m -1.073364,-2.71914 c -0.214107,-0.58887 -0.179203,-0.8897 0.07173,-0.61825 0.115595,0.12504 0.17789,0.40097 0.138437,0.61317 -0.06919,0.37214 -0.07664,0.37232 -0.210172,0.005 z m 13.813574,-0.15771 c -1.045251,-0.57196 -1.994092,-1.05893 -2.108536,-1.08216 -0.114444,-0.0232 -0.296855,-0.22278 -0.405356,-0.44345 -0.233547,-0.47499 -1.193424,-0.79939 -1.613281,-0.54522 -0.220153,0.13327 0.242934,0.46357 1.809035,1.29028 1.157714,0.61114 2.148168,1.15914 2.201009,1.21778 0.172103,0.19101 1.23936,0.57632 1.633285,0.58967 0.211367,0.007 -0.470904,-0.45494 -1.516156,-1.0269 z m -3.383698,-1.64407 c -0.158524,-0.11083 -0.201759,-0.20149 -0.09608,-0.20149 0.105684,0 0.321854,0.0907 0.480378,0.20149 0.158526,0.11081 0.201759,0.20149 0.09608,0.20149 -0.105682,0 -0.321852,-0.0907 -0.480377,-0.20149 z m 6.148837,1.85844 c 0,-0.10758 -0.118228,-0.19559 -0.262727,-0.19559 -0.1445,0 -1.333435,-0.5846 -2.642078,-1.2991 -2.747931,-1.50035 -3.820485,-2.0422 -3.820485,-1.93012 0,0.0855 2.10986,1.59955 3.357229,2.40909 0.865608,0.56178 3.006056,1.42157 3.223947,1.29501 0.07926,-0.046 0.144114,-0.17171 0.144114,-0.27929 z m -16.562108,-2.38359 c -0.05916,-0.064 -0.166603,0.0514 -0.238762,0.25636 -0.104278,0.29624 -0.08221,0.32011 0.107565,0.11636 0.131319,-0.14099 0.190358,-0.30872 0.131197,-0.37272 z m 2.054697,-1.96913 c 0.06532,-0.11432 0.02718,-0.20786 -0.08474,-0.20786 -0.11192,0 -0.203491,0.0935 -0.203491,0.20786 0,0.11432 0.03813,0.20785 0.08474,0.20785 0.0466,0 0.138175,-0.0935 0.203491,-0.20785 z m -3.651721,-6.6532 c -0.174578,-0.36518 -0.332273,-0.9724 -0.350434,-1.34938 -0.01817,-0.37697 -0.111367,-0.63354 -0.207126,-0.57015 -0.100903,0.0668 -0.116039,-0.18239 -0.036,-0.59261 0.07596,-0.38932 0.207094,-1.12877 0.291407,-1.64321 0.08431,-0.51445 0.341468,-1.43858 0.571456,-2.05363 0.527565,-1.41085 0.40014,-1.5896 -0.26196,-0.36746 -0.626109,1.15569 -0.980945,4.11055 -0.652667,5.43501 0.243861,0.98387 0.730696,2.05641 0.866658,1.90934 0.05284,-0.0572 -0.04676,-0.40272 -0.221336,-0.76791 z m 15.211971,-5.03874 c -0.0533,-0.1429 -0.09692,-0.026 -0.09692,0.25982 0,0.2858 0.04361,0.40272 0.09692,0.25982 0.05331,-0.14291 0.05331,-0.37674 0,-0.51964 z m -8.666671,-2.55771 c 0.351695,-0.3048 0.345564,-0.30913 -0.107388,-0.0758 -0.588181,0.30302 -0.697189,0.39903 -0.453053,0.39903 0.103098,0 0.355296,-0.14547 0.560441,-0.32325 z m 0.276915,-4.04174 c 0.158525,-0.11083 0.201758,-0.20149 0.09607,-0.20149 -0.105683,0 -0.321853,0.0907 -0.480378,0.20149 -0.158524,0.11082 -0.201758,0.20149 -0.09608,0.20149 0.105683,0 0.321854,-0.0907 0.480378,-0.20149 z m -6.146482,-5.00774 c -1.782543,-0.24925 -3.866855,-1.40277 -4.583729,-2.5368 -0.615709,-0.97398 -0.863407,-1.73484 -1.16818,-3.58831 -0.287766,-1.75003 -0.263801,-2.1984 0.18719,-3.5023 0.471708,-1.3638 2.039742,-3.03445 3.301385,-3.51743 0.678323,-0.25967 0.733289,-0.31668 0.318421,-0.33026 -1.339741,-0.0438 -4.055657,2.20348 -4.726049,3.91062 -0.722202,1.83909 -0.154684,5.12872 1.172097,6.79409 1.26745,1.59088 4.017847,3.00027 5.784737,2.96428 0.958284,-0.0196 0.957549,-0.02 -0.285872,-0.19389 z m 9.316975,33.35134 c -0.739782,-0.17105 -1.561228,-0.46538 -1.825435,-0.65405 l -0.480378,-0.34303 0.576453,-0.11061 c 0.450971,-0.0865 0.667261,-0.31423 0.993615,-1.04597 0.229438,-0.51445 0.77137,-1.30668 1.204294,-1.76054 l 0.787134,-0.82519 1.411448,0.78563 c 1.536226,0.85507 1.78868,1.20269 1.932618,2.66112 0.08879,0.89962 0.05989,0.97947 -0.426821,1.17934 -0.940338,0.38615 -2.777213,0.43603 -4.172928,0.1133 z m -19.311188,-3.29687 c -0.466741,-0.51445 -0.805386,-0.93536 -0.752544,-0.93536 0.05284,0 0.477954,0.42091 0.944695,0.93536 0.466741,0.51444 0.805385,0.93535 0.752543,0.93535 -0.05284,0 -0.477953,-0.42091 -0.944694,-0.93535 z m 167.871772,-7.26009 c -0.59015,-0.17303 -1.18626,-0.54751 -1.62218,-1.01907 -0.65455,-0.70805 -0.67284,-0.76505 -0.36402,-1.13418 0.17884,-0.21376 0.32515,-0.49821 0.32515,-0.63211 0,-0.37966 0.47587,-0.28961 1.45959,0.27618 1.00741,0.57942 2.44841,0.68975 3.00793,0.2303 0.18494,-0.15187 0.33626,-0.32434 0.33626,-0.38327 0,-0.0589 -0.68463,-0.0962 -1.52141,-0.0828 -1.43064,0.0229 -1.56536,-0.0141 -2.25778,-0.61993 -0.61222,-0.53567 -0.76309,-0.82428 -0.89497,-1.71203 -0.13613,-0.91626 -0.0923,-1.22272 0.30874,-2.16 0.31735,-0.74162 0.67668,-1.21872 1.11938,-1.48623 l 0.65201,-0.39399 -0.60144,0.70578 c -0.86596,1.0162 -1.08583,1.57646 -0.94264,2.4021 0.16618,0.95823 1.37659,2.25712 2.27284,2.439 0.70385,0.14283 2.36657,-0.19813 2.55241,-0.52341 0.16959,-0.29682 0.46577,-0.20791 0.46577,0.13982 0,0.63983 -0.5731,1.49952 -1.22151,1.83236 -0.98387,0.50503 -2.21186,0.43198 -3.30471,-0.19658 -0.88122,-0.50685 -0.9463,-0.51611 -1.18153,-0.16813 -0.37351,0.55256 -0.33171,0.61481 0.75146,1.11886 0.83128,0.38684 1.24904,0.44997 2.47119,0.37344 2.51561,-0.15753 3.19366,-0.87235 3.75248,-3.95598 0.30578,-1.68733 0.30693,-1.88034 0.0161,-2.70213 -0.24872,-0.7027 -0.25536,-0.80264 -0.0322,-0.48515 0.15459,0.21993 0.3387,0.73209 0.40912,1.13814 0.19161,1.10484 -0.40173,4.08994 -1.03207,5.19232 -0.9086,1.58904 -3.02178,2.36441 -4.92393,1.8067 z m -104.8462,-2.4365 c -0.369889,-0.35086 -0.498629,-0.5428 -0.28608,-0.42652 0.35097,0.192 1.221311,1.09297 1.036425,1.0729 -0.04278,-0.005 -0.380456,-0.29552 -0.750345,-0.64638 z m 20.79275,-0.14518 c -0.13629,-0.0935 -0.51245,-1.33145 -0.83591,-2.75092 -0.32345,-1.41947 -0.64428,-2.62762 -0.71295,-2.68478 -0.26223,-0.21828 -0.22217,-0.98726 0.0648,-1.24494 0.16498,-0.14811 0.33197,-0.23258 0.37108,-0.18771 0.0857,0.0983 1.10634,3.43437 1.46618,4.79235 0.21697,0.81879 0.34542,0.98852 0.82696,1.0927 0.31355,0.0679 0.58462,0.0993 0.60236,0.0699 0.40649,-0.67293 1.94518,-3.74461 2.20791,-4.40765 0.46511,-1.17374 0.84721,-1.43413 0.48789,-0.33248 -0.54417,1.66841 -2.62609,5.43636 -3.11483,5.63736 -0.57309,0.2357 -1.03565,0.24118 -1.36354,0.0161 z m 5.78418,-0.0527 c -0.33686,-0.10542 -0.8842,-0.54128 -1.21631,-0.96857 -0.56235,-0.72351 -0.5979,-0.86335 -0.51755,-2.03525 0.0475,-0.6921 0.20568,-1.48715 0.35161,-1.76679 0.38043,-0.72894 0.97309,-1.44377 1.19701,-1.44377 0.10569,0 0.015,0.21045 -0.20163,0.46767 -1.2156,1.4437 -1.05082,3.50361 0.35197,4.39998 0.9101,0.58155 2.78518,0.66252 3.67373,0.15863 0.82297,-0.46669 0.99438,-0.16343 0.28824,0.50994 -0.92212,0.87932 -2.44437,1.1422 -3.92707,0.67816 z m 5.43815,0.0561 c -0.33504,-0.0704 -0.35268,-0.2197 -0.23367,-1.97815 0.16918,-2.49939 0.50492,-4.23275 0.89355,-4.61321 0.28714,-0.2811 0.2842,-0.0626 -0.0343,2.54142 -0.19166,1.56693 -0.32927,2.86407 -0.30582,2.88255 0.0235,0.0185 0.30549,0.0875 0.62674,0.15345 l 0.58411,0.11985 0.24511,-1.70088 c 0.26253,-1.82176 0.52624,-2.43517 1.2751,-2.96593 0.77855,-0.55183 1.61588,-0.48542 2.0714,0.16427 0.36869,0.52587 0.38088,0.67992 0.18916,2.39024 -0.21835,1.94789 -0.16323,2.13064 0.64468,2.13698 0.34632,0.002 0.42328,-0.15625 0.52675,-1.08806 0.25042,-2.25525 0.15492,-3.59071 -0.3027,-4.23303 -0.29408,-0.41278 -0.32075,-0.5078 -0.0856,-0.30495 0.40166,0.34648 0.69815,0.90432 0.81719,1.53755 0.12317,0.65521 -0.30365,4.3558 -0.53785,4.66328 -0.30576,0.40141 -1.62138,0.33188 -1.77234,-0.0937 -0.069,-0.19443 -0.0675,-1.20715 0.004,-2.25051 l 0.12873,-1.89701 -0.5688,-0.25487 c -0.43684,-0.19572 -0.68267,-0.19874 -1.05954,-0.013 -0.65142,0.32106 -0.9411,1.05562 -1.06097,2.6903 -0.0545,0.74308 -0.17202,1.50424 -0.26119,1.69147 -0.16261,0.34144 -1.10494,0.5644 -1.78306,0.42189 z m 8.48076,-0.0515 c -0.58357,-0.36768 -0.96093,-1.40861 -0.81315,-2.24305 0.29923,-1.68955 0.26179,-2.50087 -0.12143,-2.63244 -0.39677,-0.13621 -0.49283,-1.0115 -0.17028,-1.55141 0.15737,-0.26341 0.18673,-0.25255 0.18921,0.07 0.002,0.22444 0.22184,0.47118 0.53405,0.59866 l 0.53111,0.21685 -0.17226,1.96459 c -0.20702,2.36095 -0.0909,2.5749 1.47415,2.71529 0.94568,0.0848 1.04851,0.052 1.14973,-0.36669 0.0618,-0.25563 0.20224,-0.39896 0.31626,-0.32274 0.11279,0.0754 0.20508,-0.009 0.20508,-0.18694 0,-0.17823 0.12161,-0.32405 0.27023,-0.32405 0.16818,0 0.23519,0.14499 0.17743,0.3839 -0.21656,0.89586 2.52603,1.25598 3.92513,0.51539 0.94566,-0.50058 1.2208,-1.30357 0.75903,-2.21529 l -0.33359,-0.65865 0.38707,0.49071 c 0.50746,0.64331 0.49104,1.60588 -0.0418,2.44697 -0.51736,0.81675 -1.08469,1.12051 -2.35737,1.2622 -1.33573,0.14871 -2.55062,-0.23011 -2.62923,-0.81981 -0.0584,-0.43814 -0.0866,-0.4295 -0.69201,0.21212 -0.51242,0.54309 -0.78345,0.66769 -1.44113,0.66256 -0.44551,-0.003 -0.96133,-0.10166 -1.14628,-0.21819 z m 12.51212,-0.20935 c -0.38405,-0.24844 -0.87172,-0.80321 -1.08369,-1.23281 -0.37582,-0.76163 -0.37679,-0.80198 -0.0387,-1.61901 0.19073,-0.46085 0.52087,-0.93868 0.73361,-1.06185 0.33706,-0.19513 0.37312,-0.3676 0.28029,-1.34055 -0.10343,-1.08397 -0.084,-1.14167 0.66387,-1.97532 0.42372,-0.4723 0.88859,-0.8554 1.03307,-0.85136 0.14447,0.004 0.0674,0.1247 -0.17133,0.26809 -0.23869,0.14341 -0.57229,0.4743 -0.7413,0.73534 -0.28293,0.43695 -0.28038,0.55088 0.032,1.43577 0.28438,0.80549 0.29552,0.97677 0.0688,1.05749 -0.14881,0.053 -0.55729,0.40547 -0.90771,0.78333 -0.90507,0.97588 -0.81136,1.81176 0.29736,2.65237 0.96946,0.73502 2.27701,0.8479 3.29449,0.28442 0.60058,-0.33262 0.69716,-0.33458 1.29772,-0.0263 0.35685,0.18319 0.82146,0.28423 1.03243,0.22455 0.42928,-0.12143 0.51735,0.24833 0.15303,0.64242 -0.27904,0.30185 -1.42904,0.33182 -1.59486,0.0416 -0.15812,-0.27675 -0.92677,-0.26541 -1.18833,0.0175 -0.11459,0.12397 -0.71555,0.26828 -1.33545,0.32071 -0.91819,0.0776 -1.25652,0.0116 -1.82538,-0.35639 z m 11.36267,0.12208 c -0.26421,-0.16338 -0.61663,-0.30038 -0.78315,-0.30442 -0.41536,-0.0101 -1.05963,-0.79207 -1.41885,-1.72204 -0.23002,-0.59553 -0.25684,-0.97775 -0.11647,-1.66002 0.1003,-0.48751 0.22455,-1.14138 0.27612,-1.45306 0.0515,-0.31168 0.2458,-0.84516 0.43167,-1.18551 0.34912,-0.63931 1.9449,-1.88764 2.40613,-1.88223 0.14377,0.002 0.0757,0.11861 -0.15134,0.25983 -1.87552,1.16678 -2.2774,1.85785 -2.2774,3.91631 0,1.27005 0.0541,1.46674 0.5611,2.03916 0.88212,0.996 1.94055,1.33277 3.84828,1.22445 1.19388,-0.0678 1.73203,-0.19017 2.00314,-0.45558 0.28032,-0.27442 0.40634,-0.30053 0.51684,-0.1071 0.16086,0.28154 -0.83866,1.27242 -1.16482,1.15476 -0.10568,-0.0381 -0.47039,0.0559 -0.81047,0.20896 -0.80713,0.36325 -2.71022,0.34404 -3.32078,-0.0335 z m 7.01352,0.0122 c -0.70784,-0.34794 -1.63329,-1.28381 -1.63329,-1.65166 0,-0.14939 -0.19455,-0.37993 -0.43234,-0.51233 -0.41543,-0.2313 -0.41615,-0.23631 -0.0185,-0.12802 0.37651,0.10251 0.40783,0.0423 0.34688,-0.6672 -0.11585,-1.34824 0.94555,-2.98062 2.31366,-3.55833 0.46639,-0.19694 0.50624,-0.19444 0.20867,0.0131 -1.86043,1.29774 -2.36738,2.99019 -1.38261,4.61597 0.66172,1.09248 2.62352,1.48414 3.67191,0.73306 0.72464,-0.51914 0.86468,-0.51914 0.86468,0 0,0.31876 0.1281,0.41572 0.54924,0.41572 h 0.54924 l 0.23561,-2.54625 c 0.12959,-1.40043 0.27796,-2.59217 0.32972,-2.6483 0.23692,-0.25691 -0.18992,5.12562 -0.44077,5.5583 -0.30176,0.52047 -1.51188,0.67238 -1.65584,0.20785 -0.0618,-0.1994 -0.30009,-0.175 -1.0248,0.10496 -1.11814,0.43193 -1.701,0.44675 -2.4815,0.0631 z m 7.30174,0.047 c -0.84691,-0.52898 -0.92345,-0.74493 -0.79478,-2.24247 0.0675,-0.78563 0.20695,-1.66804 0.30989,-1.96091 0.18043,-0.51339 0.0778,-0.64543 -0.43205,-0.55559 -0.32054,0.0565 -0.52858,-1.03518 -0.28538,-1.49748 0.23488,-0.44648 0.23994,-0.44417 0.30291,0.13873 0.055,0.50888 0.13236,0.57869 0.54666,0.49302 l 0.48261,-0.0998 -0.12141,2.10521 c -0.0717,1.24317 -0.0455,2.22695 0.0639,2.40253 0.11396,0.18283 0.63514,0.33252 1.3535,0.38873 0.99922,0.0782 1.16817,0.0409 1.16817,-0.25763 0,-0.19197 0.0865,-0.29123 0.19214,-0.22057 0.1057,0.0706 0.19216,0.29935 0.19216,0.50822 0,0.79537 -2.08722,1.35462 -2.97834,0.79802 z m 4.71153,-0.097 c -1.55386,-0.87799 -2.07085,-3.28326 -1.05373,-4.90243 0.26802,-0.42667 0.59227,-0.77432 0.72057,-0.77257 0.16498,0.002 0.17081,0.0479 0.0199,0.15589 -0.34895,0.24974 -0.84345,1.44203 -0.84345,2.03365 0,1.64834 1.35383,2.79584 3.29856,2.79584 1.16666,0 2.27382,-0.3304 2.27382,-0.67855 0,-0.12219 0.0516,-0.16629 0.1148,-0.098 0.16033,0.17345 -0.51484,1.36216 -0.85354,1.50276 -0.15329,0.0636 -0.89284,0.16644 -1.64345,0.22846 -1.09066,0.0901 -1.49905,0.0369 -2.03345,-0.26506 z m 12.73835,0.0898 c -0.18827,-0.31637 -0.23063,-3.90733 -0.0447,-3.78297 0.22562,0.15083 0.30745,-2.66569 0.0921,-3.16876 -0.25982,-0.60693 -0.48764,-0.61209 -0.50713,-0.0115 -0.008,0.25722 -0.0587,0.35076 -0.11208,0.20786 -0.13019,-0.34902 -0.73268,-0.32989 -1.01039,0.032 -0.12317,0.16054 -0.26575,0.91744 -0.31686,1.68201 -0.0511,0.76456 -0.16712,1.9661 -0.25784,2.67007 -0.0907,0.70397 -0.14695,1.30236 -0.125,1.32974 0.0219,0.0274 0.30112,0.10631 0.62036,0.17538 l 0.58042,0.12557 0.1243,-1.89421 c 0.12238,-1.86485 0.47637,-3.865 0.65067,-3.67645 0.0824,0.0892 -0.42612,4.83773 -0.63141,5.89545 -0.0795,0.40926 -0.21032,0.46768 -1.04787,0.46768 h -0.95709 l 0.0105,-0.88339 c 0.006,-0.48587 0.11667,-1.64591 0.24646,-2.57786 0.27317,-1.96148 0.23062,-2.31082 -0.22883,-1.87892 -0.17398,0.16354 -0.57047,0.38561 -0.8811,0.49348 -0.87397,0.3035 -1.25137,1.02942 -1.38606,2.666 -0.15854,1.92638 -0.29656,2.18143 -1.17839,2.17751 -1.12725,-0.005 -1.26954,-0.19654 -1.10098,-1.48174 0.0803,-0.61231 0.15704,-1.82932 0.17052,-2.70445 0.0135,-0.87515 0.0801,-1.55392 0.14812,-1.5084 0.0679,0.0455 0.17533,-0.14011 0.23853,-0.41251 0.0632,-0.27241 0.22686,-0.54175 0.36367,-0.59854 0.27475,-0.11405 0.27157,0.0146 -0.0862,3.48704 -0.1178,1.14321 -0.18083,2.12533 -0.14005,2.18249 0.0408,0.0572 0.34287,0.13225 0.67132,0.16687 l 0.59717,0.0629 0.12772,-1.41401 c 0.0703,-0.7777 0.16439,-1.69456 0.2092,-2.03746 0.1037,-0.79334 0.90415,-1.56578 1.45971,-1.40862 0.28619,0.081 0.5517,-0.0496 0.88028,-0.43296 0.25877,-0.30189 0.55856,-0.54889 0.66621,-0.54889 0.10764,0 0.14227,-0.0935 0.0769,-0.20785 -0.0653,-0.11432 0.0161,-0.20786 0.18082,-0.20786 0.16476,0 0.29956,-0.0935 0.29956,-0.20786 0,-0.11432 -0.0865,-0.20785 -0.19214,-0.20785 -0.27222,0 -0.23946,-1.73641 0.0384,-2.037 0.12682,-0.13718 0.40784,-0.2435 0.62449,-0.23625 0.37162,0.0124 0.36945,0.0238 -0.0384,0.20116 -0.63788,0.27735 -0.58807,1.15331 0.0758,1.33356 0.5572,0.15128 0.75192,0.0176 0.89202,-0.61254 0.0508,-0.22864 0.10246,-0.0237 0.11473,0.45541 0.0282,1.10539 0.24386,1.24977 0.67828,0.45425 0.18821,-0.34466 0.38242,-0.58316 0.43157,-0.52999 0.0491,0.0532 -0.0467,1.71118 -0.21277,3.68448 -0.16618,1.97328 -0.27966,3.60897 -0.2522,3.63486 0.0275,0.0258 0.31665,0.10878 0.64261,0.18422 l 0.59267,0.13716 0.23106,-2.03386 c 0.20554,-1.80919 0.28865,-2.08452 0.75239,-2.49243 1.06638,-0.93801 2.10616,-0.77888 2.55407,0.39086 0.16191,0.42279 0.16336,0.9137 0.006,1.89349 -0.29773,1.84945 -0.28191,1.94949 0.34538,2.18604 0.49343,0.18607 0.57128,0.15825 0.6699,-0.23949 0.0614,-0.24751 0.11919,-0.87093 0.12846,-1.38537 0.009,-0.51444 0.0857,-1.35627 0.16981,-1.87071 0.0941,-0.57558 0.11328,-0.0169 0.0498,1.45246 -0.0568,1.31657 -0.19865,2.49121 -0.31611,2.61828 -0.30645,0.33149 -1.49899,0.52903 -1.8297,0.30306 -0.24022,-0.16414 -0.24723,-0.4067 -0.048,-1.66327 0.12826,-0.80911 0.23321,-1.73548 0.23321,-2.0586 0,-0.75305 -0.60567,-1.36482 -1.19321,-1.20524 -0.98871,0.26856 -1.1477,0.58557 -1.37903,2.74978 -0.21907,2.0494 -0.22381,2.0625 -0.79363,2.19445 -0.92487,0.21416 -1.21361,0.19784 -1.37771,-0.0779 z m -83.934556,-0.15661 c -0.300377,-0.52574 0.966475,-7.59977 1.468354,-8.19928 0.222357,-0.2656 0.227281,-0.32433 -0.312584,3.72055 -0.258621,1.93769 -0.450499,3.54441 -0.426388,3.57049 0.02413,0.0261 1.239973,0.0688 2.701939,0.0949 2.103085,0.0375 2.697935,-0.0135 2.848785,-0.24478 0.1394,-0.21369 0.16106,-0.15255 0.0805,0.22735 -0.0606,0.2858 -0.11129,0.63656 -0.11274,0.77946 -0.004,0.32853 -6.061104,0.37826 -6.247916,0.0513 z M 80.58102,146.09176 c -0.72587,-0.47707 -1.826008,-1.42714 -1.652575,-1.42714 0.05846,0 0.686458,0.42091 1.395566,0.93536 1.306224,0.94764 1.492279,1.30365 0.257009,0.49178 z m 60.14199,-1.11687 c -0.40455,-0.46582 -0.42049,-0.54858 -0.15017,-0.77946 0.16635,-0.14207 0.43796,-0.53892 0.60358,-0.88188 0.35106,-0.72697 0.40975,-0.45529 0.10556,0.48863 -0.11601,0.36002 -0.29095,0.65459 -0.38872,0.65459 -0.0978,0 -0.0362,0.23384 0.13696,0.51964 0.40267,0.66478 0.27088,0.66413 -0.30721,-0.002 z m -31.04213,-0.0551 c -0.44344,-0.40283 -0.88922,-1.39456 -0.71269,-1.58553 0.0634,-0.0686 1.13263,-0.12466 2.37609,-0.12466 2.05861,0 2.27129,-0.0356 2.37762,-0.39804 0.0642,-0.21892 0.0575,-0.65378 -0.0151,-0.96636 -0.0933,-0.40198 -0.0674,-0.52523 0.0883,-0.42112 0.1211,0.081 0.22017,0.6021 0.22017,1.1581 0,0.97971 -0.0217,1.01864 -0.70441,1.26237 -0.38742,0.1383 -1.43379,0.23408 -2.32525,0.21283 -1.25811,-0.03 -1.60236,0.022 -1.5382,0.23232 0.15382,0.50423 0.98239,0.81162 1.87775,0.69662 0.60137,-0.0772 0.7769,-0.0492 0.57646,0.0922 -0.46728,0.32953 -1.78714,0.23519 -2.22078,-0.15874 z m 17.78502,0.16264 c -0.19296,-0.13346 0.0467,-0.15701 0.725,-0.0713 0.83546,0.10567 0.99458,0.0755 0.90686,-0.17175 -0.0585,-0.16494 -0.48077,-0.40821 -0.93834,-0.54059 -0.97707,-0.28268 -2.12615,-1.53604 -1.97634,-2.15569 0.0517,-0.21403 0.031,-0.34702 -0.046,-0.29553 -0.077,0.0514 -0.49618,0.11634 -0.93149,0.14412 l -0.79147,0.0505 -0.12818,1.29468 c -0.0705,0.71207 -0.0705,1.39563 0,1.51901 0.0705,0.12338 0.0424,0.22433 -0.0624,0.22433 -0.34404,0 -0.42614,-0.77009 -0.22503,-2.11074 0.10881,-0.72539 0.19849,-1.38904 0.1993,-1.47478 7.2e-4,-0.0857 0.38625,-0.1559 0.85658,-0.1559 0.6117,0 0.91089,-0.10355 1.05099,-0.36375 0.13852,-0.25729 0.19756,-0.27827 0.20169,-0.0717 0.004,0.23264 0.0774,0.22206 0.35724,-0.0519 0.56136,-0.54954 0.67161,-0.39881 0.21531,0.29438 l -0.42022,0.63838 0.53424,0.60321 c 0.29383,0.33176 0.97424,0.75802 1.512,0.94724 0.95433,0.33581 1.6503,0.81633 1.6503,1.13944 0,0.0884 -0.13588,0.30777 -0.30195,0.48742 -0.33862,0.3663 -1.91781,0.44625 -2.38817,0.1209 z m 8.64368,-0.17092 c -0.2986,-0.26156 -0.39251,-0.50442 -0.30732,-0.79478 0.16578,-0.56504 0.83881,-1.32285 1.17484,-1.32285 0.31845,0 1.82571,1.54187 1.82571,1.86762 0,0.2471 -0.95666,0.70038 -1.1155,0.52855 -0.0558,-0.0603 0.0129,-0.10974 0.1525,-0.10974 0.17549,0 0.14152,-0.1344 -0.10994,-0.43497 -0.56636,-0.67698 -0.98953,-0.85644 -1.42502,-0.60432 -0.54624,0.31623 -0.47768,0.57821 0.24019,0.91781 0.34346,0.16248 0.48275,0.30305 0.30951,0.31238 -0.17323,0.009 -0.50848,-0.15254 -0.74497,-0.3597 z m 13.61987,0.0567 c 0.3556,-0.167 0.78795,-0.29653 0.96076,-0.28783 0.1728,0.009 0.0115,0.14188 -0.35833,0.29597 -0.91016,0.37915 -1.41262,0.37237 -0.60243,-0.008 z m 6.09437,0.0965 c 0.83005,-0.26072 1.27178,-0.86653 1.27178,-1.74418 0,-0.9882 -0.32056,-1.35949 -1.16682,-1.35147 -0.76591,0.007 -1.18961,0.27502 -1.53034,0.96705 -0.33384,0.67803 -0.27452,1.06866 0.24811,1.63401 0.25941,0.2806 0.38911,0.51019 0.28822,0.51019 -0.4748,0 -0.95202,-0.86245 -0.95202,-1.72054 0,-1.05609 0.29957,-1.57227 1.21798,-2.09863 1.7301,-0.99155 3.43243,1.19778 2.22378,2.85993 -0.45753,0.62919 -1.33698,1.17599 -1.84697,1.14835 -0.19019,-0.0103 -0.0794,-0.10244 0.24628,-0.20471 z m 11.27521,0.0534 c -0.13197,-0.0907 0.22379,-0.15878 0.79764,-0.15272 0.56973,0.006 0.93634,0.0797 0.81468,0.16367 -0.2929,0.20223 -1.3121,0.1953 -1.61232,-0.0109 z m -19.45727,-0.24568 c -0.17317,-0.12107 -0.19688,-0.20277 -0.0594,-0.20468 0.12587,-0.002 0.28229,0.0904 0.34761,0.20468 0.14744,0.25805 0.0809,0.25805 -0.28823,0 z m 14.53944,0.0693 c -0.18101,-0.19582 -0.15985,-0.77334 0.0837,-2.28672 l 0.21188,-1.31613 h 0.73933 c 0.50299,0 0.7992,-0.11573 0.92662,-0.36202 0.25569,-0.49423 0.40189,-0.26747 0.1999,0.31005 -0.0975,0.27875 -0.34071,0.48047 -0.60209,0.49934 -0.24119,0.0174 -0.56824,0.0408 -0.72676,0.0519 -0.42363,0.0299 -0.75658,2.78348 -0.36867,3.04908 0.22775,0.15593 0.22254,0.18716 -0.0317,0.18982 -0.16734,0.002 -0.36189,-0.0592 -0.43234,-0.13539 z m 28.04132,-0.13982 c 0.93601,-0.46972 1.1129,-1.37627 0.44715,-2.29179 -0.30594,-0.42074 -0.56821,-0.54767 -1.13161,-0.54767 -0.91561,0 -1.52701,0.51525 -1.73243,1.46 l -0.1571,0.72249 -0.019,-0.7275 c -0.0234,-0.8995 0.58422,-2.02141 1.24119,-2.2916 0.92798,-0.38165 1.44164,-0.23741 2.24352,0.63003 0.67722,0.73255 0.75482,0.91378 0.64528,1.50696 -0.15453,0.8368 -0.7978,1.54402 -1.55634,1.71108 l -0.57646,0.12696 z m -93.481654,-0.81286 c 0.07496,-1.3645 0.193066,-1.43982 2.007472,-1.28057 1.516872,0.13314 1.588232,0.11987 1.717062,-0.31922 0.0739,-0.25198 0.17016,-0.41949 0.21383,-0.37225 0.0436,0.0472 -0.0159,0.38166 -0.13243,0.74316 l -0.21181,0.65727 h -1.614489 c -1.265618,0 -1.614492,0.0637 -1.614492,0.29479 0,0.16213 -0.05021,0.43625 -0.111507,0.60915 -0.08285,0.23353 0.05305,0.33625 0.528412,0.39945 0.636717,0.0847 0.636238,0.0853 -0.09533,0.11834 l -0.735263,0.0332 z m 69.448424,0.27015 c -0.54629,-1.14276 -0.51375,-1.15936 2.13536,-1.08927 l 2.42923,0.0643 -0.10672,-0.68784 c -0.0586,-0.37831 -0.17199,-0.86687 -0.25179,-1.08569 -0.0995,-0.27271 -0.0767,-0.35214 0.0723,-0.25252 0.28066,0.18762 0.4961,1.4296 0.34018,1.96101 -0.0663,0.22629 -0.35562,0.51454 -0.64274,0.64055 -0.60182,0.26413 -3.32059,0.37603 -3.65786,0.15054 -0.27954,-0.18687 -0.28881,-0.0172 -0.0279,0.51014 0.10941,0.22113 0.15486,0.40206 0.10101,0.40206 -0.0538,0 -0.22982,-0.27597 -0.39106,-0.61325 z m 21.7797,0.24949 c -0.239,-0.32967 -0.23221,-0.33703 0.0726,-0.0785 0.18495,0.1569 0.33627,0.32059 0.33627,0.36375 0,0.17107 -0.1578,0.061 -0.40882,-0.28527 z M 47.890817,144.30087 c -0.239012,-0.32967 -0.232215,-0.33702 0.07256,-0.0785 0.320075,0.27153 0.421863,0.44222 0.263717,0.44222 -0.0399,0 -0.191221,-0.16369 -0.336265,-0.36375 z m 56.516943,-0.12723 c 0,-0.38559 -0.42598,-1.97836 -0.8872,-3.31732 -0.1505,-0.4369 -0.19169,-0.73959 -0.0915,-0.67264 0.18775,0.12552 0.41766,0.81551 0.78317,2.35041 0.11571,0.48587 0.29227,0.88339 0.39235,0.88339 0.10009,0 0.44514,-0.56393 0.76678,-1.25318 0.53352,-1.14327 1.28432,-2.20929 1.43529,-2.03788 0.0695,0.0789 -1.95199,3.91406 -2.22217,4.21602 -0.10971,0.1226 -0.17669,0.0586 -0.17669,-0.1688 z m 42.07697,-0.66578 c -0.57238,-1.87606 0.49993,-3.6798 2.45896,-4.13623 0.76901,-0.17917 2.73325,0.43349 2.73325,0.85253 0,0.40361 -0.0774,0.60186 -0.21546,0.55206 -0.99544,-0.35893 -2.38939,-0.4558 -3.23155,-0.22456 -1.18473,0.32529 -1.60522,1.02326 -1.50739,2.50207 0.0435,0.65735 0.0586,1.19518 0.0337,1.19518 -0.025,0 -0.14714,-0.33347 -0.2715,-0.74105 z m -7.16952,0.18676 c -0.2185,-0.23637 -0.14132,-0.48499 0.15059,-0.48499 0.15327,0 0.36681,-0.16369 0.47453,-0.36375 0.26292,-0.4883 0.27093,0.0551 0.009,0.58527 -0.20601,0.4164 -0.41286,0.5024 -0.63374,0.26347 z m -0.9699,-1.04918 c -0.24845,-0.26876 -0.0948,-0.47997 0.64685,-0.88926 0.8797,-0.48547 1.3959,-1.22564 1.3959,-2.00155 0,-0.30783 0.0596,-0.43432 0.13911,-0.29518 0.34602,0.60562 -0.44868,2.3669 -1.18147,2.61849 -0.19165,0.0658 -0.46838,0.24935 -0.61495,0.4079 -0.14657,0.15855 -0.32001,0.23037 -0.38544,0.1596 z m -29.13377,-0.22894 c 0,-0.20792 0.49239,-1.0113 0.75195,-1.22687 0.16769,-0.13927 0.65897,-0.25618 1.09175,-0.25982 0.85472,-0.007 1.42287,0.45319 1.42287,1.15297 0,0.36257 -0.15042,0.39935 -1.63328,0.39935 -0.89831,0 -1.63329,-0.0295 -1.63329,-0.0656 z m 2.59404,-0.45402 c -0.0653,-0.11432 -0.49766,-0.20785 -0.96075,-0.20785 -0.46311,0 -0.89545,0.0935 -0.96076,0.20785 -0.0738,0.12916 0.29001,0.20786 0.96076,0.20786 0.67073,0 1.03454,-0.0787 0.96075,-0.20786 z m 54.76959,-0.21508 c 0.59775,-0.66218 0.88158,-0.8242 1.44383,-0.8242 0.76569,0 1.33715,0.49677 1.33388,1.15958 -0.002,0.36139 -0.16924,0.4036 -1.76183,0.44409 l -1.75988,0.0448 z m 1.81891,0.21508 c 0,-0.23795 -0.27389,-0.23795 -0.96075,0 -0.42872,0.14852 -0.40289,0.16865 0.2402,0.18714 0.3963,0.0114 0.72055,-0.0728 0.72055,-0.18714 z m -98.801703,0.0658 c 0.138711,-0.06 0.30444,-0.0526 0.368291,0.0164 0.06383,0.0691 -0.04968,0.11819 -0.252202,0.10916 -0.223842,-0.01 -0.269377,-0.0592 -0.116089,-0.12557 z m 60.755793,-0.0512 c -0.60882,-0.35738 -1.78049,-0.46912 -1.94664,-0.18566 -0.12307,0.20998 -0.16185,0.19072 -0.16409,-0.0815 -0.006,-0.75302 1.37766,-1.03521 2.35958,-0.48117 0.47095,0.26572 0.5504,0.26557 0.64506,-0.002 0.0594,-0.16738 0.0503,-0.46802 -0.02,-0.66808 -0.0958,-0.27226 -0.0727,-0.30443 0.0918,-0.12791 0.53878,0.57811 -0.30717,1.93211 -0.96564,1.54559 z m -59.899469,-0.15865 c 0.186957,-0.0527 0.446362,-0.0493 0.576453,0.008 0.130092,0.057 -0.02288,0.10006 -0.339916,0.0958 -0.317055,-0.004 -0.423492,-0.0508 -0.236537,-0.10352 z m 26.732835,-0.60046 c 0.06414,-0.18083 0.116634,-0.65939 0.116634,-1.06346 v -0.73468 l 1.912758,0.0831 c 1.801302,0.0782 1.917182,0.0584 1.988722,-0.33958 0.0543,-0.30178 0.0725,-0.27401 0.0639,0.0971 -0.006,0.28587 0.0547,0.63662 0.13629,0.77945 0.11507,0.20143 -0.30687,0.2597 -1.880557,0.2597 -2.02202,0 -2.028931,0.002 -2.028931,0.50647 0,0.41564 0.112004,0.52151 0.624493,0.5903 0.527294,0.0708 0.494197,0.089 -0.212715,0.11711 -0.691441,0.0275 -0.816884,-0.024 -0.720555,-0.29552 z M 137.0687,141.0136 c -0.23309,-0.66318 -0.23465,-0.77009 -0.009,-0.61923 0.0981,0.0656 0.2062,-0.0894 0.24018,-0.34454 0.0428,-0.32119 0.25738,-0.52425 0.69785,-0.66031 0.53447,-0.16511 0.69933,-0.12806 1.03211,0.23192 0.47057,0.50903 0.37095,0.73491 -0.62369,1.41412 -0.94018,0.64202 -1.10506,0.63931 -1.33748,-0.022 z m 1.37656,-0.30107 0.45363,-0.41852 -0.76701,0.0548 c -0.55294,0.0395 -0.78479,0.15629 -0.83073,0.41853 -0.0886,0.50588 0.57063,0.47433 1.14411,-0.0548 z m -25.31288,-0.0492 -0.36605,-0.46767 0.43234,0.39596 c 0.23779,0.21778 0.43235,0.42824 0.43235,0.46768 0,0.16634 -0.15464,0.0435 -0.49864,-0.39597 z m 44.60878,0.27988 c -0.083,-0.14527 -0.0562,-0.36666 0.0597,-0.49198 0.2835,-0.30668 0.39122,-0.1379 0.22606,0.3542 -0.0996,0.2969 -0.17431,0.3329 -0.28579,0.13778 z m 11.90192,-0.44986 c -0.31706,-0.21969 -0.47796,-0.39992 -0.35756,-0.40053 0.12039,-5.9e-4 0.42303,0.18287 0.67254,0.40771 0.57127,0.51482 0.43385,0.51169 -0.31498,-0.007 z m 3.55773,0.0661 c 0.002,-0.28768 0.038,-0.30384 0.17066,-0.0773 0.0923,0.15755 0.26387,0.22218 0.38137,0.14362 0.1175,-0.0786 0.21363,-0.0438 0.21363,0.0773 0,0.12107 -0.17293,0.22012 -0.3843,0.22012 -0.23902,0 -0.38319,-0.13751 -0.38136,-0.36375 z m 7.50202,0.0123 c 0.006,-0.20681 0.0826,-0.75016 0.17006,-1.20744 l 0.15897,-0.83144 0.0221,1.07899 c 0.0122,0.59344 -0.0643,1.13678 -0.17005,1.20744 -0.10568,0.0706 -0.18717,-0.0408 -0.18107,-0.24755 z m -63.70917,-0.0643 c 0.0653,-0.11432 0.20522,-0.20786 0.31091,-0.20786 0.10568,0 0.13871,0.0935 0.0734,0.20786 -0.0653,0.11432 -0.20522,0.20785 -0.31089,0.20785 -0.1057,0 -0.13872,-0.0935 -0.0735,-0.20785 z m 43.70217,-0.18191 c -0.25915,-0.11202 -0.23934,-0.22696 0.14411,-0.83615 l 0.44455,-0.70627 v 0.74596 c 0,0.81642 -0.13136,0.99416 -0.58866,0.79646 z m 13.6037,-0.0518 c 0.13035,-0.14205 0.28539,-0.20591 0.34455,-0.14192 0.0592,0.064 -0.0475,0.18022 -0.23698,0.25828 -0.27386,0.1128 -0.29593,0.0889 -0.10757,-0.11636 z m 7.30175,0 c 0.13034,-0.14205 0.28539,-0.20591 0.34455,-0.14192 0.0592,0.064 -0.0476,0.18022 -0.23699,0.25828 -0.27385,0.1128 -0.29592,0.0889 -0.10756,-0.11636 z m 6.34773,-0.009 c 0.11167,-0.12079 0.31644,-0.17871 0.45507,-0.12873 0.14391,0.0519 0.0568,0.14611 -0.20302,0.21962 -0.31962,0.0904 -0.39464,0.0633 -0.25205,-0.0909 z m -65.6338,-0.10605 c 0.18915,-0.0539 0.28119,-0.21804 0.21963,-0.3916 -0.0583,-0.16432 -0.007,-0.29876 0.11291,-0.29876 0.1204,0 0.29711,-0.21046 0.39268,-0.46768 0.16888,-0.45448 0.17413,-0.45203 0.18596,0.0869 0.0196,0.89379 -0.17701,1.21427 -0.72894,1.18806 -0.30562,-0.0145 -0.3782,-0.0611 -0.18224,-0.11695 z m 2.26843,-0.0602 c 0,-0.11073 0.12969,-0.14749 0.28821,-0.0817 0.15853,0.0658 0.28824,0.1564 0.28824,0.20133 0,0.0449 -0.12971,0.0817 -0.28824,0.0817 -0.15852,0 -0.28821,-0.0906 -0.28821,-0.20133 z m 27.28839,0.0577 c 0.002,-0.0925 0.0868,-0.30847 0.18921,-0.47995 0.16052,-0.26869 0.18668,-0.26321 0.18921,0.0397 0.002,0.19332 -0.0836,0.40929 -0.18921,0.47995 -0.10568,0.0706 -0.19082,0.0528 -0.18921,-0.0397 z m 10.80986,-0.6878 c 0,-0.51445 0.0374,-0.7249 0.0833,-0.46768 0.0459,0.25722 0.0459,0.67813 0,0.93535 -0.0459,0.25722 -0.0833,0.0468 -0.0833,-0.46767 z m -52.35347,0.48158 c 0.13871,-0.06 0.30444,-0.0526 0.36829,0.0164 0.0639,0.0691 -0.0496,0.11819 -0.2522,0.10916 -0.22385,-0.01 -0.26938,-0.0592 -0.11609,-0.12557 z m 14.27038,-0.81069 c 0.009,-0.24214 0.0547,-0.29139 0.11609,-0.12558 0.0554,0.15005 0.0487,0.32932 -0.0152,0.39839 -0.0639,0.0691 -0.10927,-0.0537 -0.10092,-0.27281 z m 15.07005,-0.29208 c -0.0673,-0.11783 0.01,-0.15268 0.18082,-0.0817 0.33289,0.13818 0.39379,0.28716 0.1174,0.28716 -0.0995,0 -0.23365,-0.0925 -0.29822,-0.20547 z m -0.90207,-0.35223 c 0.13872,-0.06 0.30444,-0.0526 0.36829,0.0164 0.0639,0.0691 -0.0497,0.1182 -0.2522,0.10918 -0.22383,-0.01 -0.26937,-0.0592 -0.11609,-0.12558 z m -42.273244,-0.20786 c 0.138706,-0.06 0.304432,-0.0526 0.368284,0.0164 0.06387,0.0691 -0.04968,0.11819 -0.25219,0.10917 -0.223848,-0.01 -0.269382,-0.0592 -0.116094,-0.12558 z m 2.584666,-0.007 c 0.292083,-0.0478 0.724432,-0.0465 0.960758,0.003 0.23634,0.0493 -0.003,0.0884 -0.531052,0.0869 -0.528421,-0.002 -0.72178,-0.0419 -0.429706,-0.0897 z m 49.680438,0.007 c 0.13871,-0.06 0.30444,-0.0526 0.36829,0.0164 0.0639,0.0691 -0.0497,0.11819 -0.25219,0.10917 -0.22385,-0.01 -0.26938,-0.0592 -0.1161,-0.12558 z M 30.813875,136.00443 c 0,-0.91258 2.950049,-3.11728 3.90305,-2.91692 0.353562,0.0743 0.338193,0.0929 -0.09672,0.11669 -0.284392,0.0156 -0.578264,0.1354 -0.65305,0.2663 -0.09418,0.16484 0.02389,0.20493 0.384113,0.13044 0.40014,-0.0827 0.495357,-0.0379 0.41286,0.19472 -0.05897,0.16625 -0.107225,0.33845 -0.107225,0.38267 0,0.0442 -0.123072,0.0293 -0.273492,-0.0331 -0.156633,-0.0651 -0.364778,0.071 -0.487137,0.31831 -0.117507,0.23751 -0.369249,0.43184 -0.559428,0.43184 -0.190179,0 -0.57691,0.2806 -0.859402,0.62357 -0.282492,0.34296 -0.577807,0.63136 -0.656254,0.64089 -0.07845,0.01 -0.337184,0.0407 -0.574971,0.0692 -0.255675,0.0307 -0.43234,-0.0611 -0.43234,-0.22458 z m 53.129791,-0.17718 c -2.367413,-0.47572 -4.809201,-1.56806 -5.340969,-2.38933 -0.395379,-0.61062 -0.126315,-1.89923 0.823056,-3.94176 0.80238,-1.7263 0.993316,-1.90515 2.308174,-2.16212 0.485368,-0.0949 0.562044,-0.0791 0.275543,0.0567 -0.419796,0.19884 -1.812754,3.51406 -1.812754,4.31433 0,0.94349 3.757219,2.15369 6.667149,2.14749 3.246866,-0.007 5.37759,-0.77101 7.040544,-2.52473 1.544891,-1.62921 1.990857,-3.48202 1.376646,-5.71935 -0.502624,-1.83088 -1.441767,-2.53882 -4.612106,-3.47672 -1.056833,-0.31264 -2.310612,-0.7723 -2.786191,-1.02147 -0.735747,-0.38548 -0.864676,-0.54477 -0.864676,-1.06832 0,-0.46771 0.156599,-0.72945 0.652905,-1.09124 1.053361,-0.76789 2.734293,-0.61423 4.919484,0.44969 1.481083,0.72112 1.501726,0.72141 1.984728,0.0283 0.632671,-0.90787 1.377905,-2.53056 1.377905,-3.00027 0,-0.2185 -0.194547,-0.55646 -0.43234,-0.75103 -0.430921,-0.3526 -0.430761,-0.35277 0.04799,-0.0537 0.767544,0.47939 0.698396,1.24355 -0.352308,3.89366 -1.07107,2.70151 -1.03171,2.67445 -3.106415,2.13536 -0.581256,-0.15103 -1.575638,-0.31638 -2.209737,-0.36742 l -1.152908,-0.0928 0.93094,0.20819 c 0.51201,0.1145 1.117288,0.33752 1.345057,0.49558 0.227769,0.15806 0.680344,0.3308 1.00571,0.38385 1.686701,0.27502 3.086483,1.7274 3.611533,3.74724 0.198051,0.76189 0.435835,1.38527 0.528412,1.38527 0.09258,0 0.168325,-0.0777 0.168325,-0.17262 0,-0.095 0.390469,-0.47596 0.867714,-0.84671 l 0.867706,-0.67407 -0.356131,-0.55633 c -0.875113,-1.36709 -1.055369,-4.30505 -0.301983,-4.92197 0.477227,-0.39078 0.564313,-0.38311 0.596931,0.0526 0.0542,0.72368 0.973225,3.67407 1.166149,3.74364 0.108748,0.0392 0.714869,-0.0737 1.346921,-0.25083 1.47078,-0.41226 4.02814,-0.49655 4.6036,-0.15173 0.2849,0.17072 0.43235,0.4533 0.43235,0.82861 v 0.56955 l -2.01371,-0.0806 c -4.359882,-0.17458 -6.948442,1.3438 -7.167748,4.2044 -0.100782,1.31467 0.352228,2.43011 1.38549,3.41147 1.335565,1.26849 3.926288,1.54041 5.592328,0.58696 0.52505,-0.30048 1.15997,-0.70569 1.41093,-0.90046 l 0.45627,-0.35412 -0.0771,0.87397 -0.0771,0.87397 h 2.35527 c 2.28773,0 2.35784,-0.0134 2.44528,-0.46768 0.0495,-0.25722 0.23374,-2.29379 0.40944,-4.52571 0.30813,-3.91436 0.31083,-5.66465 0.0101,-6.54266 -0.0783,-0.22864 0.002,-0.14443 0.17934,0.18714 0.39669,0.74331 0.4267,2.8452 0.10566,7.39963 -0.2425,3.44028 -0.44153,4.58492 -0.87962,5.05881 -0.43467,0.47021 -4.73245,0.36987 -5.23491,-0.12221 -0.45224,-0.44291 -0.60523,-0.45183 -1.00682,-0.0587 -0.17139,0.16779 -0.8623,0.45767 -1.53534,0.64419 -1.37701,0.38161 -3.235214,0.27036 -4.47948,-0.2682 -0.650369,-0.28149 -2.062401,-1.7603 -2.062401,-2.15993 0,-0.0863 -0.09027,-0.41374 -0.200588,-0.72765 l -0.200606,-0.57074 -1.140512,1.27655 c -1.491995,1.66996 -3.659782,2.8449 -5.821976,3.15551 -1.821026,0.2616 -2.335634,0.24903 -4.069307,-0.0993 z m -3.562522,-5.92045 c 0.703262,-1.87997 0.658417,-2.09041 -0.07572,-0.35532 -0.376832,0.89063 -0.679304,1.77922 -0.672151,1.97464 0.01067,0.29116 0.04074,0.28026 0.166614,-0.0604 0.08449,-0.22864 0.346047,-0.93015 0.581262,-1.55892 z m 99.988606,5.31292 c -0.95326,-0.32243 -1.95115,-0.967 -2.41426,-1.55945 -0.41754,-0.53415 -0.72245,-0.54895 -0.72245,-0.035 0,0.21598 -0.16539,0.6135 -0.36751,0.88339 -0.35634,0.47579 -0.45417,0.49071 -3.21853,0.49071 -1.56807,0 -3.01389,-0.072 -3.21294,-0.16002 -0.34039,-0.1505 -0.35366,-0.34046 -0.22302,-3.19356 0.0881,-1.9245 0.0715,-2.98846 -0.0455,-2.91023 -0.10145,0.0678 -0.47666,0.89104 -0.83381,1.82937 -0.35715,0.93833 -0.91898,2.01595 -1.24851,2.39471 -0.59037,0.67856 -0.62396,0.68866 -2.29343,0.68866 -2.10071,0 -2.36231,-0.21473 -3.07265,-2.52201 -0.43749,-1.42105 -0.53814,-1.5931 -0.77936,-1.33217 -0.17115,0.18515 -0.34244,1.04804 -0.44831,2.25847 -0.20527,2.34698 -0.43202,2.82873 -1.35602,2.88098 -3.00845,0.17013 -4.69114,0.0875 -5.20447,-0.25574 -0.2947,-0.19702 -0.28991,-1.63577 0.0207,-6.22595 0.10445,-1.54334 0.31765,-4.99783 0.47381,-7.67665 0.28108,-4.82215 0.28905,-4.87639 0.8026,-5.45623 0.28529,-0.32211 0.61062,-0.58572 0.72294,-0.58579 0.14143,-9e-5 0.16303,1.07055 0.0703,3.4811 -0.10755,2.79374 -0.58126,11.66907 -0.78494,14.70649 l -0.0418,0.62357 h 2.40189 2.40189 l 0.11598,-2.28643 c 0.0638,-1.25753 0.18567,-3.952 0.27082,-5.98769 0.13675,-3.26916 0.18231,-3.62103 0.39029,-3.01392 0.98668,2.88007 3.16156,8.92413 3.3438,9.29249 0.20508,0.41451 0.3507,0.44846 1.68632,0.39319 l 1.46185,-0.0605 1.4192,-3.42963 c 0.78055,-1.8863 1.6813,-4.03762 2.00167,-4.7807 l 0.58247,-1.35107 -0.10921,3.3257 c -0.0601,1.82914 -0.16685,4.37799 -0.2373,5.66409 l -0.12808,2.3384 h 2.42759 c 2.36314,0 2.42994,-0.0124 2.5162,-0.46769 0.10948,-0.57779 0.33051,-6.12054 0.39993,-10.02908 0.11599,-6.53041 0.17967,-8.17842 0.31259,-8.08956 0.0767,0.0513 0.0902,1.7989 0.0299,3.88356 -0.12662,4.37815 0.0482,7.641 0.43903,8.19254 0.25518,0.36014 0.27404,0.35583 0.38981,-0.0892 0.0669,-0.25723 0.1764,-0.46815 0.24334,-0.46871 0.067,-5.7e-4 0.3699,-0.21588 0.67325,-0.47846 l 0.55154,-0.47742 -0.58588,-1.13244 c -0.63833,-1.23382 -0.83258,-2.70096 -0.45726,-3.45346 0.22692,-0.45492 1.94132,-1.21842 2.38041,-1.06009 0.12589,0.0454 -0.17714,0.20551 -0.67339,0.35581 -0.87438,0.26482 -1.09201,0.48358 -0.72511,0.72888 0.0975,0.0651 0.36359,0.7244 0.59143,1.465 0.22783,0.7406 0.49019,1.39733 0.58302,1.45939 0.0928,0.0621 0.75621,-0.0357 1.4742,-0.21742 0.71798,-0.18164 1.93456,-0.33411 2.7035,-0.33881 1.6017,-0.01 2.34886,0.3583 2.34886,1.1572 0,0.48628 -0.018,0.49064 -1.5914,0.38445 -1.99276,-0.13449 -4.50934,0.22023 -5.52021,0.77809 -1.00104,0.55244 -1.83922,1.82273 -2.12996,3.22803 -0.19943,0.96401 -0.1858,1.24982 0.0979,2.05352 0.1813,0.51351 0.62544,1.21461 0.98698,1.55799 0.67038,0.63671 2.25834,1.2716 3.14757,1.25845 1.0909,-0.0162 2.97283,-0.60618 3.88082,-1.21675 0.5289,-0.35566 0.99914,-0.64666 1.04496,-0.64666 0.0459,0 0.0833,0.36813 0.0833,0.81806 v 0.81805 l 2.01833,0.0654 2.0183,0.0654 0.0915,-0.62357 c 0.16492,-1.1239 0.45584,-9.12826 0.35885,-9.87319 -0.0715,-0.5494 -0.0451,-0.65117 0.10809,-0.41572 0.17382,0.26721 0.20324,0.25794 0.20577,-0.0649 0.004,-0.55483 0.55609,-2.26196 0.88598,-2.74119 0.25877,-0.37595 0.51977,-0.41732 2.72794,-0.43252 2.21423,-0.0152 2.2521,-0.01 0.40638,0.0584 l -2.03541,0.0753 -0.14001,4.82616 c -0.077,2.6544 -0.19984,5.74472 -0.27293,6.86739 -0.0731,1.12267 -0.0957,2.08141 -0.0503,2.13053 0.0454,0.0491 1.09472,0.0893 2.33179,0.0893 h 2.24924 l 0.12077,-0.81699 c 0.0664,-0.44934 0.21362,-2.2499 0.3271,-4.00124 0.12508,-1.93038 0.31784,-3.43892 0.48951,-3.83099 0.51735,-1.18161 2.03957,-1.50536 2.86742,-0.60986 0.60226,0.6515 0.60528,0.36923 -0.0828,7.74138 l -0.13968,1.49622 2.54283,0.0627 2.54283,0.0627 0.11872,-1.87071 c 0.0653,-1.02889 0.19418,-3.64789 0.28643,-5.81998 l 0.16772,-3.94929 -0.0554,5.61213 c -0.0323,3.27164 -0.13923,5.83707 -0.25634,6.15149 -0.41853,1.12368 -0.56427,1.1707 -3.72838,1.20277 -1.61797,0.0164 -3.06262,-0.0555 -3.21034,-0.15991 -0.3158,-0.22307 -0.31773,-1.9286 -0.006,-5.08816 0.21648,-2.19242 0.19979,-3.20901 -0.059,-3.59168 -0.19956,-0.29511 -0.854,-0.13138 -0.9883,0.24725 -0.0546,0.15384 -0.16069,1.71134 -0.23579,3.46112 -0.0819,1.90786 -0.24303,3.45753 -0.40252,3.8712 -0.41669,1.08065 -1.23127,1.34033 -3.93191,1.25351 -1.95689,-0.0629 -2.29398,-0.12571 -2.52721,-0.47076 -0.26518,-0.39232 -0.27215,-0.39232 -0.47479,0 -0.1803,0.34905 -0.47604,0.40667 -2.3977,0.46717 -1.60963,0.0507 -2.37078,-0.0118 -2.86481,-0.23507 -0.42227,-0.19085 -0.78438,-0.23651 -0.97252,-0.12261 -0.43846,0.26543 -2.95454,0.81059 -3.66647,0.79441 -0.33656,-0.008 -0.973,-0.13603 -1.41432,-0.28531 z m 13.13524,-10.1326 c -0.0614,-0.16582 -0.10686,-0.11656 -0.11608,0.12558 -0.008,0.21912 0.0371,0.34188 0.10092,0.27281 0.0639,-0.0691 0.0707,-0.24834 0.0152,-0.39839 z M 139.6255,135.1212 c -1.16001,-0.32011 -2.7341,-1.28955 -3.1719,-1.95349 -0.40847,-0.61946 -0.43698,-0.8687 -0.43698,-3.81965 0,-3.03263 -0.0175,-3.17465 -0.44504,-3.60643 -0.24478,-0.24722 -0.47968,-0.41201 -0.52201,-0.36622 -0.0423,0.0458 -0.17347,1.43484 -0.29142,3.08679 -0.43306,6.06559 -0.40014,5.86992 -1.04735,6.22279 -0.73332,0.39982 -5.84392,0.35211 -6.10135,-0.057 -0.0874,-0.13878 -0.11469,-0.67323 -0.0608,-1.18768 0.0539,-0.51445 0.15557,-2.21991 0.22594,-3.78993 0.14105,-3.14669 0.0379,-3.56116 -0.84364,-3.38825 -0.26874,0.0527 -0.55926,0.17226 -0.6456,0.26565 -0.0863,0.0934 -0.24549,1.75707 -0.35369,3.69706 -0.22868,4.10061 -0.27115,4.36883 -0.72189,4.5603 -0.549,0.23319 -5.86125,0.11886 -6.14087,-0.13217 -0.29997,-0.2693 -0.33902,-2.78609 -0.0663,-4.26832 0.10098,-0.54865 0.27671,-2.77472 0.39052,-4.94682 0.22667,-4.32566 0.40552,-5.39326 0.95699,-5.71253 0.74827,-0.4332 0.82612,-0.28871 0.69798,1.29557 -0.0671,0.82883 -0.20673,3.23737 -0.31043,5.35231 -0.10372,2.11495 -0.24385,4.61702 -0.31143,5.56017 l -0.12286,1.71482 h 2.52439 c 1.38841,0 2.52506,-0.0702 2.52587,-0.1559 7.3e-4,-0.0857 0.12951,-2.07337 0.28597,-4.41695 0.27623,-4.13736 0.29882,-4.27464 0.77785,-4.72874 0.73248,-0.69437 2.03806,-0.65376 2.57162,0.08 0.35341,0.48601 0.39653,0.81954 0.38297,2.96196 -0.008,1.32786 -0.0743,3.18236 -0.14658,4.1211 -0.0722,0.93875 -0.10137,1.80395 -0.0648,1.92267 0.0414,0.13422 0.99447,0.21587 2.51992,0.21587 h 2.4534 l 0.12608,-2.44232 c 0.35683,-6.91218 0.36643,-8.44671 0.0588,-9.40551 -0.24672,-0.76908 -0.25058,-0.86363 -0.0218,-0.53189 0.15305,0.22192 0.27827,0.52591 0.27827,0.67554 0,0.14963 0.0865,0.27205 0.19215,0.27205 0.10568,0 0.19226,-0.30398 0.19239,-0.67553 2.8e-4,-0.80225 0.66802,-1.73141 1.38398,-1.92579 0.43846,-0.11904 0.5129,-0.2736 0.6324,-1.31305 0.16483,-1.43366 0.32093,-1.75768 0.51648,-1.07209 0.13016,0.4563 0.14101,0.43948 0.0917,-0.14209 -0.0444,-0.52363 0.0377,-0.70577 0.39804,-0.88338 0.60587,-0.29863 0.87911,-0.28429 0.68743,0.0361 -0.0855,0.14291 -0.19868,0.954 -0.25153,1.80243 l -0.0961,1.54261 -0.9596,0.0861 c -0.52778,0.0474 -1.02366,0.19501 -1.10194,0.32811 -0.10964,0.18643 -0.20125,2.57321 -0.13891,3.61965 0.005,0.0857 0.29534,0.13013 0.64495,0.0987 1.05155,-0.0947 1.11712,0.16149 0.86832,3.39294 -0.1211,1.57297 -0.17514,3.22327 -0.12007,3.66736 0.10216,0.82393 0.65461,1.96133 0.84999,1.74998 0.0594,-0.0643 -0.0122,-0.28145 -0.15948,-0.48253 -0.14715,-0.20107 0.11102,-0.0204 0.57373,0.40149 1.08816,0.99217 2.36938,1.29151 4.88991,1.14247 1.03848,-0.0614 1.92154,-0.14775 1.96233,-0.19187 0.0408,-0.0442 0.15745,-0.82423 0.25926,-1.73356 l 0.18509,-1.65333 -0.0338,1.80365 c -0.0541,2.88846 -0.4203,3.18645 -4.16503,3.38909 -0.8983,0.0486 -1.91157,0.0115 -2.25173,-0.0823 z m -1.55892,-18.56536 c -0.14259,-0.15425 -0.1676,-0.0731 -0.084,0.27265 0.0679,0.28106 0.15504,0.37528 0.20302,0.2196 0.0462,-0.14995 -0.007,-0.37147 -0.11901,-0.49225 z m -26.73965,18.13353 c -0.41635,-0.45038 -0.43143,-0.57452 -0.31313,-2.57592 0.0683,-1.15649 0.2075,-2.94454 0.3092,-3.97344 0.10169,-1.02889 0.27984,-3.21713 0.39587,-4.86276 0.219,-3.10587 0.36148,-3.55544 1.12687,-3.55544 0.36368,0 0.38767,0.095 0.30185,1.19518 -0.12584,1.6131 -0.43753,6.53928 -0.57539,9.09374 -0.0617,1.14321 -0.15813,2.42416 -0.2143,2.84657 l -0.10214,0.768 2.60738,0.0634 c 1.95324,0.0475 2.63043,-0.002 2.69919,-0.19641 0.0505,-0.1429 0.27047,-2.99573 0.48882,-6.33963 0.21837,-3.34389 0.43042,-6.17334 0.47123,-6.28766 0.2942,-0.82393 -0.0916,8.14919 -0.50209,11.67727 -0.2743,2.35774 -0.28399,2.36453 -3.57974,2.50566 -2.59777,0.11124 -2.689,0.10074 -3.11362,-0.35858 z m -98.479185,-3.85186 c -3.4720688,-0.82723 -8.7975734,-3.32759 -10.8034984,-5.0723 -1.93964893,-1.68707 -1.65744131,-2.60318 1.9968078,-6.48208 2.1886209,-2.32316 4.0549443,-4.01843 6.6107336,-6.00487 2.054963,-1.59717 3.086126,-2.13402 4.527657,-2.3572 0.340797,-0.0528 1.091702,-0.52492 1.729359,-1.08738 1.85487,-1.63614 6.078915,-4.36364 7.371933,-4.76012 0.264208,-0.081 -0.370988,0.33336 -1.411547,0.92084 -2.322933,1.31148 -3.026632,1.78814 -5.181565,3.50976 -1.245651,0.99517 -1.620505,1.39681 -1.418041,1.51938 0.172232,0.10426 0.717116,-0.065 1.45613,-0.45219 0.649503,-0.34034 1.221091,-0.6188 1.270197,-0.6188 0.04911,0 0.562664,-0.32757 1.141241,-0.72792 2.949582,-2.04106 11.145444,-5.50396 14.23152,-6.01309 1.106012,-0.18247 0.427039,0.17667 -0.927628,0.49065 -0.615877,0.14276 -1.086834,0.29519 -1.046572,0.33874 0.04026,0.0435 0.933269,-0.11275 1.984457,-0.34735 1.05119,-0.23459 2.646231,-0.55518 3.544538,-0.71243 l 1.633284,-0.2859 -1.441133,0.0938 c -0.792623,0.0516 -1.787005,0.1412 -2.209738,0.19911 -0.697921,0.0956 -0.716549,0.0868 -0.202561,-0.0956 0.311323,-0.11047 1.738046,-0.35557 3.170493,-0.54467 3.104829,-0.40985 6.536375,-0.2973 9.13759,0.29973 2.07372,0.47595 1.218416,0.59138 -0.99189,0.13386 -0.967946,-0.20036 -2.467269,-0.29884 -4.196191,-0.27562 l -2.690116,0.0361 3.074419,0.14374 c 1.69093,0.0791 3.549992,0.25639 4.13125,0.39408 0.581257,0.1377 1.316235,0.27441 1.633284,0.3038 0.663906,0.0615 1.825436,-0.27768 1.825436,-0.53311 0,-0.69016 4.674553,0.89175 8.764384,2.96596 2.58034,1.30865 5.371674,3.14041 6.325519,4.15101 0.615648,0.65228 1.139086,1.02772 1.441137,1.03369 0.457561,0.009 0.453944,0.0195 -0.102117,0.2949 -0.317054,0.15704 -0.464925,0.29313 -0.328609,0.30242 0.444067,0.0303 1.723383,-0.78915 2.151676,-1.37815 0.301339,-0.4144 0.399345,-0.78972 0.350608,-1.34262 -0.05309,-0.60186 -0.01504,-0.72017 0.176352,-0.54836 0.52232,0.46891 0.203929,1.754 -0.77707,3.13637 -1.326406,1.86912 -2.738732,1.8216 -4.743454,-0.15959 -0.561021,-0.55443 -1.721924,-1.2231 -1.861448,-1.07218 -0.05301,0.0573 0.261467,0.34861 0.698824,0.64727 2.136868,1.4592 8.656518,9.47548 8.656518,10.64368 0,0.61313 -0.725753,1.52442 -1.488691,1.86925 -0.360564,0.16297 -1.509011,0.35254 -2.552103,0.42129 -2.288878,0.15084 -2.600958,-0.008 -3.457385,-1.75952 -0.821639,-1.68037 -2.073983,-3.35568 -4.334189,-5.79804 -3.774437,-4.0786 -8.898208,-6.90163 -14.515571,-7.99759 -2.024597,-0.39501 -3.150213,-0.47022 -7.562201,-0.50532 -4.390952,-0.035 -5.2116,-0.0893 -5.367008,-0.35586 -0.126198,-0.21642 -0.08772,-0.47267 0.123254,-0.82098 0.23332,-0.3852 0.735941,-0.63572 2.100439,-1.04691 2.380012,-0.71722 4.318605,-0.97677 7.512241,-1.00576 2.688378,-0.0244 3.541775,-0.23123 1.936283,-0.46927 -1.489739,-0.22089 -4.084925,-0.14778 -6.603707,0.18602 -3.198664,0.4239 -4.61436,0.75607 -7.584231,1.77955 -1.373881,0.47346 -2.905624,0.99642 -3.403875,1.16213 -1.104113,0.36721 -6.73071,3.44042 -7.596778,4.14932 -0.731802,0.599 -0.794327,1.14244 -0.192151,1.6701 0.770533,0.67517 1.475854,1.73344 1.364511,2.04731 -0.05974,0.16839 -0.009,0.30616 0.11281,0.30616 0.151202,0 0.179178,0.24355 0.08822,0.76801 -0.178801,1.03099 -4.738916,11.03527 -5.354147,11.74628 -0.632946,0.73148 -0.616178,0.85553 0.178185,1.31829 0.782078,0.4556 0.778017,0.59224 -0.0093,0.31277 -0.307765,-0.10924 -0.927063,-0.30034 -1.376216,-0.42466 -0.449154,-0.12431 -0.816644,-0.32226 -0.816644,-0.43988 0,-0.12347 0.172608,-0.15459 0.408366,-0.0736 0.274803,0.0943 0.365364,0.065 0.276887,-0.0899 -0.07231,-0.12657 -0.256077,-0.23013 -0.408365,-0.23013 -0.152288,0 -0.276888,-0.0566 -0.276888,-0.12589 0,-0.48414 0.664944,-2.73267 1.059249,-3.58187 0.262879,-0.56616 0.477961,-1.11441 0.477961,-1.21833 0,-0.10391 0.259405,-0.63141 0.576454,-1.17221 0.782091,-1.33403 0.728164,-1.62772 -0.09563,-0.52081 -2.596962,3.48944 -3.455275,4.30857 -4.114669,3.92683 -0.456567,-0.26432 -0.6727437,-0.99426 -0.55389,-1.87026 0.07611,-0.56094 0.05177,-0.58962 -0.314816,-0.37108 -0.2185156,0.13027 -0.4968423,0.2551 -0.6185047,0.27741 -0.2763783,0.0507 -1.4120805,0.94898 -1.4120805,1.11692 0,0.0682 -0.2600871,0.29015 -0.5779712,0.49328 -0.5014445,0.32042 -0.5925971,0.32809 -0.688431,0.058 -0.065042,-0.18335 -0.2361451,-0.25921 -0.4161439,-0.18449 -0.2302131,0.0956 -0.2740628,0.0378 -0.1776086,-0.23415 0.070438,-0.19856 -0.00102,-0.63107 -0.1587925,-0.96111 -0.1577765,-0.33005 -0.2938892,-0.86196 -0.3024727,-1.18201 l -0.015606,-0.58193 -0.2639535,0.62357 c -0.2253191,0.5323 -0.2652224,0.55745 -0.2726205,0.17184 -0.010501,-0.54727 0.496853,-1.21793 2.4346762,-3.21836 0.8132013,-0.83949 1.6985887,-1.79036 1.9675291,-2.11308 0.6800287,-0.81599 3.4047618,-3.29546 4.3320038,-3.94206 0.714811,-0.49847 0.842527,-0.5211 1.824799,-0.32324 0.580908,0.11701 1.104193,0.29676 1.162857,0.39944 0.05866,0.10267 0.534525,0.27914 1.057468,0.39213 0.522944,0.11299 1.145359,0.2653 1.383145,0.33846 0.724511,0.22291 0.484824,-0.19675 -0.517978,-0.9069 -0.522673,-0.37014 -1.097718,-0.94291 -1.277876,-1.27282 -0.193905,-0.35508 -0.614685,-0.70234 -1.031243,-0.85106 -1.885579,-0.67315 -6.2532473,2.14528 -11.1132757,7.17135 -3.4597481,3.57795 -3.8173686,4.59878 -2.1603593,6.16677 0.5239738,0.49582 1.2373345,1.07093 1.5852465,1.27801 l 0.6325671,0.37652 -0.5764534,-0.47782 c -0.7827,-0.64878 -2.3766708,-2.33306 -2.017587,-2.1319 0.1585245,0.0888 0.9799709,0.72769 1.8254361,1.41974 1.9134702,1.56626 2.198126,1.72798 5.8606097,3.32969 3.278804,1.43392 5.129591,1.93978 5.760559,1.5745 0.309895,-0.17941 0.388277,-0.16145 0.388277,0.089 0,0.42968 -0.996939,0.95251 -1.767856,0.92713 -0.348718,-0.0115 -1.152841,-0.14448 -1.78694,-0.29556 z m 3.185076,-6.64677 c 0.428311,-0.91457 0.914714,-1.94347 1.080893,-2.28643 0.166178,-0.34296 0.40839,-0.85741 0.538249,-1.14321 0.129858,-0.2858 0.553896,-1.08085 0.942309,-1.76678 0.687867,-1.21476 0.875193,-2.38567 0.402309,-2.51469 -0.544603,-0.14859 -4.734627,8.07385 -4.961262,9.73591 l -0.106042,0.77766 0.662398,-0.5698 c 0.394046,-0.33897 0.977885,-1.24346 1.441146,-2.23266 z m -1.78446,-3.92675 c 0.603541,-0.78786 1.379209,-1.84014 1.723706,-2.33839 0.344497,-0.49826 0.673856,-0.90592 0.731908,-0.90592 0.147523,0 -0.05293,0.33357 -1.061757,1.76678 -1.379993,1.96053 -3.003719,4.60355 -2.625107,4.27302 0.188894,-0.16491 0.60907,-0.72612 0.933724,-1.24714 1.466987,-2.35429 3.858742,-5.60719 4.035772,-5.48883 0.107332,0.0717 0.157378,0.008 0.111211,-0.14193 -0.04616,-0.14982 -0.2815,-0.28815 -0.522962,-0.30739 -0.241461,-0.0192 -0.510023,-0.15927 -0.596802,-0.31115 -0.115392,-0.20197 -0.589128,0.19394 -1.763333,1.47363 -1.926705,2.0998 -3.73963,4.93676 -3.907576,6.11478 l -0.118534,0.83143 0.981201,-1.14322 c 0.53966,-0.62876 1.475007,-1.78782 2.078549,-2.57567 z m 2.730633,-3.86788 c 0.113119,-0.22864 0.248906,-0.41572 0.301748,-0.41572 0.05284,0 0.0035,0.18708 -0.109597,0.41572 -0.11312,0.22864 -0.248907,0.41571 -0.301748,0.41571 -0.05284,0 -0.0035,-0.18707 0.109597,-0.41571 z m -8.1909826,5.82199 c 1.0369627,-0.91351 6.4616226,-6.89481 6.4616226,-7.12467 0,-0.0485 -0.443023,-0.0713 -0.984495,-0.0506 -0.836935,0.0318 -1.14213,0.1694 -2.03621,0.91773 -0.578443,0.48415 -1.003261,0.93269 -0.94404,0.99675 0.05922,0.064 -0.663793,1.00565 -1.6066979,2.09243 -2.0204524,2.32874 -2.7783331,3.45196 -2.6235559,3.88827 0.1801432,0.50781 0.4820995,0.38241 1.7333762,-0.7199 z m 62.2801656,-0.20748 c 0.06732,-0.11782 -0.0098,-0.15267 -0.180812,-0.0817 -0.332886,0.13818 -0.393789,0.28716 -0.117397,0.28716 0.09945,0 0.233639,-0.0924 0.298209,-0.20547 z m -0.14275,-0.44256 c 0.237786,-0.0952 0.432339,-0.24728 0.432339,-0.33795 0,-0.0907 -0.32426,-0.60306 -0.720569,-1.13866 -0.39631,-0.53561 -1.023208,-1.41659 -1.393096,-1.95775 -1.950922,-2.85423 -6.233127,-7.07774 -8.320625,-8.20658 -0.654967,-0.35418 -1.455757,-0.85895 -1.779522,-1.12171 -0.323758,-0.26276 -0.89064,-0.61423 -1.259723,-0.78105 -0.369085,-0.16682 -0.916642,-0.5495 -1.216794,-0.85041 -0.300151,-0.30091 -0.727656,-0.54768 -0.950011,-0.54838 -0.222354,-7.1e-4 -0.663685,-0.15809 -0.980734,-0.34975 -1.595845,-0.96469 -2.684196,-1.46921 -2.940139,-1.36297 -0.247873,0.10289 -0.246231,0.14809 0.01283,0.35299 0.358569,0.28363 -1.398167,0.22762 -3.797973,-0.12108 -1.693503,-0.24607 -7.047913,-0.28006 -9.883627,-0.0627 -1.812664,0.13892 -4.884303,0.91206 -5.266616,1.32562 -0.253936,0.2747 0.03108,0.27739 2.180041,0.0207 2.462305,-0.29416 4.631429,-0.26822 7.397819,0.0885 1.37388,0.17715 2.973539,0.36973 3.554796,0.42796 2.580509,0.25852 6.92607,1.91712 9.562717,3.64986 0.680363,0.44712 1.314655,0.81294 1.409537,0.81294 0.09488,0 0.172512,0.10354 0.172512,0.23009 0,0.12655 0.126321,0.17767 0.280714,0.11358 0.155689,-0.0647 0.618629,0.18005 1.039412,0.54936 0.417291,0.36625 1.292657,1.13357 1.945271,1.70518 1.814346,1.58914 4.645419,4.83795 5.674001,6.51123 l 0.92274,1.50108 1.74618,-0.13845 c 0.960402,-0.0761 1.94074,-0.21635 2.178525,-0.31156 z M 41.144239,106.06412 c 0.239019,-0.0497 0.584891,-0.0478 0.768604,0.004 0.183714,0.052 -0.01184,0.0927 -0.43458,0.0904 -0.422733,-0.002 -0.573043,-0.0449 -0.334024,-0.0946 z m 24.493082,14.33323 c -0.721425,-1.23255 -1.506556,-2.26619 -2.247525,-2.95889 -0.701737,-0.65603 -0.612461,-0.45642 0.281927,0.6304 0.158524,0.19263 0.707263,0.92395 1.219416,1.62517 0.989408,1.35463 1.297203,1.64475 0.746182,0.70332 z m -54.512811,-3.3364 c -0.115887,-0.12536 -2.1108963,1.80242 -2.2881672,2.21106 -0.066255,0.15273 0.4437673,-0.25816 1.1333837,-0.9131 0.6896175,-0.65494 1.2092705,-1.23902 1.1547835,-1.29796 z m 3.740821,-0.35305 c 0.248211,-0.28581 0.408058,-0.51965 0.355216,-0.51965 -0.05284,0 -0.299156,0.23384 -0.547366,0.51965 -0.248211,0.2858 -0.408058,0.51963 -0.355216,0.51963 0.05284,0 0.299156,-0.23383 0.547366,-0.51963 z m 1.441595,-1.52379 c -0.09371,-0.10137 -0.865141,0.76199 -0.865141,0.96825 0,0.0596 0.215829,-0.11097 0.47962,-0.37905 0.263791,-0.26807 0.437276,-0.53321 0.385521,-0.5892 z m 39.870899,-3.65568 c 0,-0.1323 -1.27051,-0.95322 -1.463814,-0.94582 -0.09321,0.004 0.176402,0.23693 0.599135,0.51858 0.809165,0.53911 0.864679,0.56654 0.864679,0.42724 z m 9.502323,-1.21213 c -0.119786,-0.33405 -3.658923,-2.81512 -5.242824,-3.67542 -3.415751,-1.85527 -7.694008,-3.57261 -8.760221,-3.51645 l -0.591283,0.0311 0.576453,0.0836 c 0.787552,0.11419 2.754846,0.91319 5.956686,2.41925 3.100894,1.45859 5.27772,2.71811 6.91744,4.00244 1.310923,1.0268 1.26811,1.00226 1.143749,0.65546 z m -13.066727,-0.9572 c -0.326777,-0.31816 -3.620668,-1.65811 -4.409867,-1.79392 -0.468098,-0.0806 -0.107969,0.11637 0.921098,0.50367 0.929338,0.34977 2.010188,0.81901 2.40189,1.04277 0.729251,0.41659 1.422743,0.5745 1.086879,0.24748 z m 5.00384,-2.52737 c -0.360719,-0.63136 -5.480314,-2.78941 -6.30346,-2.65707 -0.26657,0.0429 0.106615,0.24887 1.021002,0.56366 1.889728,0.65055 3.774725,1.42881 4.611627,1.90401 0.799195,0.45377 0.826241,0.46141 0.670831,0.1894 z m -25.455704,22.71132 c 0.0014,-0.54303 0.04972,-1.17439 0.107282,-1.40304 0.115753,-0.45978 2.156799,-1.86133 3.058685,-2.10034 0.316003,-0.0837 0.689669,-0.2768 0.830367,-0.429 0.1407,-0.15219 0.555779,-0.27672 0.922397,-0.27672 h 0.666581 l -0.488154,0.56948 c -0.268485,0.31322 -0.488154,0.65325 -0.488154,0.75563 0,0.31951 -0.99401,1.19984 -1.239646,1.09788 -0.128432,-0.0533 -0.233513,0.0345 -0.233513,0.19503 0,0.16059 0.07206,0.29197 0.160126,0.29197 0.08807,0 0.160126,0.18028 0.160126,0.40063 0,0.4884 -0.861834,1.25949 -1.419009,1.26959 -0.223534,0.004 -0.622597,0.14104 -0.886805,0.30442 -0.909567,0.56246 -1.153192,0.41938 -1.150283,-0.67553 z m 0.640137,-0.37272 c -0.06258,-0.17641 -0.154994,-0.27617 -0.205362,-0.22168 -0.05037,0.0545 -0.03459,0.19882 0.03508,0.32074 0.18947,0.33164 0.300212,0.26721 0.170284,-0.0991 z m 1.80351,-1.2965 c 0.204571,0.0579 0.371862,7.9e-4 0.371759,-0.12608 -1.03e-4,-0.12722 -0.245096,-0.25092 -0.544429,-0.27491 -0.446262,-0.0357 -0.54371,0.0391 -0.541298,0.41572 0.0022,0.34614 0.04472,0.38795 0.172483,0.16968 0.09325,-0.15929 0.336916,-0.24228 0.541485,-0.18441 z m 67.568356,2.22274 c -0.39372,-0.12347 -0.68087,-0.3972 -0.83274,-0.79382 -0.47184,-1.23224 0.31417,-1.78921 2.75214,-1.95019 l 1.31848,-0.087 -0.0879,1.14731 c -0.0666,0.86886 -0.19357,1.23984 -0.52313,1.52851 -0.47136,0.41288 -1.59372,0.47921 -2.6268,0.15524 z m 81.88085,-0.0225 c -0.53892,-0.33057 -0.66622,-0.5886 -0.66959,-1.35717 -0.004,-0.94748 0.70825,-1.30444 2.60337,-1.30444 h 1.47249 l -0.13334,0.96192 c -0.18645,1.34494 -0.22985,1.42351 -0.93939,1.70106 -0.78871,0.30852 -1.82937,0.3079 -2.33354,-0.002 z m -40.93951,-0.46363 c -0.32038,-0.25451 -0.37039,-0.54034 -0.35456,-2.02661 0.0101,-0.95166 0.0783,-2.24475 0.15148,-2.87352 l 0.13306,-1.1432 1.73206,0.067 1.73207,0.067 -0.38546,0.6605 c -0.3967,0.67977 -0.90523,0.90345 -2.15457,0.9477 -0.6761,0.024 -0.69768,0.05 -0.81665,0.98896 -0.29113,2.2976 -0.0863,3.25295 0.74249,3.4629 0.37464,0.0949 0.37436,0.0979 -0.0114,0.12147 -0.21758,0.0133 -0.56345,-0.10923 -0.7686,-0.27219 z m 1.59656,0.15864 c 0.13211,-0.0577 0.34827,-0.0577 0.48038,0 0.1321,0.0577 0.024,0.10483 -0.24019,0.10483 -0.2642,0 -0.37229,-0.0472 -0.24019,-0.10483 z m -59.968021,-1.44497 c -1.145369,-0.40513 -2.03635,-0.78651 -1.979965,-0.8475 0.05643,-0.061 0.511724,0.0399 1.011857,0.22425 1.061459,0.39124 1.22516,0.40825 1.22516,0.1273 0,-0.11432 -0.108079,-0.20831 -0.240181,-0.20886 -0.418468,-0.002 -2.907802,-1.46406 -3.476326,-2.04208 -1.634781,-1.66206 -1.992164,-4.60882 -0.8488,-6.99867 0.488273,-1.02059 2.54511,-2.98959 3.700181,-3.54217 1.61404,-0.77215 1.730638,-0.60568 0.1562,0.22301 -2.080317,1.09496 -3.134092,2.78529 -3.134092,5.02732 0,2.42963 1.846009,4.14866 5.852417,5.44983 2.420355,0.78607 3.066111,1.20331 3.141452,2.02981 0.140248,1.53865 -2.008219,1.76024 -5.407903,0.55776 z m -3.39508,-10.65166 c -6.98e-4,-0.0732 -0.173063,0.14742 -0.383042,0.49038 -0.20997,0.34296 -0.380433,0.81064 -0.378814,1.03929 0.0014,0.25444 0.150405,0.0642 0.383041,-0.49038 0.209041,-0.49835 0.379512,-0.96603 0.378815,-1.03929 z m -69.269218,10.77928 c -0.313286,-0.14562 -0.324258,-0.18133 -0.05937,-0.19324 0.178707,-0.008 0.378364,0.0789 0.44368,0.19324 0.136555,0.23902 0.129877,0.23902 -0.384303,0 z m 135.630729,-0.14384 c -0.65873,-0.13938 -1.01782,-0.73785 -1.04269,-1.73775 -0.037,-1.49008 0.14494,-2.13527 0.77373,-2.74321 0.58902,-0.56947 0.60193,-0.57161 3.45911,-0.57161 1.57735,0 2.90815,0.0701 2.95735,0.15589 0.0491,0.0857 -1.24271,0.12794 -2.87092,0.0938 l -2.96038,-0.0621 v 0.49931 c 0,0.27463 -0.0533,1.05087 -0.11845,1.72499 l -0.11846,1.22567 2.95269,-0.0344 2.95268,-0.0344 0.12997,-1.38799 c 0.19256,-2.0565 0.36628,-1.90807 0.26402,0.22559 -0.0805,1.67854 -0.13635,1.89917 -0.58842,2.32242 -0.46556,0.43588 -0.66542,0.46575 -2.93874,0.43937 -1.34157,-0.0156 -2.62474,-0.0676 -2.85149,-0.11554 z M 10.638007,128.03363 c -0.158525,-0.10222 -0.8718859,-0.48885 -1.585247,-0.85919 -0.7133611,-0.37034 -1.2970203,-0.74542 -1.2970203,-0.8335 0,-0.13101 3.3665183,1.55806 3.6348593,1.82371 0.161249,0.15963 -0.473076,0.0492 -0.752592,-0.13102 z m 155.898003,-4.00139 c -0.22931,-0.71309 -0.85621,-2.55107 -1.39309,-4.08439 -0.53688,-1.53332 -0.97271,-2.84282 -0.9685,-2.90999 0.0169,-0.26814 0.71871,1.44848 1.41819,3.46841 0.40674,1.17455 0.79275,2.17049 0.85779,2.2132 0.065,0.0427 0.6325,-1.10536 1.26103,-2.55126 1.18355,-2.7227 2.01608,-4.15788 2.88595,-4.97497 0.46233,-0.43429 0.65871,-0.46943 2.27383,-0.40689 l 1.76779,0.0684 -1.76213,0.0431 -1.76213,0.0431 -0.13151,0.64771 c -0.0723,0.35624 -0.64756,1.87618 -1.27828,3.37766 -1.46927,3.49772 -1.74652,4.17775 -2.19316,5.37936 -0.20167,0.5426 -0.40992,0.98574 -0.46276,0.98475 -0.0529,-7.9e-4 -0.2837,-0.58523 -0.51302,-1.29832 z m 4.16389,-8.54704 c 0,-0.11432 -0.12695,-0.0263 -0.28212,0.19562 -0.15516,0.22191 -0.28211,0.49701 -0.28211,0.61133 0,0.11432 0.12695,0.0263 0.28211,-0.19562 0.15517,-0.22191 0.28212,-0.49701 0.28212,-0.61133 z m -24.0675,6.41908 c 0.0562,-0.80025 0.13342,-1.49397 0.17151,-1.54161 0.13369,-0.16719 0.0293,1.963 -0.12141,2.47696 -0.0885,0.30203 -0.10953,-0.0897 -0.0501,-0.93535 z m 52.31371,-0.873 c 0,-0.52259 0.0628,-0.70114 0.19593,-0.55713 0.13314,0.14401 0.54882,0.0256 1.29702,-0.36948 0.60561,-0.31979 1.27403,-0.57614 1.48541,-0.56967 0.21156,0.006 0.0165,0.15256 -0.434,0.32504 -0.45006,0.17231 -1.1812,0.67937 -1.62478,1.1268 -0.44358,0.44743 -0.83194,0.81351 -0.86304,0.81351 -0.031,0 -0.0566,-0.34608 -0.0566,-0.76907 z m -89.63849,-0.20149 c -0.42274,-0.40999 -0.59567,-0.64852 -0.38431,-0.53007 0.35614,0.19957 1.4174,1.30357 1.23444,1.28415 -0.0448,-0.005 -0.42741,-0.34409 -0.85013,-0.75408 z m 16.62107,-0.009 c 0,-0.60318 -0.10338,-0.94172 -0.33626,-1.10118 -0.19497,-0.13351 -0.22092,-0.19816 -0.0617,-0.15386 0.21847,0.0608 0.53982,0.48805 0.70771,0.94093 0.0118,0.0318 0.48736,-0.19585 1.05683,-0.50591 0.67053,-0.36508 1.4078,-0.58324 2.09221,-0.61909 l 1.05684,-0.0554 -1.12264,0.19244 c -1.1954,0.2049 -2.17233,0.74903 -2.92836,1.63102 l -0.46455,0.54195 z m 19.50334,-0.89159 -0.96076,-0.14255 0.86468,-0.0295 c 0.47557,-0.0162 0.99438,0.0612 1.15291,0.17202 0.15852,0.11082 0.20176,0.18823 0.0961,0.17202 -0.10569,-0.0162 -0.6245,-0.0936 -1.15291,-0.17202 z m -46.308427,-0.31653 c 0.528412,-0.14692 1.220157,-0.26695 1.537207,-0.26673 0.31706,2.3e-4 0.0144,0.12579 -0.672526,0.27902 -1.572347,0.35074 -2.14121,0.34265 -0.864681,-0.0123 z m 7.686047,-7.9e-4 c -0.42273,-0.1507 -0.59567,-0.27408 -0.3843,-0.27417 0.21136,-9e-5 0.68694,0.12591 1.05683,0.28 0.86234,0.35923 0.3387,0.35469 -0.67253,-0.005 z m 6.62921,0.0628 c 0,-0.11548 -0.2594,-0.52957 -0.57645,-0.92018 -0.49921,-0.61503 -0.57645,-0.87225 -0.57645,-1.91938 0,-0.91209 0.10692,-1.38079 0.43518,-1.90772 0.51853,-0.83234 1.91766,-1.94418 2.28146,-1.813 0.15832,0.0571 0.0372,0.20756 -0.31342,0.38934 -0.31432,0.16296 -0.77421,0.69383 -1.02199,1.17974 -0.55227,1.08298 -0.44956,1.82162 0.37133,2.67053 0.5241,0.54197 0.6993,0.59775 1.78884,0.56945 1.80976,-0.047 2.76988,-0.71628 3.2898,-2.29326 l 0.26152,-0.79322 0.009,0.68585 c 0.009,0.77447 -0.36586,1.66543 -1.16565,2.76667 -0.29975,0.41271 -0.49169,0.80803 -0.42656,0.87849 0.0651,0.0705 -0.0452,0.1979 -0.24532,0.28321 -0.30734,0.13101 -0.27434,0.17281 0.21269,0.26942 0.31704,0.0628 -0.52602,0.12553 -1.87348,0.13919 -1.53685,0.0156 -2.44993,-0.0534 -2.44993,-0.18513 z m 30.31184,0.11713 c 0.13211,-0.0577 0.34828,-0.0577 0.48039,0 0.13209,0.0577 0.024,0.10484 -0.2402,0.10484 -0.2642,0 -0.37229,-0.0472 -0.24019,-0.10484 z m 37.86578,-0.005 c 0.13872,-0.06 0.30444,-0.0526 0.3683,0.0164 0.0639,0.0691 -0.0497,0.1182 -0.25219,0.10917 -0.22385,-0.01 -0.26939,-0.0592 -0.11611,-0.12558 z m -59.18811,-0.21934 c 0.55838,-0.0421 1.42306,-0.0417 1.92152,7.8e-4 0.49845,0.0427 0.0416,0.0772 -1.01525,0.0766 -1.05682,-5.4e-4 -1.46465,-0.0354 -0.90627,-0.0775 z m 21.05277,-1.64278 c 0.0161,-0.93077 0.0942,-1.65015 0.17349,-1.59862 0.1871,0.12165 0.16604,1.40248 -0.0404,2.45952 -0.13308,0.68123 -0.15711,0.52572 -0.13304,-0.8609 z m 40.52523,1.43952 c 0.29063,-0.0476 0.76621,-0.0476 1.05683,0 0.29063,0.0476 0.0529,0.0866 -0.52842,0.0866 -0.58125,0 -0.81904,-0.039 -0.52841,-0.0866 z m 2.40189,0.002 c 0.23778,-0.0496 0.62689,-0.0496 0.86468,0 0.23778,0.0496 0.0432,0.0901 -0.43235,0.0901 -0.47557,0 -0.67012,-0.0405 -0.43233,-0.0901 z m 16.33284,0 c 0.2378,-0.0496 0.6269,-0.0496 0.86468,0 0.23779,0.0496 0.0432,0.0901 -0.43234,0.0901 -0.47557,0 -0.67012,-0.0405 -0.43234,-0.0901 z m -100.20418,-0.21039 c 0.29209,-0.0478 0.72443,-0.0465 0.96077,0.003 0.23632,0.0493 -0.003,0.0884 -0.53106,0.0869 -0.52842,-0.002 -0.72178,-0.0419 -0.42971,-0.0897 z m 2.30318,0.006 c 0.18495,-0.0523 0.48758,-0.0523 0.67253,0 0.18495,0.0522 0.0336,0.0951 -0.33627,0.0951 -0.36989,0 -0.52121,-0.0428 -0.33626,-0.0951 z m -50.968088,-2.8837 c -0.428054,-0.1752 -0.532829,-0.27685 -0.288227,-0.27963 0.211367,-0.002 0.600472,0.12931 0.86468,0.29269 0.586983,0.36298 0.327991,0.35711 -0.576453,-0.013 z m 87.957188,-0.23756 c 0.23778,-0.0496 0.62688,-0.0496 0.86467,0 0.23779,0.0496 0.0432,0.0901 -0.43233,0.0901 -0.47558,0 -0.67013,-0.0405 -0.43234,-0.0901 z m -92.820914,-0.21297 c -0.803277,-0.0903 -0.86383,-0.42213 -0.148071,-0.81151 0.238791,-0.1299 0.350484,-0.29214 0.24821,-0.36051 -0.182909,-0.12228 -0.458194,-0.96222 -0.315364,-0.96222 0.199464,0 0.641841,1.26284 0.541482,1.54575 -0.09301,0.26219 0.03714,0.32496 0.673888,0.32496 0.434039,0 0.789163,0.0935 0.789163,0.20785 0,0.20531 -0.358358,0.21646 -1.789308,0.0557 z m 3.378212,0.008 c 0.186956,-0.0527 0.44636,-0.0493 0.576453,0.008 0.130092,0.057 -0.02287,0.10006 -0.339922,0.0958 -0.317049,-0.004 -0.423489,-0.0508 -0.236531,-0.10352 z m 108.564382,-1.0444 c 0.29207,-0.0478 0.72441,-0.0465 0.96075,0.003 0.23634,0.0493 -0.003,0.0884 -0.53106,0.0869 -0.52842,-0.002 -0.72177,-0.0419 -0.42969,-0.0897 z m -74.797481,-0.47444 c 0.264213,-0.0915 0.696551,-0.16468 0.960757,-0.16255 0.431496,0.003 0.421721,0.02 -0.09607,0.16255 -0.317047,0.0873 -0.749393,0.16041 -0.960758,0.16254 -0.301136,0.003 -0.280344,-0.0321 0.09607,-0.16254 z m 32.679801,-0.17936 c -0.10536,-0.21296 -0.45705,-0.50615 -0.78152,-0.65154 -0.32448,-0.14539 -0.55199,-0.30542 -0.50558,-0.35562 0.15843,-0.17139 1.2611,0.56624 1.4662,0.98081 0.11255,0.22746 0.16138,0.41356 0.10855,0.41356 -0.0529,0 -0.18228,-0.17424 -0.28765,-0.38721 z m -27.527739,0.0374 c 0.138697,-0.06 0.304431,-0.0526 0.368284,0.0164 0.06387,0.0691 -0.04968,0.11819 -0.252199,0.10916 -0.223848,-0.01 -0.269373,-0.0592 -0.116085,-0.12557 z m -2.706419,-0.21588 c 0.341113,-0.0459 0.946391,-0.0467 1.345058,-0.002 0.398666,0.045 0.119579,0.0826 -0.620208,0.0835 -0.739781,7.9e-4 -1.065965,-0.0359 -0.72485,-0.0818 z m -41.284678,-2.08445 c -0.239012,-0.32967 -0.232215,-0.33703 0.07255,-0.0785 0.320075,0.27154 0.421864,0.44223 0.263717,0.44223 -0.0399,0 -0.19122,-0.16368 -0.336264,-0.36375 z m -22.265022,-7.11909 c 0.158525,-0.11082 0.374694,-0.20149 0.480377,-0.20149 0.105684,0 0.06245,0.0907 -0.09607,0.20149 -0.158524,0.11082 -0.374695,0.20149 -0.480378,0.20149 -0.105683,0 -0.06245,-0.0907 0.09608,-0.20149 z m 1.826235,-0.80087 c 0.423172,-0.2122 0.985213,-0.44634 1.248982,-0.52031 0.263769,-0.074 0.133347,0.0391 -0.289825,0.25133 -0.423172,0.21221 -0.985214,0.44635 -1.248982,0.52032 -0.263769,0.074 -0.133347,-0.0391 0.289825,-0.25134 z m 3.06301,-1.18924 c 0.733946,-0.2773 1.42569,-0.49721 1.537208,-0.4887 0.111518,0.009 -0.397742,0.24235 -1.131688,0.51964 -0.733947,0.27729 -1.425691,0.49721 -1.537209,0.4887 -0.111518,-0.009 0.397742,-0.24235 1.131689,-0.51964 z m 1.992167,-0.64616 c 0.138709,-0.0601 0.304439,-0.0527 0.36829,0.0164 0.06385,0.0691 -0.04964,0.11819 -0.252198,0.10917 -0.223846,-0.01 -0.269377,-0.0592 -0.116092,-0.12558 z m 0.768605,-0.20786 c 0.138708,-0.06 0.304439,-0.0527 0.368289,0.0164 0.06385,0.0691 -0.04964,0.1182 -0.252199,0.10917 -0.223844,-0.01 -0.269376,-0.0592 -0.11609,-0.12558 z m 1.72936,-0.41571 c 0.138709,-0.0601 0.304439,-0.0527 0.368289,0.0164 0.06385,0.0691 -0.04964,0.11819 -0.252198,0.10917 -0.223845,-0.01 -0.269376,-0.0592 -0.116091,-0.12558 z m 15.029659,-0.0139 c -0.0075,-0.33056 0.688019,-1.09125 0.997668,-1.09125 0.129199,0 0.04528,0.14368 -0.186477,0.31928 -0.23176,0.1756 -0.507774,0.47959 -0.613365,0.67553 -0.109052,0.20237 -0.194506,0.24403 -0.197826,0.0964 z m -13.876753,-0.19398 c 0.13871,-0.06 0.304439,-0.0527 0.36829,0.0164 0.06385,0.0691 -0.04964,0.1182 -0.252198,0.10917 -0.223845,-0.01 -0.269377,-0.0592 -0.116092,-0.12558 z m 0.756595,-0.20353 c 0.132105,-0.0577 0.348274,-0.0577 0.480378,0 0.132104,0.0577 0.02401,0.10484 -0.240189,0.10484 -0.264207,0 -0.372292,-0.0472 -0.240189,-0.10484 z m 14.575877,-0.78032 c 0.06423,-0.18104 0.201186,-0.329158 0.304369,-0.329158 0.252563,0 0.09441,0.472408 -0.192824,0.575988 -0.140415,0.0506 -0.183358,-0.0444 -0.111545,-0.24683 z"
       id="path1" /></g></svg>
